<?xml version="1.0" encoding="UTF-8"?>
<svg width="48px" height="48px" viewBox="0 0 48 48" version="1.1" xmlns="http://www.w3.org/2000/svg" xmlns:xlink="http://www.w3.org/1999/xlink">
    <!-- Generator: Sketch 50.2 (55047) - http://www.bohemiancoding.com/sketch -->
    <title>Adobe_XD</title>
    <desc>Created with Sketch.</desc>
    <defs>
        <radialGradient cx="39.8681818%" cy="33.311215%" fx="39.8681818%" fy="33.311215%" r="65.1963636%" id="radialGradient-1">
            <stop stop-color="#0E0E17" stop-opacity="0.85" offset="0%"></stop>
            <stop stop-color="#0E0E17" offset="76.7%"></stop>
        </radialGradient>
    </defs>
    <g id="Adobe_XD" stroke="none" stroke-width="1" fill="none" fill-rule="evenodd">
        <g fill-rule="nonzero">
            <path d="M0,24 C0,10.7452 10.7452,0 24,0 C37.2548,0 48,10.7452 48,24 C48,37.2548 37.2548,48 24,48 C10.7452,48 0,37.2548 0,24 Z" id="path0_fill" fill="#FF2BC2"></path>
            <path d="M2.4,24 C2.4,12.07068 12.07068,2.4 24,2.4 C35.92932,2.4 45.6,12.07068 45.6,24 C45.6,35.92932 35.92932,45.6 24,45.6 C12.07068,45.6 2.4,35.92932 2.4,24 Z" id="path0_fill" fill="url(#radialGradient-1)"></path>
            <path d="M32.9775268,22.1549382 C32.733779,22.0411893 32.4250318,21.9924397 32.0350352,21.9924397 C29.9875534,21.9924397 28.6225655,23.5686757 28.6225655,26.1849025 C28.6225655,29.1748759 30.0200531,30.3773653 31.840037,30.3773653 C32.2300334,30.3773653 32.6525297,30.3286157 32.961277,30.1986169 L32.961277,22.1549382 L32.9775268,22.1549382 Z M25.6975914,26.3149014 C25.6975914,22.528685 28.1350698,19.5712112 32.1325343,19.5712112 C32.4737813,19.5712112 32.6525297,19.5712112 32.9775268,19.6037109 L32.9775268,15.3787484 C32.9775268,15.2812493 33.0587761,15.2162498 33.1400254,15.2162498 L35.7562522,15.2162498 C35.886251,15.2162498 35.9187507,15.2649994 35.9187507,15.3462487 L35.9187507,30.1986169 C35.9187507,30.637363 35.9187507,31.1898581 36,31.7911027 C36,31.9048517 36,31.9211015 35.9025009,31.9698511 C34.537513,32.6198454 33.1075257,32.9123427 31.7425378,32.9123427 C28.2163191,32.9123427 25.6975914,30.7348621 25.6975914,26.3149014 Z M20.1563906,23.6824247 L24.7063502,32.5060963 C24.7875995,32.6360952 24.73885,32.7660941 24.6088511,32.7660941 L21.7813762,32.7660941 C21.6026278,32.7660941 21.5213786,32.7173445 21.4401293,32.5548459 C20.4001385,30.409865 19.3438978,28.1836347 18.2551575,25.8761552 L18.2226578,25.8761552 C17.2476665,28.0536359 16.175176,30.4261148 15.1351852,32.5710958 C15.0539359,32.7010946 14.9726866,32.7498442 14.8426878,32.7498442 L12.1452118,32.7498442 C11.9827132,32.7498442 11.9664634,32.6198454 12.0477126,32.5223462 L16.5001731,23.9586722 L12.1939614,15.4437478 C12.0964622,15.313749 12.1939614,15.2 12.3077103,15.2 L15.1026855,15.2 C15.2651841,15.2 15.3464334,15.2324997 15.395183,15.3787484 C16.4189238,17.5399792 17.4589146,19.6687103 18.4339059,21.846191 L18.4664057,21.846191 C19.4088973,19.70121 20.4488881,17.5399792 21.4401293,15.4112482 C21.5213786,15.2812493 21.5701281,15.2 21.7326266,15.2 L24.3488534,15.2 C24.4788523,15.2 24.5276018,15.2974991 24.4463526,15.4437478 L20.1563906,23.6824247 Z" id="Shape" fill="#FED7F0"></path>
        </g>
    </g>
</svg>