<?xml version="1.0" encoding="UTF-8"?>
<svg width="48px" height="48px" viewBox="0 0 48 48" version="1.1" xmlns="http://www.w3.org/2000/svg" xmlns:xlink="http://www.w3.org/1999/xlink">
    <!-- Generator: Sketch 50.2 (55047) - http://www.bohemiancoding.com/sketch -->
    <title>Apple</title>
    <desc>Created with Sketch.</desc>
    <defs></defs>
    <g id="Apple" stroke="none" stroke-width="1" fill="none" fill-rule="evenodd">
        <g fill-rule="nonzero">
            <path d="M0,24 C0,10.7451654 10.7451654,0 24,0 C37.2548346,0 48,10.7451654 48,24 C48,37.2548346 37.2548346,48 24,48 C10.7451654,48 0,37.2548346 0,24 Z" id="back" fill="#FFFFFF"></path>
            <path d="M27.9071621,14.1614628 C28.8235183,12.9785554 29.5181754,11.3066248 29.2669165,9.6 C27.769216,9.70408264 26.0186142,10.6623038 24.9971562,11.9112954 C24.0660201,13.0429875 23.3007476,14.7264829 23.5996309,16.360415 C25.2369197,16.4116303 26.9267594,15.4302798 27.9071621,14.1614628 Z M36,30.2149703 C35.344756,31.6754314 35.0294506,32.328013 34.1853519,33.6216115 C33.0078834,35.4273627 31.3476035,37.6758781 29.2882653,37.6923991 C27.4604794,37.7122244 26.9891636,36.4946227 24.507776,36.5094917 C22.0263884,36.5227086 21.5090906,37.7155286 19.6780202,37.6973554 C17.6203242,37.6791822 16.0470818,35.6503969 14.8696134,33.8446458 C11.575329,28.7991161 11.2288216,22.8763185 13.2602422,19.7257536 C14.7053918,17.488803 16.9847869,16.1803355 19.1262358,16.1803355 C21.3054558,16.1803355 22.6767058,17.3830682 24.4815006,17.3830682 C26.2321022,17.3830682 27.2979002,16.1770314 29.8187009,16.1770314 C31.7269553,16.1770314 33.7485226,17.222814 35.1871034,19.026913 C30.4706605,21.6273268 31.2342906,28.4026108 36,30.2149703 Z" id="Shape" fill="#0B0B0A"></path>
        </g>
    </g>
</svg>