<?xml version="1.0" encoding="UTF-8"?>
<svg width="48px" height="48px" viewBox="0 0 48 48" version="1.1" xmlns="http://www.w3.org/2000/svg" xmlns:xlink="http://www.w3.org/1999/xlink">
    <!-- Generator: Sketch 50.2 (55047) - http://www.bohemiancoding.com/sketch -->
    <title>Basecamp</title>
    <desc>Created with Sketch.</desc>
    <defs></defs>
    <g id="Basecamp" stroke="none" stroke-width="1" fill="none" fill-rule="evenodd">
        <g fill-rule="nonzero">
            <path d="M0,24 C0,10.7451654 10.7451654,0 24,0 C37.2548346,0 48,10.7451654 48,24 C48,37.2548346 37.2548346,48 24,48 C10.7451654,48 0,37.2548346 0,24 Z" id="back" fill="#FFFFFF"></path>
            <path d="M24.339031,12.8 C16.8351221,12.8 10.9562248,22.3584689 10.4,30.4317542 C12.7547482,34.5235164 18.4331768,36.0615385 24.339031,36.0615385 C30.2445056,36.0615385 35.9233139,34.5235164 38.276923,30.4317542 C37.7206982,22.3584689 31.8425602,12.8 24.339031,12.8" id="Shape" fill="#B6DEFF"></path>
            <path d="M36.4504773,28.5689645 C36.4504773,28.5689645 34.7880754,24.984593 33.0982525,22.8932982 C31.407287,20.8012438 29.3423286,18.523077 28.1213297,18.523077 C26.9010923,18.523077 23.4898361,24.5466594 21.9249312,24.5466594 C20.3596456,24.5466594 19.5461541,21.8161256 17.6217287,21.8161256 C15.6965416,21.8161256 12.6379506,28.4007038 12.6379506,28.4007038 L12.4307692,29.5169979 C12.4307692,29.5169979 13.4933354,34.2153846 24.6099102,34.2153846 C35.726866,34.2153846 36.6153846,29.5941016 36.6153846,29.5941016 L36.4504773,28.5689645" id="Shape" fill="#66CC66"></path>
            <path d="M22.0595064,27.0153846 C20.3306805,27.0153846 19.4443378,25.3365898 18.9637905,24.3003382 C18.5316793,23.3669238 18.4569275,21.8930522 17.2307692,21.8517673 C17.3512874,21.8048526 17.467229,21.7770791 17.5759242,21.7770791 C19.5030713,21.7770791 20.3177133,24.4752362 21.8852127,24.4752362 C23.4523307,24.4752362 26.8684114,18.523077 28.0903746,18.523077 C28.3207321,18.523077 28.5800751,18.6030195 28.8615385,18.7452648 C28.6533014,18.718242 28.3863306,18.7370078 28.1807632,18.9400546 C27.7856466,19.3288834 24.1998487,27.0153846 22.0595064,27.0153846" id="Shape" fill="#17AD49"></path>
        </g>
    </g>
</svg>