<?xml version="1.0" encoding="UTF-8"?>
<svg width="48px" height="48px" viewBox="0 0 48 48" version="1.1" xmlns="http://www.w3.org/2000/svg" xmlns:xlink="http://www.w3.org/1999/xlink">
    <!-- Generator: Sketch 50.2 (55047) - http://www.bohemiancoding.com/sketch -->
    <title>Discord</title>
    <desc>Created with Sketch.</desc>
    <defs>
        <path d="M0,24 C0,10.7451654 10.7451654,0 24,0 C37.2548346,0 48,10.7451654 48,24 C48,37.2548346 37.2548346,48 24,48 C10.7451654,48 0,37.2548346 0,24 Z" id="path-1"></path>
    </defs>
    <g id="Discord" stroke="none" stroke-width="1" fill="none" fill-rule="evenodd">
        <g>
            <g id="back" fill="#FFFFFF" fill-rule="nonzero">
                <path d="M0,24 C0,10.7451654 10.7451654,0 24,0 C37.2548346,0 48,10.7451654 48,24 C48,37.2548346 37.2548346,48 24,48 C10.7451654,48 0,37.2548346 0,24 Z" id="path-1"></path>
            </g>
            <g id="Discord-Logo-Color-Clipped">
                <mask id="mask-2" fill="white">
                    <use xlink:href="#path-1"></use>
                </mask>
                <g id="path-1"></g>
                <g id="Discord-Logo-Color" mask="url(#mask-2)">
                    <g transform="translate(12.000000, 10.400000)" id="Shape">
                        <g>
                            <path d="M10.2340949,12 C9.43268896,12 8.8,12.7207207 8.8,13.6 C8.8,14.4792793 9.44674872,15.2 10.2340949,15.2 C11.0355009,15.2 11.6681898,14.4792793 11.6681898,13.6 C11.6822496,12.7207207 11.0355009,12 10.2340949,12 Z M15.3659051,12 C14.5644991,12 13.9318102,12.7207207 13.9318102,13.6 C13.9318102,14.4792793 14.5785589,15.2 15.3659051,15.2 C16.167311,15.2 16.8,14.4792793 16.8,13.6 C16.8,12.7207207 16.167311,12 15.3659051,12 Z" fill="#7289DA" fill-rule="nonzero"></path>
                            <path d="M21.8948571,0 L2.90514286,0 C1.30377143,0 0,1.288 0,2.884 L0,21.812 C0,23.408 1.30377143,24.696 2.90514286,24.696 L18.9755429,24.696 L18.2244571,22.106 L20.0384,23.772 L21.7531429,25.34 L24.8,28 L24.8,2.884 C24.8,1.288 23.4962286,0 21.8948571,0 Z M16.4246857,18.284 C16.4246857,18.284 15.9145143,17.682 15.4893714,17.15 C17.3458286,16.632 18.0544,15.484 18.0544,15.484 C17.4733714,15.862 16.9206857,16.128 16.4246857,16.31 C15.7161143,16.604 15.0358857,16.8 14.3698286,16.912 C13.0093714,17.164 11.7622857,17.094 10.6994286,16.898 C9.89165712,16.744 9.19725712,16.52 8.61622856,16.296 C8.29028568,16.17 7.936,16.016 7.58171429,15.82 C7.5392,15.792 7.49668571,15.778 7.45417143,15.75 C7.42582857,15.736 7.41165714,15.722 7.39748571,15.708 C7.1424,15.568 7.00068571,15.47 7.00068571,15.47 C7.00068571,15.47 7.68091429,16.59 9.48068568,17.122 C9.05554288,17.654 8.5312,18.284 8.5312,18.284 C5.39931429,18.186 4.20891429,16.156 4.20891429,16.156 C4.20891429,11.648 6.2496,7.994 6.2496,7.994 C8.29028568,6.482 10.2317714,6.524 10.2317714,6.524 L10.3734857,6.692 C7.82262857,7.42 6.6464,8.526 6.6464,8.526 C6.6464,8.526 6.95817143,8.358 7.48251429,8.12 C8.99885712,7.462 10.2034286,7.28 10.6994286,7.238 C10.7844571,7.224 10.8553143,7.21 10.9403429,7.21 C11.8048,7.098 12.7826286,7.07 13.8029714,7.182 C15.1492571,7.336 16.5947429,7.728 18.0685714,8.526 C18.0685714,8.526 16.9490286,7.476 14.5398857,6.748 L14.7382857,6.524 C14.7382857,6.524 16.6797714,6.482 18.7204571,7.994 C18.7204571,7.994 20.7611429,11.648 20.7611429,16.156 C20.7611429,16.156 19.5565714,18.186 16.4246857,18.284 Z" fill="#7289DA" fill-rule="nonzero"></path>
                        </g>
                    </g>
                </g>
            </g>
        </g>
    </g>
</svg>