<?xml version="1.0" encoding="UTF-8"?>
<svg width="48px" height="48px" viewBox="0 0 48 48" version="1.1" xmlns="http://www.w3.org/2000/svg" xmlns:xlink="http://www.w3.org/1999/xlink">
    <!-- Generator: Sketch 50.2 (55047) - http://www.bohemiancoding.com/sketch -->
    <title>Dropbox</title>
    <desc>Created with Sketch.</desc>
    <defs></defs>
    <g id="Dropbox" stroke="none" stroke-width="1" fill="none" fill-rule="evenodd">
        <g fill-rule="nonzero">
            <path d="M0,24 C0,10.7451654 10.7451654,0 24,0 C37.2548346,0 48,10.7451654 48,24 C48,37.2548346 37.2548346,48 24,48 C10.7451654,48 0,37.2548346 0,24 Z" id="back" fill="#2E2882"></path>
            <path d="M18.3072206,10.4000278 L24.3997463,15.4241192 L15.6206682,20.7799192 L9.60002816,16.0167943 L18.3072206,10.4000278 Z M9.6,25.5435454 L15.62064,20.7798635 L24.4,26.1359421 L18.3071924,31.1603119 L9.6,25.5435454 Z M24.3998872,26.1358585 L33.1795291,20.7800585 L39.1998872,25.5434619 L30.4926949,31.1602284 L24.3998872,26.1358585 Z M39.2,16.0167665 L33.17936,20.7798914 L24.4,15.4240914 L30.4928076,10.4 L39.2,16.0167665 Z M24.417901,27.2167665 L30.5284686,32.2263751 L33.1434171,30.539702 L33.1434171,32.430525 L24.417901,37.6 L15.6923848,32.430525 L15.6923848,30.539702 L18.3073334,32.2263751 L24.417901,27.2167665 Z" id="Combined-Shape" fill="#FEB0A5"></path>
        </g>
    </g>
</svg>