<?xml version="1.0" encoding="UTF-8"?>
<svg width="48px" height="48px" viewBox="0 0 48 48" version="1.1" xmlns="http://www.w3.org/2000/svg" xmlns:xlink="http://www.w3.org/1999/xlink">
    <!-- Generator: Sketch 50.2 (55047) - http://www.bohemiancoding.com/sketch -->
    <title>DuckDuckGo</title>
    <desc>Created with Sketch.</desc>
    <defs>
        <path d="M47.8541538,23.9187692 C47.8541538,36.9876923 37.2226154,47.6206154 24.1523077,47.6206154 C11.0847692,47.6206154 0.45323077,36.9872308 0.45323077,23.9187692 C0.45323077,10.8512308 11.0852308,0.21923077 24.1523077,0.21923077 C37.2221538,0.21923077 47.8541538,10.8512308 47.8541538,23.9187692 Z" id="path-1"></path>
        <linearGradient x1="0.00126665777%" y1="49.9926211%" x2="100.00817%" y2="49.9926211%" id="linearGradient-3">
            <stop stop-color="#6176B9" offset="0.56%"></stop>
            <stop stop-color="#394A9F" offset="69.1%"></stop>
        </linearGradient>
        <linearGradient x1="0.00512491992%" y1="49.9965807%" x2="100.001281%" y2="49.9965807%" id="linearGradient-4">
            <stop stop-color="#6176B9" offset="0.56%"></stop>
            <stop stop-color="#394A9F" offset="69.1%"></stop>
        </linearGradient>
    </defs>
    <g id="DuckDuckGo" stroke="none" stroke-width="1" fill="none" fill-rule="evenodd">
        <g>
            <circle id="Oval" fill="#DE5833" fill-rule="nonzero" cx="24.1532308" cy="23.9843077" r="23.6076923"></circle>
            <g id="Group">
                <g>
                    <g id="Clipped">
                        <g id="Group-Clipped">
                            <mask id="mask-2" fill="white">
                                <use xlink:href="#path-1"></use>
                            </mask>
                            <g id="path-1"></g>
                            <g id="Group" mask="url(#mask-2)">
                                <g transform="translate(10.400000, 4.800000)" id="Shape">
                                    <g transform="translate(0.215385, 0.276923)">
                                        <path d="M23.2121538,54.072923 C22.380923,50.249077 17.5527692,41.5933846 15.7213846,37.9333846 C13.8913846,34.2724615 12.0576923,29.1133846 12.8926154,25.7847692 C13.044,25.1792308 11.3067692,20.5656923 11.8061538,20.2393846 C15.6904615,17.706 16.7132308,20.5158462 18.2686154,19.38 C19.068923,18.7924615 20.1563077,19.8632308 20.4327692,18.8907692 C21.4287692,15.3983077 19.0453846,9.3092308 16.3846154,6.648 C15.5146154,5.78076923 14.1826154,5.2356923 12.6784615,4.9463077 C12.0996923,4.1556923 11.166923,3.39553846 9.84553848,2.69446154 C8.37415384,1.91123077 5.1743077,0.87692308 3.51461538,0.601384615 C2.36446154,0.412153846 2.10461538,0.733846154 1.61353846,0.814153848 C2.07138462,0.854769232 4.24384615,1.9283077 4.66661538,1.99061538 C4.24384615,2.2763077 3.00184615,1.9776923 2.20938462,2.33307692 C1.81015385,2.514 1.51153846,3.19938462 1.5143077,3.52384615 C3.78046154,3.29492308 7.3176923,3.51646154 9.40661536,4.44692308 C7.74415385,4.63615385 5.21584615,4.84707692 4.12846154,5.41846154 C0.967846152,7.0836923 -0.428307692,10.973077 0.403846154,15.6336923 C1.23646154,20.2836923 4.8983077,37.2567692 6.06323077,42.924 C7.22861538,48.5843077 3.56723077,52.242 1.23784615,53.2412308 L3.73384615,53.4087692 L2.90261538,55.2396923 C5.89523077,55.5715385 9.22338464,54.5755385 9.22338464,54.5755385 C8.55969232,56.4055385 4.06523077,57.0733846 4.06523077,57.0733846 C4.06523077,57.0733846 6.2303077,57.737077 9.7227692,56.4055385 C13.2203077,55.074923 15.3826154,54.2418462 15.3826154,54.2418462 L17.046,58.5678462 L20.2093846,55.4076923 L21.540923,58.7358462 C21.5473846,58.7353846 24.0443077,57.9013846 23.2121538,54.072923 Z" fill="#D5D7D8" fill-rule="nonzero"></path>
                                        <path d="M24.2173846,53.297077 C23.388923,49.4713846 18.5607692,40.8156923 16.7275385,37.152923 C14.8952308,33.4901538 13.0652308,28.332 13.8983077,25.0047692 C14.052923,24.4006154 14.0556923,21.9272308 14.5578462,21.599077 C18.4398462,19.0633846 18.1633846,21.5141538 19.721077,20.3783077 C20.5241538,19.7916923 21.167077,19.0832308 21.4463077,18.1112308 C22.445077,14.6164615 20.058923,8.52969232 17.3972308,5.86707692 C16.53,4.99984615 15.1966154,4.45384615 13.6943077,4.16584615 C13.1164615,3.37292308 12.1846154,2.61461538 10.865077,1.91261538 C8.37692304,0.591692308 5.29246154,0.0636923077 2.43461538,0.582 C2.89153846,0.623538462 3.93738462,1.56876923 4.3583077,1.63107692 C3.72092308,2.06307692 2.02615385,2.00723077 2.03723077,2.9676923 C4.30615385,2.74061538 6.79246154,3.09923077 8.88369232,4.02784615 C7.22123077,4.21707692 5.6736923,4.62784615 4.5863077,5.20153846 C1.42292308,6.86446154 0.59123077,10.1916923 1.42292308,14.8541538 C2.25692308,19.5143077 5.91923077,36.4878462 7.07953846,42.143077 C8.24584616,47.8015385 4.5863077,51.4606154 2.25692308,52.4603077 L4.75292308,52.626 L3.9216923,54.4596923 C6.9143077,54.7924615 10.2424615,53.7955385 10.2424615,53.7955385 C9.5787692,55.6296923 5.0843077,56.2906154 5.0843077,56.2906154 C5.0843077,56.2906154 7.24707692,56.9547692 10.7418462,55.6236923 C14.2407692,54.293077 16.4044615,53.46 16.4044615,53.46 L18.0678462,57.786 L21.2307692,54.623077 L22.565077,57.953077 C22.5576923,57.9563077 25.0518462,57.1236923 24.2173846,53.297077 Z" fill="#FFFFFF" fill-rule="nonzero"></path>
                                        <path d="M5.08661538,15.0881538 C5.08661538,14.1221538 5.868,13.3403077 6.83538462,13.3403077 C7.8,13.3403077 8.58230768,14.1221538 8.58230768,15.0881538 C8.58230768,16.0546154 7.8,16.8355385 6.83538462,16.8355385 C5.868,16.836 5.08661538,16.0546154 5.08661538,15.0881538 Z" fill="#2D4F8E" fill-rule="nonzero"></path>
                                        <path d="M7.15707692,14.5056923 C7.15707692,14.2541538 7.36061538,14.052 7.60938462,14.052 C7.86,14.052 8.06353848,14.2541538 8.06353848,14.5056923 C8.06353848,14.7563077 7.86,14.9598462 7.60938462,14.9598462 C7.36107692,14.9603077 7.15707692,14.7563077 7.15707692,14.5056923 Z" fill="#FFFFFF" fill-rule="nonzero"></path>
                                        <path d="M17.0155385,14.0515385 C17.0155385,13.224 17.6898462,12.5515385 18.5164615,12.5515385 C19.3476923,12.5515385 20.0192308,13.224 20.0192308,14.0515385 C20.0192308,14.8827692 19.3476923,15.5552308 18.5164615,15.5552308 C17.6898462,15.5552308 17.0155385,14.8827692 17.0155385,14.0515385 Z" fill="#2D4F8E" fill-rule="nonzero"></path>
                                        <path d="M18.7961538,13.5521538 C18.7961538,13.3384615 18.971077,13.163077 19.182923,13.163077 C19.404,13.163077 19.5733846,13.3384615 19.5733846,13.5521538 C19.5733846,13.7686154 19.404,13.9407692 19.182923,13.9407692 C18.971077,13.9407692 18.7961538,13.7686154 18.7961538,13.5521538 Z" fill="#FFFFFF" fill-rule="nonzero"></path>
                                        <path d="M7.332,10.0236923 C7.332,10.0236923 6.01476923,9.42784616 4.734,10.2327692 C3.45553846,11.0367692 3.50261538,11.8587692 3.50261538,11.8587692 C3.50261538,11.8587692 2.82276923,10.3435385 4.63476923,9.60092304 C6.44861538,8.85830768 7.332,10.0236923 7.332,10.0236923 Z" fill="url(#linearGradient-3)" fill-rule="nonzero"></path>
                                        <path d="M19.4206154,9.90369232 C19.4206154,9.90369232 18.474,9.3627692 17.7392308,9.372 C16.2295385,9.39184616 15.8183077,10.0587692 15.8183077,10.0587692 C15.8183077,10.0587692 16.0716923,8.4687692 18.0023077,8.78769232 C19.049077,8.96169232 19.4206154,9.90369232 19.4206154,9.90369232 Z" fill="url(#linearGradient-4)" fill-rule="nonzero"></path>
                                    </g>
                                </g>
                            </g>
                        </g>
                    </g>
                    <path d="M22.8,26.9053846 C22.974923,25.848 25.7072308,23.8476923 27.642,23.7267692 C29.580923,23.6044615 30.185077,23.6321538 31.8004615,23.2453846 C33.4204615,22.8586154 37.5858462,21.8201538 38.7387692,21.2875385 C39.8944615,20.754 44.7867692,21.5515385 41.3376923,23.4743077 C39.846,24.3092308 35.8255385,25.8424615 32.9506154,26.699077 C30.0803077,27.558 28.3398462,25.8793846 27.3844615,27.2903077 C26.6247692,28.4127692 27.2303077,29.9496923 30.660923,30.2686154 C35.2933846,30.6978462 39.7347692,28.182 40.2235385,29.5186154 C40.7146154,30.8547692 36.2427692,32.5223077 33.5196923,32.5753846 C30.7998462,32.6266154 25.3176923,30.7772308 24.4943077,30.2044615 C23.67,29.633077 22.572,28.2983077 22.8,26.9053846 Z" id="Shape" fill="#FDD20A" fill-rule="nonzero"></path>
                </g>
                <g id="Shape" transform="translate(18.000000, 37.384615)" fill-rule="nonzero">
                    <path d="M6.89676923,3.504 C6.89676923,3.504 0.388153846,0.0327692308 0.282,1.44092308 C0.172153846,2.85138462 0.282,8.59892304 1.0403077,9.03369232 C1.8,9.46661536 7.22307692,6.21461538 7.22307692,6.21461538 L6.89676923,3.504 Z" fill="#65BC46"></path>
                    <path d="M9.39046152,3.28523077 C9.39046152,3.28523077 13.8373846,-0.077076923 14.8153846,0.139846154 C15.7896923,0.360923077 16.007077,7.2983077 15.138923,7.63015385 C14.2707692,7.94861538 9.18138464,5.8703077 9.18138464,5.8703077 L9.39046152,3.28523077 Z" fill="#65BC46"></path>
                    <path d="M5.32107692,3.87184615 C5.32107692,6.14815385 4.99384615,7.12523077 5.97184615,7.34215385 C6.94523077,7.56046154 8.78907696,7.34215385 9.44169232,6.90923077 C10.0924615,6.4763077 9.5487692,3.5496923 9.33461536,3.0023077 C9.11446152,2.46046154 5.32107692,2.89523077 5.32107692,3.87184615 Z" fill="#43A244"></path>
                    <path d="M5.73507692,3.36553846 C5.73507692,5.6423077 5.40876923,6.61938462 6.38538462,6.83584615 C7.35738462,7.05692308 9.20261536,6.83584615 9.85569232,6.40292308 C10.5064615,5.96861538 9.96230768,3.04338462 9.7467692,2.49553846 C9.52846152,1.95415385 5.73507692,2.39076923 5.73507692,3.36553846 Z" fill="#65BC46"></path>
                </g>
            </g>
        </g>
    </g>
</svg>