<?xml version="1.0" encoding="UTF-8"?>
<svg width="48px" height="48px" viewBox="0 0 48 48" version="1.1" xmlns="http://www.w3.org/2000/svg" xmlns:xlink="http://www.w3.org/1999/xlink">
    <!-- Generator: Sketch 50.2 (55047) - http://www.bohemiancoding.com/sketch -->
    <title>Evernote</title>
    <desc>Created with Sketch.</desc>
    <defs></defs>
    <g id="Evernote" stroke="none" stroke-width="1" fill="none" fill-rule="evenodd">
        <g fill-rule="nonzero">
            <path d="M24,48 C37.254834,48 48,37.254834 48,24 C48,10.745166 37.254834,0 24,0 C10.745166,0 0,10.745166 0,24 C0,37.254834 10.745166,48 24,48 Z" id="Oval" fill="#FFFFFF"></path>
            <g id="Clip-2" transform="translate(12.000000, 9.600000)" fill="#20C05C">
                <path d="M17.8758146,13.6226717 C17.4881608,13.6090698 17.1152911,13.6336426 16.7675893,13.6897382 C16.8654422,12.8963085 17.1916352,11.9227276 18.3471801,11.9634838 C19.6263391,12.0076653 19.8055796,13.2214642 19.810178,14.0436367 C19.2707754,13.8022272 18.6030614,13.6483367 17.8758146,13.6226717 Z M23.345641,5.01100824 C23.1317886,3.86164464 22.4511692,3.29527792 21.8358181,3.07258344 C21.1719113,2.83167032 19.825704,2.58211952 18.1342671,2.38196256 C16.7734733,2.22107248 15.1740548,2.23388016 14.2079362,2.263864 C14.0919862,1.46651256 13.5349314,0.738114 12.9116195,0.48593216 C11.2509378,-0.18517944 8.6850052,-0.02304832 8.0262408,0.16231528 C7.50271024,0.30920624 6.92330608,0.6102856 6.60082152,1.07414144 C6.38454624,1.38400744 6.24461504,1.78099528 6.2435272,2.33559688 C6.2435272,2.64948384 6.25222968,3.38890296 6.2601904,4.04581688 C6.26810168,4.70486536 6.27670528,5.29426608 6.27670528,5.29823744 C6.27640856,5.88495744 5.80276864,6.3624648 5.21579936,6.36320944 L2.52318792,6.36320944 C1.94887664,6.36320944 1.50999704,6.4601108 1.17480496,6.61300848 C0.83906896,6.76605504 0.60128488,6.97241728 0.42061016,7.21650752 C0.06094248,7.70116336 -0.00145792,8.29935064 2.544e-05,8.90974992 C2.544e-05,8.90974992 0.00531616,9.40855376 0.12502408,10.3739934 C0.22450872,11.1210077 1.03141256,16.3394846 1.7978696,17.9265922 C2.09498856,18.5440903 2.29296896,18.8012861 2.87677376,19.0734241 C4.17754056,19.632543 7.14867936,20.2545586 8.5412172,20.4326744 C9.93123344,20.611237 10.8036525,20.986581 11.3235735,19.8921216 C11.3253042,19.8894409 11.4277555,19.6198346 11.5685767,19.2243857 C12.0199661,17.8511362 12.0828115,16.6326709 12.0828115,15.7509775 C12.0828115,15.6613238 12.2138425,15.6572036 12.2138425,15.7509775 C12.2138425,16.3734894 12.0954202,18.5763577 13.7528878,19.1673469 C14.4072022,19.4003173 15.7645348,19.6080198 17.1437223,19.7702998 C18.3907911,19.9142123 19.2957949,20.4069102 19.2957949,23.619052 C19.2957949,25.573313 18.8869782,25.8412314 16.7496405,25.8412314 C15.0170154,25.8412314 14.3567182,25.8862569 14.3567182,24.5043697 C14.3567182,23.3874715 15.4569828,23.5045276 16.2724405,23.5045276 C16.6366572,23.5045276 16.3723207,23.2324889 16.3723207,22.5434566 C16.3723207,21.8579984 16.7992839,21.4617552 16.3954118,21.4516778 C13.5756746,21.3737894 11.9165258,21.4484511 11.9165258,24.9889758 C11.9165258,28.203153 13.1416902,28.8 17.1437223,28.8 C20.2815434,28.8 21.3876426,28.6968437 22.6832671,24.6607919 C22.9397417,23.8640362 23.5597407,21.432516 23.9349838,17.3499496 C24.1721251,14.7685603 23.7112422,6.97743112 23.345641,5.01100824 Z M2.397052,5.57806992 L2.39883208,5.57806992 L5.09099848,5.57806992 C5.24526896,5.57806992 5.36932808,5.45192936 5.36967424,5.29823744 C5.36967424,5.29724456 5.33699064,2.98069592 5.33699064,2.3364904 L5.33699064,2.32889512 C5.33699064,1.79980968 5.44755112,1.3384856 5.6402408,0.95197216 L5.73230864,0.77837376 C5.72202392,0.78011128 5.71168976,0.78517472 5.70145456,0.79545064 L0.47050088,6.00335384 C0.4602656,6.01179296 0.45388712,6.02276392 0.4509204,6.03398304 C0.55915712,5.98022064 0.70704912,5.90675032 0.72796464,5.89756648 C1.18350736,5.69120432 1.7358648,5.57806992 2.397052,5.57806992 Z" id="path-1"></path>
            </g>
        </g>
    </g>
</svg>