<?xml version="1.0" encoding="UTF-8"?>
<svg width="48px" height="48px" viewBox="0 0 48 48" version="1.1" xmlns="http://www.w3.org/2000/svg" xmlns:xlink="http://www.w3.org/1999/xlink">
    <!-- Generator: Sketch 50.2 (55047) - http://www.bohemiancoding.com/sketch -->
    <title>Flickr</title>
    <desc>Created with Sketch.</desc>
    <defs></defs>
    <g id="Flickr" stroke="none" stroke-width="1" fill="none" fill-rule="evenodd">
        <g fill-rule="nonzero">
            <path d="M0,24 C0,10.7451654 10.7451654,0 24,0 C37.2548346,0 48,10.7451654 48,24 C48,37.2548346 37.2548346,48 24,48 C10.7451654,48 0,37.2548346 0,24 Z" id="back" fill="#FFFFFF"></path>
            <g id="Group" transform="translate(9.600000, 17.600000)">
                <path d="M28.6953814,6.19860284 C28.6953814,9.62223048 25.8692061,12.3988604 22.3765595,12.3988604 C18.8805385,12.3988604 16.0526759,9.62223048 16.0526759,6.19860284 C16.0526759,2.77662989 18.8805385,0 22.3765595,0 C25.8692061,0 28.6953814,2.77662989 28.6953814,6.19860284" id="Shape" fill="#FF007F"></path>
                <path d="M12.6410182,6.19860284 C12.6410182,9.62223048 9.81315568,12.3988604 6.31713459,12.3988604 C2.82617534,12.3988604 0,9.62223048 0,6.19860284 C0,2.77662989 2.82617534,0 6.31713459,0 C9.81315568,0 12.6410182,2.77662989 12.6410182,6.19860284" id="Shape" fill="#0960D5"></path>
            </g>
        </g>
    </g>
</svg>