<?xml version="1.0" encoding="UTF-8"?>
<svg width="48px" height="48px" viewBox="0 0 48 48" version="1.1" xmlns="http://www.w3.org/2000/svg" xmlns:xlink="http://www.w3.org/1999/xlink">
    <!-- Generator: Sketch 50.2 (55047) - http://www.bohemiancoding.com/sketch -->
    <title>Geo</title>
    <desc>Created with Sketch.</desc>
    <defs></defs>
    <g id="Geo" stroke="none" stroke-width="1" fill="none" fill-rule="evenodd">
        <g fill-rule="nonzero">
            <circle id="Oval" fill="#09BD9F" cx="24" cy="24" r="24"></circle>
            <path d="M15.3042749,23.4076912 C17.5849173,28.7646014 24.0276097,38.4 24.0276097,38.4 C24.0276097,38.4 31.4926562,26.7108482 33.0209375,22.6466272 L33.0107098,22.6466272 C33.3918689,21.6020336 33.6,20.4728996 33.6,19.2946746 C33.6,13.9404537 29.3019336,9.6 24,9.6 C18.6980664,9.6 14.4,13.9404537 14.4,19.2946746 C14.4,20.7651094 14.7241695,22.1590838 15.3042749,23.4076912 Z M24,24.8 C27.0927946,24.8 29.6,22.2927946 29.6,19.2 C29.6,16.1072054 27.0927946,13.6 24,13.6 C20.9072054,13.6 18.4,16.1072054 18.4,19.2 C18.4,22.2927946 20.9072054,24.8 24,24.8 Z" id="Combined-Shape" fill="#FFFFFF"></path>
        </g>
    </g>
</svg>