<?xml version="1.0" encoding="UTF-8"?>
<svg width="48px" height="48px" viewBox="0 0 48 48" version="1.1" xmlns="http://www.w3.org/2000/svg" xmlns:xlink="http://www.w3.org/1999/xlink">
    <!-- Generator: Sketch 50.2 (55047) - http://www.bohemiancoding.com/sketch -->
    <title>Google +</title>
    <desc>Created with Sketch.</desc>
    <defs></defs>
    <g id="Google-+" stroke="none" stroke-width="1" fill="none" fill-rule="evenodd">
        <g fill-rule="nonzero">
            <path d="M0,24 C0,10.7451654 10.7451654,0 24,0 C37.2548346,0 48,10.7451654 48,24 C48,37.2548346 37.2548346,48 24,48 C10.7451654,48 0,37.2548346 0,24 Z" id="back" fill="#DC4E41"></path>
            <path d="M19.6363636,23.3142857 L26.8472727,23.3142857 C26.9127273,23.6942857 26.9672727,24.0742857 26.9672727,24.5737143 C26.9672727,28.9165714 24.0436364,32 19.6363636,32 C15.4145454,32 12,28.6017143 12,24.4 C12,20.1982857 15.4145454,16.8 19.6363636,16.8 C21.6981818,16.8 23.4218182,17.5491429 24.7527273,18.7868571 L22.68,20.7737143 C22.1127273,20.2308571 21.12,19.6011429 19.6363636,19.6011429 C17.0290909,19.6011429 14.9018182,21.7508571 14.9018182,24.4 C14.9018182,27.0491429 17.0290909,29.1988571 19.6363636,29.1988571 C22.6581818,29.1988571 23.7927273,27.0382857 23.9672727,25.92 L19.6363636,25.92 L19.6363636,23.3142857 Z M36,23.3142857 L36,25.4857143 L33.8181818,25.4857143 L33.8181818,27.6571429 L31.6363636,27.6571429 L31.6363636,25.4857143 L29.4545454,25.4857143 L29.4545454,23.3142857 L31.6363636,23.3142857 L31.6363636,21.1428571 L33.8181818,21.1428571 L33.8181818,23.3142857 L36,23.3142857 Z" id="Combined-Shape" fill="#FFFFFF"></path>
        </g>
    </g>
</svg>