<?xml version="1.0" encoding="UTF-8"?>
<svg width="48px" height="48px" viewBox="0 0 48 48" version="1.1" xmlns="http://www.w3.org/2000/svg" xmlns:xlink="http://www.w3.org/1999/xlink">
    <!-- Generator: Sketch 50.2 (55047) - http://www.bohemiancoding.com/sketch -->
    <title>GooglePlay</title>
    <desc>Created with Sketch.</desc>
    <defs></defs>
    <g id="GooglePlay" stroke="none" stroke-width="1" fill="none" fill-rule="evenodd">
        <g fill-rule="nonzero">
            <circle id="Oval" fill="#FFFFFF" cx="24" cy="24" r="24"></circle>
            <g id="Google_Play_symbol_2016" transform="translate(13.600000, 9.600000)">
                <g id="g3042">
                    <path d="M20.0466248,19.2450907 C23.4830414,17.3399892 26.1075042,15.8848077 26.3462347,15.7522907 C27.0583802,15.3574723 27.8044694,14.3499338 26.3462347,13.5445862 C25.8775405,13.2852446 23.3236628,11.8746907 20.0425785,10.0615769 L15.5298512,14.6675646 L20.0466248,19.2450907 Z" id="path16" fill="#FFE300"></path>
                    <path d="M15.5296265,14.6675646 L1.09609256,29.398802 C1.42204298,29.4406974 1.81408265,29.3532635 2.26501818,29.1032574 C3.19858512,28.5857127 13.2243702,23.0270604 20.0466248,19.2446354 L15.5296265,14.6675646 Z" id="path23" fill="#FF4E54"></path>
                    <path d="M15.5296265,14.6675646 L20.0423537,10.0615769 C20.0423537,10.0615769 3.26917025,0.792450836 2.26501818,0.237564682 C1.87904794,0.0242169964 1.45823471,-0.0502383882 1.08575206,0.0337800733 L15.5296265,14.6675646 Z" id="path30" fill="#00F085"></path>
                    <path d="M15.5296265,14.6675646 L1.08552727,0.0340077656 C0.48892562,0.168801612 0,0.691810836 0,1.74306622 L0,27.6430666 C0,28.6330727 0.384621488,29.3293558 1.09586777,29.398802 L15.5296265,14.6675646 Z" id="path37" fill="#00E0FF"></path>
                </g>
            </g>
        </g>
    </g>
</svg>