<?xml version="1.0" encoding="UTF-8"?>
<svg width="48px" height="48px" viewBox="0 0 48 48" version="1.1" xmlns="http://www.w3.org/2000/svg" xmlns:xlink="http://www.w3.org/1999/xlink">
    <!-- Generator: Sketch 50.2 (55047) - http://www.bohemiancoding.com/sketch -->
    <title>Intercom</title>
    <desc>Created with Sketch.</desc>
    <defs></defs>
    <g id="Intercom" stroke="none" stroke-width="1" fill="none" fill-rule="evenodd">
        <g fill-rule="nonzero">
            <path d="M0,24 C0,10.7451654 10.7451654,0 24,0 C37.2548346,0 48,10.7451654 48,24 C48,37.2548346 37.2548346,48 24,48 C10.7451654,48 0,37.2548346 0,24 Z" id="back" fill="#1F8DED"></path>
            <path d="M36.0000283,25.6363636 C36.0000283,26.2388182 35.5115738,26.7272727 34.9091193,26.7272727 C34.3066647,26.7272727 33.8182102,26.2388182 33.8182102,25.6363636 L33.8182102,15.8247273 C33.8182102,15.2222727 34.3066647,14.7338182 34.9091193,14.7338182 C35.5115738,14.7338182 36.0000283,15.2222727 36.0000283,15.8247273 L36.0000283,25.6363636 Z M35.619301,32.4646364 C35.4507556,32.6089091 31.4094829,36 24.0000283,36 C16.5905738,36 12.549301,32.6089091 12.3807556,32.4646364 C11.9236647,32.0724546 11.8704829,31.3838182 12.2626647,30.9261818 C12.6537556,30.4696364 13.3407556,30.4156364 13.798392,30.8059091 C13.8624829,30.8593636 17.4709374,33.8181818 24.0000283,33.8181818 C30.6109374,33.8181818 34.1640283,30.8380909 34.1989374,30.8080909 C34.6554829,30.4159091 35.3454829,30.4685454 35.737392,30.9261818 C36.1295738,31.3838182 36.0766647,32.0724546 35.619301,32.4646364 Z M12.0000283,15.8247273 C12.0000283,15.2222727 12.4884829,14.7338182 13.0909374,14.7338182 C13.693392,14.7338182 14.1818465,15.2222727 14.1818465,15.8247273 L14.1818465,25.6363636 C14.1818465,26.2388182 13.693392,26.7272727 13.0909374,26.7272727 C12.4884829,26.7272727 12.0000283,26.2388182 12.0000283,25.6363636 L12.0000283,15.8247273 Z M17.4545738,13.6429091 C17.4545738,13.0404546 17.9430283,12.552 18.5454829,12.552 C19.1479374,12.552 19.636392,13.0404546 19.636392,13.6429091 L19.636392,28.2169091 C19.636392,28.8193636 19.1479374,29.3078182 18.5454829,29.3078182 C17.9430283,29.3078182 17.4545738,28.8193636 17.4545738,28.2169091 L17.4545738,13.6429091 Z M22.9091193,13.0909091 C22.9091193,12.4884546 23.3975738,12 24.0000283,12 C24.6024829,12 25.0909374,12.4884546 25.0909374,13.0909091 L25.0909374,28.9090909 C25.0909374,29.5115454 24.6024829,30 24.0000283,30 C23.3975738,30 22.9091193,29.5115454 22.9091193,28.9090909 L22.9091193,13.0909091 Z M28.3636647,13.6429091 C28.3636647,13.0404546 28.8521193,12.552 29.4545738,12.552 C30.0570283,12.552 30.5454829,13.0404546 30.5454829,13.6429091 L30.5454829,28.2169091 C30.5454829,28.8193636 30.0570283,29.3078182 29.4545738,29.3078182 C28.8521193,29.3078182 28.3636647,28.8193636 28.3636647,28.2169091 L28.3636647,13.6429091 Z" id="Fill-1" fill="#FFFFFF"></path>
        </g>
    </g>
</svg>