<?xml version="1.0" encoding="UTF-8"?>
<svg width="48px" height="48px" viewBox="0 0 48 48" version="1.1" xmlns="http://www.w3.org/2000/svg" xmlns:xlink="http://www.w3.org/1999/xlink">
    <!-- Generator: Sketch 50.2 (55047) - http://www.bohemiancoding.com/sketch -->
    <title>MailChimp</title>
    <desc>Created with Sketch.</desc>
    <defs></defs>
    <g id="MailChimp" stroke="none" stroke-width="1" fill="none" fill-rule="evenodd">
        <g fill-rule="nonzero">
            <circle id="Oval" fill="#FFFFFF" cx="24" cy="24" r="24"></circle>
            <g id="mc_freddie_color_web" transform="translate(10.400000, 9.600000)">
                <path d="M26.7757908,20.5801525 C26.7536119,20.6535409 24.6581085,28.8024284 16.4246591,28.7999994 C9.30741296,28.7978018 5.93393772,22.5389691 5.93393772,22.5389691 C5.41524933,22.5682319 4.91473846,22.4848965 4.45309779,22.3133099 C2.3649683,21.5372089 1.36308915,19.1203076 2.08355956,17.0926135 L0.935917192,16.2053022 C-3.50968934,12.7790647 9.08390936,-2.89950653 13.5372327,0.648235254 C13.5597546,0.666163074 14.6002753,1.51351274 14.6002753,1.51351274 C16.1992692,0.531126118 17.7828293,5.7869128e-05 19.0700614,3.74554607e-08 C19.9841968,-0.00011562589 20.7487391,0.267645018 21.2635977,0.83167732 C22.4194714,2.09784396 22.0040748,4.51572835 20.4257164,6.96368522 C20.7652018,7.28974019 21.0465534,7.7329043 21.2473637,8.17282984 C21.7491321,8.56452376 22.0743841,9.16001648 22.2359812,9.98244072 C22.4159273,10.896933 22.453197,12.1995335 22.5661492,12.7592863 C22.9917778,12.9536586 22.8104598,12.8636725 23.2642692,13.0930329 C23.7374566,13.3322825 24.31365,13.6236385 24.9504352,14.2435362 C26.0823009,14.5304391 26.514503,15.7479114 25.8522236,16.578837 C25.8344462,16.6011021 25.7544766,16.696987 25.6716487,16.7923514 C25.6914268,16.8450939 25.9085282,17.2009322 26.0652094,17.9253896 C26.534224,18.0374674 26.9078351,18.329633 27.1039009,18.7533078 C27.4429862,19.5824983 26.7757908,20.5801525 26.7757908,20.5801525 Z M23.5118952,26.7343099 L23.5118952,27.0754011 L23.6410242,27.0754011 L23.6410242,26.7343099 L23.7730686,26.7343099 L23.7730686,26.6266852 L23.3815658,26.6266852 L23.3815658,26.7343099 L23.5118952,26.7343099 Z M23.8125675,26.6266852 L23.8125675,27.0754011 L23.9303214,27.0754011 L23.9303214,26.7514282 L24.0265251,27.0754011 L24.1269588,27.0754011 L24.2231625,26.7505606 L24.2231625,27.0754011 L24.3409163,27.0754011 L24.3409163,26.6266852 L24.1567974,26.6266852 L24.077285,26.8849036 L23.9965722,26.6266852 L23.8125675,26.6266852 Z" id="Fill-1" fill="#5B453E"></path>
                <path d="M7.96441907,17.4205217 C8.14152936,16.9686742 8.23079024,16.5978114 8.23079024,16.5978114 C8.43353264,17.2199587 8.53724688,17.874296 8.49654032,18.5357172 C8.66461728,18.3112386 8.84505864,17.888464 8.84505864,17.888464 C9.15772576,19.736091 7.81446532,21.4273595 6.04483041,21.4273595 C4.47364708,21.4273595 3.2,20.0814514 3.2,18.4211827 C3.2,16.7608573 4.47364708,15.4149492 6.04483041,15.4149492 C6.4520655,15.4149492 6.83937074,15.505398 7.18969567,15.6683306 C7.18969567,15.6682739 7.7943661,15.9743038 7.96441907,17.4205217 Z M23.444829,23.9357844 C25.6502105,22.1964579 26.0354833,20.1016268 26.0722377,20.0294264 C26.6149167,19.3761093 26.4673907,18.7324831 25.7504808,18.7324264 C25.5223885,18.7324264 25.3500772,18.792839 25.3500772,18.792839 C25.3500772,18.792839 25.3527307,17.8394992 24.9134272,17.0970367 C24.5747327,17.4793474 23.6346989,18.2367147 22.4012502,18.8245187 C21.2445287,19.3757692 19.701123,19.858503 17.7884222,19.9224293 L17.7883658,19.9224293 C17.2528005,19.9457782 16.9215021,19.8582763 16.7349632,20.4850142 C16.6753995,20.7064325 16.7011446,21.0353579 16.7459726,21.1304538 C16.8968298,21.6495712 17.2910229,21.8783569 17.8098764,21.9995221 C18.2033357,22.091501 18.621185,22.1001719 18.621185,22.1001719 C22.5002784,22.2093226 25.6152062,19.1724861 25.6524124,19.1472669 C25.6884329,19.1176274 25.718243,19.0825473 25.718243,19.0825473 C25.718243,19.0825473 25.6840291,19.1630785 25.6799642,19.1722027 C25.1196701,20.4369562 21.8756782,22.7304801 18.6467042,22.664797 L18.63609,22.6685941 C17.8872246,22.6657038 16.977396,22.4722249 16.5043867,21.8834574 C15.755973,20.9519365 16.144351,19.4030286 17.3371495,19.3667583 C17.3386174,19.3667017 17.6128927,19.3603544 17.734956,19.3572374 C20.6882432,19.2661085 23.3381789,18.1769822 25.2355229,15.9026134 C25.4964176,15.5772584 25.2049789,15.1303981 24.639547,15.1167967 C24.6345787,15.1166834 24.6297798,15.1145298 24.6263922,15.1109028 C23.9560042,14.3903725 23.3667469,14.135801 22.8423604,13.8683649 C21.7432266,13.30629 21.8466585,13.7918007 21.5910144,11.0655846 C21.5218528,10.3306028 21.3831907,9.3282416 20.7399027,8.94394736 C20.5713177,8.84318424 20.3870371,8.8 20.1956993,8.8 C20.0066198,8.8 19.9144796,8.83870712 19.8773299,8.84698128 C19.5250289,8.92535888 19.3246578,9.12586512 19.0736998,9.35816448 C17.8877327,10.455905 16.9397946,10.1579226 15.5249449,10.1453414 C14.1961378,10.1336669 13.0229304,11.064111 12.7985079,12.4929872 L12.7981127,12.4937806 C12.6890349,13.2417403 12.7596645,14.0017146 12.8764206,14.3433346 C12.8764206,14.3433346 12.5157638,14.1024777 12.3439042,13.8892769 C12.5518972,15.1946077 13.7383159,16.047751 13.7383159,16.047751 C13.5514383,16.0908218 13.2826394,16.0729701 13.2826394,16.0729701 C13.2837686,16.0739335 13.9598026,16.6106193 14.5465757,16.7978642 C14.3937426,16.8933569 13.6203177,17.6594517 13.2214385,18.7140646 C12.8481914,19.701011 13.0002341,20.8858566 13.0002341,20.8858566 L13.3244187,20.4007993 C13.3244187,20.4007993 13.1126994,21.4818215 13.5224751,22.5286704 C13.6584272,22.2172566 13.9554553,21.661359 13.9554553,21.661359 C13.9554553,21.661359 13.908369,22.822289 14.4651626,23.7727952 C14.4794466,23.5534171 14.5630051,22.9949126 14.5630051,22.9949126 C14.5630051,22.9949126 14.8825037,23.985996 15.6205855,24.6789837 C17.0022378,25.9097338 20.6605221,26.1320022 23.444829,23.9357844 Z" id="Fill-2" fill="#F2D8B4"></path>
                <path d="M2.30052583,16 C2.28918387,15.9970703 1.21984822,15.235956 1.06772922,14.9853283 C0.168009963,13.512794 1.733314,10.4881812 2.84721954,8.76894392 C5.59995237,4.51999236 10.181875,1.16675554 12.2629246,1.64562354 L14.4,2.71551736 C13.5702133,3.1889129 12.7676702,3.77037572 12.2869194,4.15709632 L11.8321582,4.52695731 C11.8321582,4.52695731 10.5041803,5.39409367 9.84372504,5.94073175 C7.19609057,8.13187208 4.58920733,11.5239136 3.62246225,14.798159 C3.62246225,14.7980485 2.8281263,15.1805127 2.30052583,16" id="Fill-3" fill="#207EAC"></path>
                <path d="M12.8,1.64949845 C10.6786989,1.12996642 6.00839723,4.76789004 3.20244002,9.37770976 C3.20162667,9.37902912 3.20081334,9.38040848 3.2,9.38172784 L3.21132863,9.38298728 L5.44713607,11.2 C7.90202185,7.17741998 10.9874187,5.10324998 11.0744458,5.04231906 L10.7199467,2.58025419 L11.384037,2.25203086 L12.7168072,2.69755821 L12.6148494,2.23793758 L12.8,1.64949845" id="Fill-4" fill="#4FB1D3"></path>
                <path d="M16,2.24701618 L13.5722023,3.873397 L13.4023383,4 L11.24944,2.32472422 L11.2,2.00790489 L11.948541,1.66657572 C11.9869797,1.67842526 13.3915335,2.11161957 13.450796,2.12989281 L13.4758762,1.24161372 L13.5446338,1.03998441 L14.2022182,0.8 C14.203135,0.800623664 15.9975116,2.2449581 16,2.24701618" id="Fill-5" fill="#FACD55"></path>
                <path d="M18.6698814,0.8 C17.2983714,0.8 15.7586042,1.5605829 14.5773906,2.30836754 C14.4117063,2.41116654 14.2473086,2.51874278 14.0862671,2.62838326 L13.4682234,2.08212714 L13.692697,2.90469614 C13.6078412,2.96615142 13.524999,3.02742978 13.443891,3.08835426 L12.166858,2.67721721 L13.0118366,3.42299658 C12.8189111,3.57716561 12.6465704,3.72148526 12.5035965,3.84646008 L10.4772366,2.08230408 L10.584523,2.87296586 L12.0572782,4.24114221 C12.0572782,4.24114221 10.753955,5.1662743 10.1057614,5.74956872 C7.50728185,8.08734672 4.9487969,11.7065442 4,15.2 L4.0539229,15.1680338 C4.0612506,15.1637284 4.06863423,15.1601897 4.07596193,15.1559433 C4.10236401,15.1409628 4.12865422,15.1266901 4.1550563,15.1126533 C4.1720051,15.1036886 4.18884202,15.0946059 4.20579082,15.0860541 C4.23292007,15.0723122 4.26010527,15.0595139 4.28729046,15.0468926 C4.30328834,15.0394023 4.31939809,15.0315582 4.3354519,15.0245398 C4.36487455,15.0115057 4.39424128,14.99971 4.42366394,14.9879734 C4.43725654,14.9825474 4.45084914,14.9765906 4.46444174,14.9715185 C4.50728918,14.9552994 4.54996882,14.9403779 4.59253658,14.9269899 C5.23759766,14.7241049 6.11518725,14.5936451 7.14251916,15.0536161 C7.65842258,13.6816062 8.27478816,12.2857101 9.24612752,10.9444278 C10.0337151,9.85686976 10.7907613,8.88597056 11.6994516,8.35198192 C13.4199501,6.64786573 18.0571516,4.84083258 19.5427722,6.40717568 C19.8940542,5.80129261 20.1989088,5.22772958 20.4500642,4.50872632 C21.0699538,2.77966235 21.081253,0.8 18.6698814,0.8" id="Fill-6" fill="#131B23"></path>
                <polyline id="Fill-7" fill="#131B23" points="13.6 2.4 13.0962481 1.6 12.8 1.99855801 12.9773028 2.3118558 13.6 2.4"></polyline>
                <path d="M24.797352,18.3192578 C24.797352,18.3192578 24.7999229,17.3744053 24.3743014,16.6385526 C24.0461555,17.0174598 23.1353988,17.7680845 21.9403658,18.3506555 C20.8197248,18.8969422 19.3243334,19.3754346 17.4712034,19.4387918 L17.4711488,19.4387918 C16.9522636,19.4619329 16.6312834,19.37521 16.4505543,19.9963682 C16.4364417,20.049896 16.4273068,20.109827 16.4221102,20.171162 L16.4218914,20.1774528 C16.4218367,20.1774528 16.4217274,20.1773966 16.4216726,20.1773966 C16.4200863,20.1972238 16.418883,20.2171072 16.4181171,20.2369906 C16.4163121,20.2937761 16.416859,20.3437653 16.419047,20.3874075 C16.4191018,20.3884747 16.4191565,20.3894858 16.4192111,20.390553 C16.4193753,20.3938106 16.4195394,20.3969561 16.4197034,20.4001014 C16.4213445,20.427399 16.4236418,20.453573 16.4264316,20.4781745 C16.426541,20.479354 16.426705,20.4807021 16.4268145,20.4818816 C16.4269786,20.4831734 16.4271426,20.4844653 16.4273068,20.4857571 C16.4395596,20.5844438 16.4585952,20.6302766 16.4608926,20.6355002 C16.461002,20.6357248 16.4611114,20.6359495 16.4611662,20.636118 L16.4635182,20.6443746 C16.611482,21.1529729 16.9919759,21.3780367 17.4919348,21.4974492 C17.8731398,21.5886094 18.2780299,21.5971468 18.2780299,21.5971468 C21.3444629,21.6854986 23.9180478,19.6980618 24.7812154,18.9497399 C24.7959845,18.7400098 24.8046818,18.5904353 24.797352,18.3192578 Z M15.9881743,1.49973682 C16.7207181,1.15295763 17.5058834,0.878971744 18.2589396,0.8 C17.5110251,0.972771752 16.5996668,1.37094436 15.5198868,2.04939364 C15.4935761,2.06500826 12.9648998,3.81743954 11.4200049,5.3909768 C10.5781157,6.24848862 7.19732129,10.4113554 7.2,10.4078191 C7.81789392,9.2071768 8.22491736,8.61775328 9.20306456,7.3546547 C9.75624664,6.6402581 10.3465702,5.9455202 10.9508422,5.30402925 C11.1539436,5.0883454 11.3586861,4.87878382 11.564085,4.67646788 C11.6424155,4.5992935 13.4090646,2.7417725 15.9881743,1.49973682 Z" id="Fill-8" fill="#FFFFFE"></path>
                <path d="M23.0017866,24.0532317 C22.627447,24.344671 22.2371398,24.5923585 21.8386817,24.8 C20.9172086,24.4530274 20.3517072,23.7137815 20.3517072,23.7137815 C20.3517072,23.7137815 21.1417566,23.5287073 22.1977798,22.9966605 C23.4821474,22.3500623 24.682435,21.415952 25.6,20.2405704 C25.5635989,20.311038 25.1826154,22.3556488 23.0017866,24.0532317 Z M20.4939061,14.1977263 C20.0482158,13.8836643 19.3099766,14.1336196 19.1472322,14.6533318 C19.4051666,14.6662195 19.6788449,14.8595353 19.6619284,15.1068909 C19.8440457,14.9322706 20.1029849,14.8336492 20.3548895,14.8382954 C20.2334036,14.6452562 20.2947607,14.3124988 20.4939061,14.1977263 Z M15.8174234,20.5399746 C15.9578358,20.0222537 16.3543399,19.6121146 16.9621046,19.5938616 C16.9635562,19.5938063 17.2347779,19.5876114 17.3554822,19.5845692 C20.2758902,19.4956274 22.8963238,18.4326399 24.7725446,16.2128558 C25.0305347,15.8953091 24.7423406,15.4591734 24.1832038,15.4458986 C24.1809706,15.4458432 24.1752202,15.4458986 24.1752202,15.4458986 C24.0806442,15.5449625 24.0637278,15.7258882 23.9072923,15.9962537 C23.3365987,16.9785408 22.5472751,17.4277302 21.4947134,17.9488806 C18.2676317,19.5405961 16.5941853,18.7999674 15.922607,19.7745109 C15.7274256,20.061304 15.7237409,20.3816715 15.8174234,20.5399746 C15.8174234,20.54003 15.8174234,20.5399746 15.8174234,20.5399746 Z M21.6564527,13.8643604 C21.3478249,13.6449374 21.3368264,13.2621778 21.168555,11.4919149 C21.1147349,10.9272893 21.018205,10.2010418 20.6694354,9.7344844 C20.5973031,9.67203704 20.4959159,9.60029728 20.349809,9.60029728 C20.1295041,9.59067296 19.8804468,9.81684408 19.7392529,9.971386 C19.3385056,10.5444191 18.9556239,10.9134613 18.2784069,11.2332757 C17.5930386,11.5405895 16.9416708,11.6520434 16.2654586,11.6309142 C15.7704705,11.6154268 15.3370069,11.5346158 14.9120853,11.5292506 C14.1247716,11.5170819 13.4423623,11.7699134 12.9450293,12.3920636 C12.6039642,12.8187962 12.4670693,13.2698662 12.4234102,13.8067252 C12.4250851,13.8714403 12.4279883,13.9324496 12.4317289,13.9899188 C12.4376469,14.07521 12.445463,14.1566294 12.45501,14.2330707 C12.4897362,14.5051508 12.5392574,14.6463072 12.5392574,14.6463072 C12.5392574,14.648409 12.5389224,14.650511 12.5383082,14.6524469 C12.5424397,14.665777 12.546571,14.6786094 12.55087,14.6908334 C12.55087,14.6908334 12.1942284,14.4558124 12.0242821,14.2477284 C12.1957916,15.3097755 13.0395494,16.0651726 13.3155167,16.2870293 C13.331819,16.2994192 13.3478981,16.3116985 13.3636422,16.324033 C13.3650378,16.325084 13.3662103,16.3263562 13.3672152,16.3276283 C13.3903288,16.3453282 13.4031139,16.3544547 13.4031139,16.3544547 C13.2183726,16.3964918 12.9525105,16.3790686 12.9525105,16.3790686 C12.953683,16.3800089 13.6221906,16.9038142 14.202431,17.0865653 C14.9722142,16.442069 15.8450034,16.1946581 16.561469,16.117885 C16.9957142,15.8508935 17.4626199,15.588659 17.9639169,15.3357722 C17.8121153,14.3992282 18.6504575,13.456102 19.7054199,13.3655562 C20.5014431,13.3080869 20.8886795,13.6615863 21.16755,14.0396444 C21.318905,13.9917994 21.489577,13.9394742 21.6802922,13.8838302 C21.6722526,13.8785203 21.664269,13.8719934 21.6564527,13.8643604 Z M22.0372687,20.1721494 C22.0292292,20.1723153 22.0209106,20.1740853 22.007623,20.1770168 C21.6896158,20.2500288 18.4102772,21.5085997 16.3372002,20.863495 C16.3278766,20.9758891 16.3308914,21.2120164 16.3773418,21.3146202 C16.3773977,21.3148415 16.3775094,21.3150627 16.3775652,21.3152287 C16.6911619,21.3775101 17.0880569,21.4173348 17.5487097,21.4173348 C20.2766718,21.4173348 22.2426112,20.1885218 22.0372687,20.1721494 Z M6.77554265,19.9198157 C6.77632426,19.9192626 6.77710589,19.9187647 6.7778875,19.9182116 C6.94398155,19.7413236 7.01365731,19.4941893 6.97418554,19.2577854 C6.91288428,18.9176715 6.52386131,18.8489186 6.26665282,18.5848034 C6.26257723,18.580655 6.25850165,18.576396 6.25453772,18.5720817 C6.25018298,18.5674354 6.24599574,18.5627339 6.24186433,18.5580878 C6.24158518,18.5577558 6.24136186,18.557424 6.24102688,18.5570921 C6.12545892,18.4252834 6.08520554,18.2753324 6.0946408,18.1415325 C6.11496289,17.7936195 6.4268289,17.6957725 6.5891265,17.7598238 C6.5891265,17.7598238 6.78162811,17.8049586 6.93069403,18.010996 C6.93069403,18.010996 6.9306382,18.0106642 6.93058237,18.0101663 C6.90791542,17.9421878 6.91260513,17.832338 6.79592058,17.6686696 C6.60470306,17.4002954 6.16548898,17.1273303 5.54292941,17.2580327 L5.54304106,17.2580327 C5.42797558,17.2821488 5.49240332,17.2684314 5.37890106,17.3001252 C5.36114715,17.3051033 5.3450123,17.3099708 5.33099898,17.3157786 C5.29532366,17.3323169 5.26232817,17.3437111 5.2306726,17.3603601 C5.2142586,17.3694313 5.12074346,17.4114684 5.00813449,17.4954874 C4.30830629,18.3904368 5.49363158,20.013459 6.77554265,19.9198157 Z" id="Fill-9" fill="#E2B986"></path>
                <path d="M17.043899,13.8029822 C17.102697,13.8904062 17.1184247,13.9564122 17.0946943,13.983877 C17.0473446,14.040163 16.8781194,13.9641544 16.6281997,13.8651454 C15.9886452,13.6225394 15.5174267,13.5855806 14.683305,13.9066252 C14.4723987,13.9884546 14.322847,14.051635 14.2511,14.0407846 C14.1341151,14.0230964 14.2473765,13.8053557 14.5030204,13.5941138 C15.0174205,13.1768293 15.723887,13.0473038 16.3275958,13.2757818 C16.5918538,13.3746778 16.888623,13.5720742 17.043899,13.8029822 Z M16.9171885,14.4682414 C16.7418501,14.3320474 16.4189606,14.2407241 16.0837337,14.2986489 C16.013376,14.3095557 15.948409,14.3317084 15.8844425,14.3491706 C15.86099,14.3550478 15.8385934,14.3634681 15.8167525,14.3727926 C15.678149,14.4321867 15.558163,14.4961582 15.4417339,14.6096343 C15.3081322,14.7409117 15.2701746,14.8628081 15.308799,14.8928159 C15.3467566,14.923615 15.439233,14.8780098 15.5821158,14.8192374 C16.0607813,14.6168679 16.399565,14.6114993 16.7222878,14.6343866 C16.8779527,14.6450109 16.9820998,14.6545614 17.0062749,14.6114427 C17.0233363,14.5821695 16.9923811,14.5265618 16.9171885,14.4682414 Z M6.60884648,16.9647152 L6.60895763,16.9648282 L6.60912436,16.9649412 C6.68770708,17.0284607 6.74795014,17.0962751 6.79285455,17.1610378 C6.9401277,17.3729578 6.89327816,17.4966061 6.95368794,17.5567348 C6.97547325,17.5784919 7.00659512,17.5853298 7.03766142,17.5724451 C7.12113472,17.5374077 7.1621489,17.4024006 7.16998494,17.308195 L7.17004052,17.3076299 C7.19099221,17.0810734 7.07322927,16.8264868 6.91717531,16.6461006 L6.91678629,16.6455919 C6.82130883,16.532794 6.6955987,16.4276817 6.54610257,16.3430267 C6.39632856,16.2582022 6.22254625,16.1938916 6.03148018,16.1637707 C5.70131047,16.1115536 5.3765315,16.1784073 5.28583348,16.2059286 L5.28633366,16.2058156 C5.23959527,16.2196046 5.18179751,16.2319806 5.13211366,16.2518164 C4.5936497,16.4653187 4.23930497,16.8573424 4.08163934,17.3764615 L4.08158377,17.3766311 L4.08152819,17.3769137 C4.02323026,17.5745361 4,17.7653206 4,17.9415815 C4,18.0935422 4.01722818,18.2347657 4.04412637,18.3606179 L4.04412637,18.360731 L4.04418194,18.360957 L4.04412637,18.360731 C4.08969768,18.5724814 4.182841,18.8109054 4.32828018,18.9674437 L4.32872477,18.9678958 C4.51050985,19.1676657 4.70980098,19.1294636 4.624716,18.9435956 C4.60443121,18.8921132 4.49461546,18.6816626 4.47983258,18.3007152 C4.47021814,18.0514408 4.50384087,17.7919942 4.59381643,17.5552655 C4.64361142,17.4271528 4.71185724,17.3025438 4.80066573,17.1905371 C4.98367345,16.9628502 5.20852898,16.8609591 5.23481584,16.8460965 C5.26632674,16.8290298 5.29917142,16.8173884 5.3346837,16.8004913 C5.3485774,16.7946141 5.3646385,16.7895845 5.38236686,16.784555 C5.49535037,16.7521735 5.43127266,16.7661886 5.54575669,16.7414928 L5.54564554,16.7414928 C5.97646116,16.6486436 6.34725603,16.7501956 6.60884648,16.9647152 Z M6.51692581,17.8106432 C6.45740523,17.762721 6.42978457,17.7218063 6.41333444,17.658852 C6.38904826,17.5441326 6.40171931,17.477505 6.49814154,17.4086169 C6.57238943,17.3569084 6.63213231,17.3319866 6.63235461,17.2994922 C6.6356891,17.2380072 6.38732545,17.1747138 6.21365429,17.3485446 C6.06949333,17.5047438 6.02397759,17.8303658 6.25400157,18.0841613 C6.51009011,18.3651389 6.90833893,18.4314274 6.97036037,18.7847404 C6.97852986,18.8348101 6.98458751,18.8905309 6.98030826,18.9455735 C6.98119745,19.008754 6.96041249,19.0996818 6.95941214,19.1053894 C6.8823855,19.4466654 6.5638865,19.7722875 6.0387049,19.6893279 C5.94194923,19.6749738 5.87926089,19.6628803 5.86058777,19.6900626 C5.82007375,19.7473657 6.04515158,20.0092423 6.45718294,19.9997482 C6.86032232,19.9910454 7.26023838,19.6841288 7.38844938,19.2228214 C7.38989432,19.2168311 7.42774074,19.0860624 7.43085292,18.9688565 C7.43807764,18.8820541 7.43190885,18.7927651 7.41601446,18.6993508 C7.31097814,18.1069921 6.7321669,17.9853218 6.51692581,17.8106432 Z M20.5666726,13.5816247 C20.4073397,13.5563638 20.2506188,13.7159537 20.2164959,13.9381023 C20.182373,14.160251 20.2839082,14.3608121 20.443241,14.3861294 C20.6025183,14.4113903 20.7592947,14.2518004 20.7934176,14.0296518 C20.827485,13.8075031 20.7259498,13.6069421 20.5666726,13.5816247 Z M18.8162896,14.2296477 C18.7287038,14.3921197 18.8353517,14.6228582 19.054483,14.7449241 C19.2735588,14.8670465 19.5222003,14.8343261 19.6097862,14.6717975 C19.6973164,14.5093256 19.590724,14.2785871 19.3715371,14.1565212 C19.1524058,14.0344553 18.9038198,14.0671758 18.8162896,14.2296477 Z M12.4031277,7.65724638 C15.41767,5.67039772 18.4288222,5.44197624 19.4604567,6.24857193 C19.4605123,6.24840239 19.4605679,6.24834588 19.4606234,6.24823286 C19.4587339,6.24297724 19.4421726,6.19641135 19.435726,6.18363964 C19.1738021,5.61767203 18.5625907,5.22287925 18.0181247,5.06447613 C18.1136578,5.16535004 18.2518166,5.35003123 18.3076693,5.45977752 C17.896805,5.17280962 17.3507829,4.92008798 16.7809747,4.8 C16.7809747,4.8 16.8488315,4.84956102 16.8604466,4.86058086 C16.9740414,4.9681797 17.1252049,5.13816777 17.1870596,5.28413825 C16.6424268,5.06176355 15.9539666,4.93715461 15.3645961,5.0525521 C15.3563154,5.05419094 15.290904,5.06990128 15.290904,5.06990128 C15.290904,5.06990128 15.3676527,5.0892849 15.3847142,5.094484 C15.5801706,5.1533695 15.8590449,5.2744747 15.9819762,5.44045042 C15.003638,5.26548929 13.927377,5.45915589 13.346954,5.78918593 C13.421591,5.78602126 13.4208685,5.78568218 13.4840014,5.78737754 C13.6975197,5.79314177 14.1276684,5.82264103 14.3082864,5.93950783 C13.6911842,6.06711191 12.7980976,6.34780698 12.3173758,6.76825622 C12.4022385,6.75819708 12.8839606,6.69575133 13.0810843,6.72796316 C10.4348916,8.26774544 9.23058632,10.5957005 9.23058632,10.5957005 C10.010745,9.56192664 11.0228727,8.56691992 12.4031277,7.65724638 Z" id="Fill-10" fill="#916D53"></path>
                <path d="M19.2002537,12.6625135 C19.1970354,12.442517 19.2227382,12.0789754 19.3758247,12.0113521 C19.3759986,12.0112932 19.3759117,12.0112932 19.3761291,12.0112343 C19.6377243,11.8884648 19.9840825,12.7950529 20,13.6 C19.7932898,13.4599273 19.5503954,13.4004847 19.3005862,13.429794 C19.2377859,13.1706595 19.2076906,12.9265329 19.2002537,12.6625135" id="Fill-11" fill="#5B453E"></path>
            </g>
        </g>
    </g>
</svg>