<?xml version="1.0" encoding="UTF-8"?>
<svg width="48px" height="48px" viewBox="0 0 48 48" version="1.1" xmlns="http://www.w3.org/2000/svg" xmlns:xlink="http://www.w3.org/1999/xlink">
    <!-- Generator: Sketch 50.2 (55047) - http://www.bohemiancoding.com/sketch -->
    <title>Notion</title>
    <desc>Created with Sketch.</desc>
    <defs></defs>
    <g id="Notion" stroke="none" stroke-width="1" fill="none" fill-rule="evenodd">
        <path d="M24,48 C37.2548348,48 48,37.2548348 48,24 C48,10.7451652 37.2548348,0 24,0 C10.7451652,0 0,10.7451652 0,24 C0,37.2548348 10.7451652,48 24,48 Z" id="Oval" fill="#FFFFFF" fill-rule="nonzero"></path>
        <path d="M14.966248,14.2596474 C15.900064,15.0176995 16.250368,14.9598545 18.003808,14.8429655 L34.53472,13.8510873 C34.88536,13.8510873 34.59376,13.5015713 34.47688,13.4434865 L31.731448,11.4602339 C31.205392,11.052151 30.504544,10.5847843 29.161288,10.7016853 L13.154392,11.8683143 C12.57064,11.9261593 12.454024,12.2178063 12.686536,12.4516084 L14.966248,14.2596474 Z M15.958744,18.1092637 L15.958744,35.4897346 C15.958744,36.4238396 16.42588,36.7732596 17.477272,36.7154626 L35.64472,35.665044 C36.69664,35.607247 36.81376,34.9647651 36.81376,34.2059696 L36.81376,16.9421479 C36.81376,16.1845755 36.52216,15.7760154 35.87824,15.83434 L16.89304,16.9421479 C16.192432,17.0009761 15.958744,17.3511876 15.958744,18.1092637 Z M33.893608,19.0415941 C34.01008,19.5670672 33.893608,20.0920367 33.366832,20.1510808 L32.491432,20.3253592 L32.491432,33.15675 C31.731448,33.5649264 31.0306,33.7982727 30.446608,33.7982727 C29.511592,33.7982727 29.277424,33.5064099 28.577056,32.6320203 L22.851304,23.649982 L22.851304,32.3403733 L24.663136,32.7489334 C24.663136,32.7489334 24.663136,33.7982727 23.201368,33.7982727 L19.171552,34.0318589 C19.05448,33.7982727 19.171552,33.2155064 19.580296,33.0987132 L20.631904,32.8074978 L20.631904,21.3172373 L19.171792,21.2003243 C19.05472,20.6748752 19.346344,19.9172787 20.164768,19.8584745 L24.487864,19.5672831 L30.446608,28.6662344 L30.446608,20.6170062 L28.92736,20.4427518 C28.810744,19.8003897 29.277424,19.3339606 29.861656,19.2761157 L33.893608,19.0415941 Z M11.810416,10.2936073 L28.4602,9.06841534 C30.504784,8.89318298 31.03084,9.01056241 32.31592,9.94338142 L37.63072,13.6760895 C38.50768,14.317972 38.8,14.49273 38.8,15.1924575 L38.8,35.665044 C38.8,36.9480896 38.33224,37.7068851 36.69688,37.8229589 L17.361616,38.9896908 C16.134016,39.0482074 15.54976,38.8733775 14.906872,38.0563052 L10.992964,32.982016 C10.2916384,32.0480068 10,31.3492146 10,30.5316388 L10,12.3342397 C10,11.2849962 10.467868,10.4097913 11.810416,10.2936073 Z" id="Shape" fill="#000000" fill-rule="nonzero"></path>
    </g>
</svg>