<?xml version="1.0" encoding="UTF-8"?>
<svg width="48px" height="48px" viewBox="0 0 48 48" version="1.1" xmlns="http://www.w3.org/2000/svg" xmlns:xlink="http://www.w3.org/1999/xlink">
    <!-- Generator: Sketch 50.2 (55047) - http://www.bohemiancoding.com/sketch -->
    <title>Opera</title>
    <desc>Created with Sketch.</desc>
    <defs>
        <linearGradient x1="49.993807%" y1="1.63136915%" x2="49.993807%" y2="98.543393%" id="linearGradient-1">
            <stop stop-color="#FF1B2D" offset="0%"></stop>
            <stop stop-color="#FF1B2D" offset="30%"></stop>
            <stop stop-color="#FF1B2D" offset="61%"></stop>
            <stop stop-color="#A70014" offset="100%"></stop>
        </linearGradient>
        <linearGradient x1="50.0050157%" y1="0.848469563%" x2="50.0050157%" y2="99.6017781%" id="linearGradient-2">
            <stop stop-color="#9C0000" offset="0%"></stop>
            <stop stop-color="#FF4B4B" offset="70%"></stop>
            <stop stop-color="#FF4B4B" offset="100%"></stop>
        </linearGradient>
    </defs>
    <g id="Opera" stroke="none" stroke-width="1" fill="none" fill-rule="evenodd">
        <g fill-rule="nonzero">
            <path d="M24,48 C37.2548348,48 48,37.2548348 48,24 C48,10.7451652 37.2548348,0 24,0 C10.7451652,0 0,10.7451652 0,24 C0,37.2548348 10.7451652,48 24,48 Z" id="Oval" fill="#FFFFFF"></path>
            <path d="M23.9714851,12.1782178 C17.3774258,12.1782178 12.0332674,17.5247525 12.0332674,24.1188119 C12.0332674,30.5227722 17.0756436,35.7481188 23.4059406,36.0451485 C23.5960396,36.0546534 23.7837624,36.0594059 23.9738614,36.0594059 C27.0320792,36.0594059 29.8194059,34.909307 31.9318812,33.020198 C30.5322772,33.949307 28.8950495,34.4815842 27.1461386,34.4815842 C24.3017822,34.4815842 21.7568317,33.070099 20.0435643,30.8459406 C18.7223762,29.289505 17.8669307,26.9845545 17.809901,24.3992079 C17.809901,24.3920792 17.809901,23.8431683 17.809901,23.8360396 C17.8669307,21.2530693 18.7223762,18.9481188 20.0411881,17.389307 C21.7544554,15.1651485 24.3017822,13.7560396 27.1461386,13.7560396 C28.8950495,13.7560396 30.5322772,14.290693 31.9318812,15.219802 C29.8289109,13.3378218 27.0582178,12.190099 24.0166337,12.1782178 C24.0023762,12.1782178 23.9857426,12.1782178 23.9714851,12.1782178 Z" id="Shape" fill="url(#linearGradient-1)"></path>
            <path d="M20.0411881,17.389307 C21.1390099,16.0966337 22.5528713,15.3172278 24.099802,15.3172278 C27.5762376,15.3172278 30.3944554,19.2594059 30.3944554,24.1188119 C30.3944554,28.9805941 27.5762376,32.920396 24.099802,32.920396 C22.5528713,32.920396 21.1390099,32.1409901 20.0435643,30.8483168 C21.7568317,33.0724753 24.3017822,34.4839604 27.1461386,34.4839604 C28.8950495,34.4839604 30.5322772,33.949307 31.9318812,33.0225742 C34.3746534,30.8340594 35.9120792,27.6570297 35.9120792,24.1188119 C35.9120792,20.5829703 34.3746534,17.4035643 31.929505,15.2174258 C30.529901,14.2883168 28.8950495,13.7560396 27.1461386,13.7560396 C24.3017822,13.7560396 21.7568317,15.1675247 20.0435643,17.3916832" id="Shape" fill="url(#linearGradient-2)"></path>
        </g>
    </g>
</svg>