<?xml version="1.0" encoding="UTF-8"?>
<svg width="48px" height="48px" viewBox="0 0 48 48" version="1.1" xmlns="http://www.w3.org/2000/svg" xmlns:xlink="http://www.w3.org/1999/xlink">
    <!-- Generator: Sketch 50.2 (55047) - http://www.bohemiancoding.com/sketch -->
    <title>Picassa</title>
    <desc>Created with Sketch.</desc>
    <defs></defs>
    <g id="Picassa" stroke="none" stroke-width="1" fill="none" fill-rule="evenodd">
        <g fill-rule="nonzero">
            <circle id="Oval" fill="#FFFFFF" cx="24" cy="24" r="24"></circle>
            <g id="Group" transform="translate(9.600000, 9.600000)">
                <path d="M14.4780047,8.79464672 L17.1460154,10.7499087 L19.8140262,12.7140697 L18.7798036,15.8684626 L17.7369601,19.0058921 L14.4260016,18.9969931 L11.115043,18.9797514 L10.0980621,15.8250804 L9.09887896,12.6704093 L11.7841314,10.7237682 L14.4780047,8.79464672 Z M14.399861,0 C6.44727557,0 0,6.44727557 0,14.399861 C0,22.3527244 6.44727557,28.8 14.399861,28.8 C22.3527244,28.8 28.8,22.3527244 28.8,14.399861 C28.8,6.44727557 22.3527244,0 14.399861,0 Z" id="Fill-13" fill="#E9EAE7"></path>
                <path d="M12.9238065,20 C12.1972569,20 11.8158254,20.4770666 12.0880352,21.2250666 L13.9619758,26.3834666 C14.1536768,26.3917334 14.3484743,26.4 14.5424273,26.4 C19.3619762,26.4 23.5399884,23.8 25.6,20 L12.9238065,20" id="Fill-14" fill="#09A15D"></path>
                <path d="M19.265947,17.2317736 C19.0467602,17.8984954 19.3807086,18.4046041 20.167078,18.3999684 L25.588971,18.3713362 C25.6547006,18.1981794 25.7212253,18.022023 25.7797988,17.8439578 C27.2343302,13.4215061 26.0469576,8.73591048 23.091248,5.6 L19.265947,17.2317736" id="Fill-16" fill="#FACF54"></path>
                <path d="M8.27522168,14.2794074 C8.06185824,13.5846863 7.48791866,13.374122 6.84376165,13.8763674 L2.4,17.3361234 C2.44825755,17.5220983 2.49759955,17.7111823 2.55453262,17.896592 C3.9708105,22.5049835 7.71565094,25.6589266 12,26.4 L8.27522168,14.2794074" id="Fill-17" fill="#5777AD"></path>
                <path d="M12.3888612,8.62769368 C12.9514339,8.20525656 12.9549755,7.59249062 12.2858818,7.13783138 L7.67496511,4 C7.5213133,4.10458528 7.36520959,4.21108203 7.21509939,4.32385937 C3.48195957,7.12690863 1.83837549,11.6874274 2.57012866,16 L12.3888612,8.62769368" id="Fill-18" fill="#8D458A"></path>
                <path d="M18.6162963,10.9816621 C19.1789899,11.3983851 19.7573064,11.2191612 19.990303,10.4390426 L21.6,5.06095186 C21.456431,4.94412648 21.3104377,4.82537692 21.1604041,4.71404921 C17.4281482,1.9495484 12.6499663,1.72221996 8.8,3.71045048 L18.6162963,10.9816621" id="Fill-19" fill="#D0463F"></path>
            </g>
        </g>
    </g>
</svg>