<?xml version="1.0" encoding="UTF-8"?>
<svg width="48px" height="48px" viewBox="0 0 48 48" version="1.1" xmlns="http://www.w3.org/2000/svg" xmlns:xlink="http://www.w3.org/1999/xlink">
    <!-- Generator: Sketch 50.2 (55047) - http://www.bohemiancoding.com/sketch -->
    <title>Pocket</title>
    <desc>Created with Sketch.</desc>
    <defs></defs>
    <g id="Pocket" stroke="none" stroke-width="1" fill="none" fill-rule="evenodd">
        <g fill-rule="nonzero">
            <path d="M0,24 C0,10.7451654 10.7451654,0 24,0 C37.2548346,0 48,10.7451654 48,24 C48,37.2548346 37.2548346,48 24,48 C10.7451654,48 0,37.2548346 0,24 Z" id="back" fill="#E84352"></path>
            <path d="M34.6203586,12 L13.379751,12 C11.2921926,12 9.6,13.7058766 9.6,15.8088302 L9.6,26.3605423 C9.6,26.5563432 9.6147112,26.7487241 9.6435624,26.9367706 C9.6140264,27.2177578 9.6,27.5019379 9.6,27.7888541 C9.6,33.8371388 16.0467305,38.7420903 23.9998864,38.7420903 C31.9529255,38.7420903 38.4,33.8371388 38.4,27.7888541 C38.4,27.5018235 38.3846,27.2177578 38.356328,26.9367706 C38.3846,26.7488385 38.4,26.5563432 38.4,26.3605423 L38.4,15.808943 C38.4,13.7053062 36.7059834,12 34.6203586,12 Z M32.8305578,22.6077049 L25.3929598,30.0445022 C25.0151556,30.4223063 24.518753,30.6084143 24.0233776,30.6041951 C23.512607,30.621756 22.9965908,30.4354199 22.6056714,30.0445022 L15.169787,22.6077049 C14.4226178,21.8608782 14.4244418,20.6494649 15.169787,19.9040062 C15.9160433,19.1569499 17.1252902,19.1558107 17.8734856,19.9040062 L24.0000008,26.0308622 L30.1268528,19.9040062 C30.871629,19.1569499 32.0853255,19.1588891 32.8305578,19.9040062 C33.5778382,20.6506049 33.5778382,21.8597374 32.8305578,22.6077049 Z" id="path9-6" fill="#FFFFFF"></path>
        </g>
    </g>
</svg>