<?xml version="1.0" encoding="UTF-8"?>
<svg width="48px" height="48px" viewBox="0 0 48 48" version="1.1" xmlns="http://www.w3.org/2000/svg" xmlns:xlink="http://www.w3.org/1999/xlink">
    <!-- Generator: Sketch 50.2 (55047) - http://www.bohemiancoding.com/sketch -->
    <title>Slack</title>
    <desc>Created with Sketch.</desc>
    <defs></defs>
    <g id="Slack" stroke="none" stroke-width="1" fill="none" fill-rule="evenodd">
        <g fill-rule="nonzero">
            <path d="M0,24 C0,10.7451654 10.7451654,0 24,0 C37.2548346,0 48,10.7451654 48,24 C48,37.2548346 37.2548346,48 24,48 C10.7451654,48 0,37.2548346 0,24 Z" id="back" fill="#FFFFFF"></path>
            <g id="Group" transform="translate(11.200000, 11.200000)">
                <path d="M16.5963541,1.58384262 C16.207318,0.386308197 14.9212328,-0.269009836 13.7239082,0.120236066 C12.5263738,0.509272131 11.8710557,1.79535738 12.2603016,2.99268197 L18.1550164,21.1292328 C18.5597902,22.2478689 19.7682361,22.8765377 20.9282098,22.5426885 C22.1381246,22.1943607 22.8756984,20.9093246 22.4896,19.721023 C22.4749115,19.6756984 16.5963541,1.58384262 16.5963541,1.58384262" id="Shape" fill="#DFA22F"></path>
                <path d="M7.46260984,4.5515541 C7.07336393,3.35422951 5.78727869,2.69891148 4.5899541,3.08794754 C3.39241967,3.47698361 2.73710164,4.76306885 3.12634754,5.96060328 L9.02106232,24.0971541 C9.42583608,25.2157902 10.634282,25.844459 11.7942557,25.5104 C13.0041705,25.162282 13.7417443,23.8772459 13.3556459,22.6887344 C13.3409574,22.6436197 7.46260984,4.5515541 7.46260984,4.5515541" id="Shape" fill="#3CB187"></path>
                <path d="M24.0161574,16.6045377 C25.2136918,16.2155016 25.8688,14.9294164 25.4797639,13.731882 C25.0907279,12.5345574 23.8046426,11.8792393 22.607318,12.2682754 L4.47076721,18.1632 C3.35213115,18.5677639 2.7234623,19.7762098 3.05731148,20.9361836 C3.40563934,22.1460984 4.69067541,22.8836721 5.87897705,22.4975738 C5.92430164,22.4828852 24.0161574,16.6045377 24.0161574,16.6045377" id="Shape" fill="#CE1E5B"></path>
                <path d="M8.25075408,21.7270557 C9.43129184,21.3434754 10.9528131,20.8491016 12.5855475,20.3186361 C12.2019672,19.1380984 11.7075934,17.6163672 11.176918,15.983423 L6.84191475,17.3924721 L8.25075408,21.7270557" id="Shape" fill="#392538"></path>
                <path d="M17.3847082,18.7591344 C19.0235279,18.2267803 20.5467279,17.731777 21.7195016,17.3507148 C21.3359213,16.170177 20.8413377,14.6480262 20.3106623,13.0146623 L15.975659,14.4237115 L17.3847082,18.7591344" id="Shape" fill="#BB242A"></path>
                <path d="M21.0484459,7.47058361 C22.2457705,7.08154754 22.9010885,5.7954623 22.5120525,4.59792787 C22.1230164,3.40060328 20.8369311,2.74528525 19.6393967,3.13432131 L1.5028459,9.02924592 C0.384209836,9.43380984 -0.244459016,10.6422557 0.0896,11.8022295 C0.437718033,13.0121443 1.7227541,13.749718 2.91126557,13.3636197 C2.95638033,13.3489311 21.0484459,7.47058361 21.0484459,7.47058361" id="Shape" fill="#72C5CD"></path>
                <path d="M5.28220328,12.5933115 C6.46274098,12.2097311 7.98468197,11.7151475 9.61762624,11.184682 C9.08527216,9.54565248 8.59026888,8.02245248 8.20920656,6.84946885 L3.8731541,8.25872784 L5.28220328,12.5933115" id="Shape" fill="#248C73"></path>
                <path d="M14.4159475,9.6256 C16.0551869,9.09303608 17.5785967,8.5980328 18.7515803,8.21676064 C18.2190164,6.57752131 17.7240131,5.05390164 17.342741,3.8807082 L13.0068984,5.28996721 L14.4159475,9.6256" id="Shape" fill="#62803A"></path>
            </g>
        </g>
    </g>
</svg>