<?xml version="1.0" encoding="UTF-8"?>
<svg width="48px" height="48px" viewBox="0 0 48 48" version="1.1" xmlns="http://www.w3.org/2000/svg" xmlns:xlink="http://www.w3.org/1999/xlink">
    <!-- Generator: Sketch 50.2 (55047) - http://www.bohemiancoding.com/sketch -->
    <title>Steam</title>
    <desc>Created with Sketch.</desc>
    <defs></defs>
    <g id="Steam" stroke="none" stroke-width="1" fill="none" fill-rule="evenodd">
        <g fill-rule="nonzero" id="Shape">
            <path d="M23.9742213,48 C37.2430505,48 48,37.2545922 48,24 C48,10.7452017 37.2430505,0 23.9742213,0 C11.2413834,0 0.822857144,9.89438624 0,22.4054936 C1.55478754,25.0135622 2.16149517,26.6266094 0.957133408,30.9033476 C3.92517294,40.7938198 13.107145,48 23.9742213,48 Z" fill="#FFFFFF"></path>
            <path d="M22.641599,17.9578129 C22.641599,17.9983104 22.641599,18.0388079 22.6436508,18.076826 L16.7943886,26.6333746 C15.846869,26.5899844 14.8960663,26.7573466 13.9945069,27.1313289 C13.5970738,27.2945587 13.2246727,27.4949802 12.8752518,27.7263946 L0.0312094084,22.4017964 C0.0313099464,22.4017964 -0.265993347,27.3255517 0.972573744,30.9951234 L10.052595,34.7680051 C10.5085042,36.819742 11.9061882,38.6194024 13.9682438,39.4851403 C17.3420132,40.9046199 21.2320146,39.2867851 22.6354436,35.8878857 C23.0006634,34.9994195 23.1709626,34.0675632 23.146341,33.1377731 L31.5156198,27.1147993 C31.5833291,27.1168654 31.6530902,27.1189317 31.7207995,27.1189317 C36.7292353,27.1189317 40.8,23.0071931 40.8,17.9578129 C40.8,12.9080194 36.7292353,8.8 31.7207995,8.8 C26.7144154,8.8 22.641599,12.9080194 22.641599,17.9578129 Z M21.23817,35.2969524 C20.1519488,37.923093 17.1550946,39.1690117 14.5501334,38.0759918 C13.3483961,37.5718389 12.4410915,36.6482474 11.9176782,35.5469626 L14.8732914,36.7804842 C16.7943886,37.5863023 18.9984287,36.6689094 19.796988,34.7349459 C20.5980094,32.7989162 19.6892686,30.5756847 17.7691973,29.7698666 L14.7138668,28.495021 C15.8928292,28.0445894 17.2330628,28.0280598 18.4852743,28.5528746 C19.7477449,29.0818219 20.7272726,30.0777305 21.2463772,31.3505098 C21.7654818,32.6232892 21.76343,34.0283054 21.23817,35.2969524 Z M31.7207995,24.0609553 C28.3866298,24.0609553 25.6721027,21.3232399 25.6721027,17.9578129 C25.6721027,14.5950719 28.3866298,11.8565301 31.7207995,11.8565301 C35.057021,11.8565301 37.771548,14.5950719 37.771548,17.9578129 C37.771548,21.3232399 35.057021,24.0609553 31.7207995,24.0609553 Z M27.1883805,17.948515 C27.1883805,15.4167998 29.2237629,13.3634099 31.7310585,13.3634099 C34.2404058,13.3634099 36.2757882,15.4167998 36.2757882,17.948515 C36.2757882,20.4804368 34.2404058,22.531967 31.7310585,22.531967 C29.2237629,22.531967 27.1883805,20.4804368 27.1883805,17.948515 Z" fill="#000000"></path>
        </g>
    </g>
</svg>