<?xml version="1.0" encoding="UTF-8"?>
<svg width="48px" height="48px" viewBox="0 0 48 48" version="1.1" xmlns="http://www.w3.org/2000/svg" xmlns:xlink="http://www.w3.org/1999/xlink">
    <!-- Generator: Sketch 50.2 (55047) - http://www.bohemiancoding.com/sketch -->
    <title>StumbleUpon</title>
    <desc>Created with Sketch.</desc>
    <defs></defs>
    <g id="StumbleUpon" stroke="none" stroke-width="1" fill="none" fill-rule="evenodd">
        <g fill-rule="nonzero">
            <path d="M48,24 C48,37.254834 37.254834,48 24,48 C10.745166,48 1.623249e-15,37.254834 0,24 C-1.623249e-15,10.745166 10.745166,2.4348735e-15 24,0 C37.254834,-2.4348735e-15 48,10.745166 48,24 Z" id="path2987" fill="#EB4823"></path>
            <path d="M23.84,13.28 C20.48208,13.28 17.76,16.00208 17.76,19.36 L17.76,28 C17.76,28.79536 17.11536,29.44 16.32,29.44 C15.524704,29.44 14.88,28.79536 14.88,28 L14.88,24.16 L10.24,24.16 L10.24,28.16 C10.24,31.51792 12.962112,34.24 16.32,34.24 C19.67792,34.24 22.4,31.51792 22.4,28.16 L22.4,19.36 C22.4,18.56464 23.04464,17.92 23.84,17.92 C24.63536,17.92 25.28,18.56464 25.28,19.36 L25.28,21.12 L27.2,22 L29.92,21.12 L29.92,19.36 C29.92,16.00208 27.19792,13.28 23.84,13.28 Z M25.28,24.24 L25.28,28.16 C25.28,31.51792 28.00208,34.24 31.36,34.24 C34.71792,34.24 37.44,31.51792 37.44,28.16 L37.44,24.32 L32.8,24.32 L32.8,28.16 C32.8,28.95536 32.15536,29.6 31.36,29.6 C30.56464,29.6 29.92,28.95536 29.92,28.16 L29.92,24.24 L27.2,25.12 L25.28,24.24 Z" id="1" fill="#FFFFFF"></path>
        </g>
    </g>
</svg>