<?xml version="1.0" encoding="UTF-8"?>
<svg width="48px" height="48px" viewBox="0 0 48 48" version="1.1" xmlns="http://www.w3.org/2000/svg" xmlns:xlink="http://www.w3.org/1999/xlink">
    <!-- Generator: Sketch 50.2 (55047) - http://www.bohemiancoding.com/sketch -->
    <title>Treehouse</title>
    <desc>Created with Sketch.</desc>
    <defs></defs>
    <g id="Treehouse" stroke="none" stroke-width="1" fill="none" fill-rule="evenodd">
        <g fill-rule="nonzero">
            <path d="M0,24 C0,10.7451654 10.7451654,0 24,0 C37.2548346,0 48,10.7451654 48,24 C48,37.2548346 37.2548346,48 24,48 C10.7451654,48 0,37.2548346 0,24 Z" id="back" fill="#5FCF80"></path>
            <path d="M36.0112325,16.5809672 C35.6617785,16.4062402 34.875507,16.0567862 34.0018721,15.5326053 C33.0408736,15.0084243 31.5556942,15.8820593 30.5946958,17.3672387 L28.9347894,20.1628705 C28.3232449,21.3859594 28.4106085,22.6964119 29.1968799,23.8321373 L29.2842434,23.9195007 C30.0705148,25.0552262 31.1188768,26.0162246 31.3809673,26.3656786 C31.5556942,26.5404056 31.7304212,26.8898596 31.8177847,27.1519501 C32.0798752,28.2003121 31.5556942,29.1613104 30.5073323,29.4234009 C29.5463338,29.6854914 28.4979719,29.073947 28.148518,28.1129485 C28.0611544,27.850858 28.0611544,27.5887675 28.0611544,27.326677 C28.148518,26.8898596 27.973791,26.1909517 27.3622466,25.6667706 C26.750702,24.9678627 25.5276131,26.2783151 25.1781591,27.5014041 L25.1781591,27.5887675 C24.8287051,28.8992199 24.5666146,29.9475818 24.6539782,30.0349454 C24.6539782,30.1223089 24.7413417,30.2096723 24.7413417,30.2096723 C25.2655226,31.2580343 24.9160686,32.4811233 23.8677066,33.0053042 C22.8193447,33.5294852 21.5088923,33.1800313 20.9847114,32.1316693 C20.4605304,31.0833074 20.8099844,29.8602184 21.8583464,29.3360374 C21.9457098,29.3360374 21.9457098,29.248674 22.0330733,29.248674 C22.1204369,29.248674 22.2951638,28.6371294 22.5572542,28.025585 C22.7319813,27.4140406 22.9067083,26.8898596 22.9067083,26.8898596 C22.9067083,26.8024961 22.9067083,26.7151326 22.9940718,26.7151326 L24.0424337,23.0458658 L22.9940718,25.2299532 C22.8193447,24.7931358 22.6446178,24.7931358 22.1204369,25.1425897 C21.8583464,25.3173167 21.3341654,25.7541342 21.1594384,25.9288611 C20.7226209,26.2783151 20.373167,26.8898596 20.1984399,27.2393136 C20.1110765,27.5014041 19.9363494,27.6761311 19.7616225,27.850858 C18.975351,28.549766 17.7522621,28.375039 17.1407176,27.5887675 C16.5291732,26.8024961 16.7039002,25.7541342 17.4901716,25.1425897 C17.7522621,24.9678627 18.0143526,24.7931358 18.276443,24.7931358 C18.7132606,24.7057722 20.373167,23.6574102 21.3341654,23.0458658 C21.5088923,22.9585024 21.6836194,22.7837754 21.7709828,22.6964119 L24.3045242,20.8617785 L22.0330733,22.0848674 L21.5088923,22.0848674 C20.8099844,22.172231 19.9363494,22.2595944 19.7616225,22.5216849 C19.674259,22.6090483 19.5868954,22.7837754 19.4121685,22.8711388 C18.7132606,23.2205929 17.6648986,23.0458658 17.0533542,22.3469578 C16.5291732,21.5606864 16.7039002,20.599688 17.4028081,20.075507 C17.8396256,19.8134166 18.1890796,19.726053 18.5385335,19.726053 C19.150078,19.726053 20.7226209,20.075507 22.0330733,19.8134166 L22.3825274,19.726053 C23.6929798,19.4639626 25.2655226,18.4156006 25.8770671,17.1925117 C25.8770671,17.1925117 26.4886115,16.0567862 27.274883,14.8336974 C28.0611544,13.523245 27.973791,12.125429 27.1875195,11.6012481 L25.7023401,10.7276131 C24.9160686,10.2907956 23.6929798,10.2907956 22.9067083,10.7276131 L12.5978159,16.4062402 C11.8115445,16.8430578 11.2,17.9787831 11.2,18.8524181 L11.2,30.0349454 C11.2,30.9085803 11.8115445,31.8695788 12.5978159,32.3063962 L22.9940718,38.0723869 C23.7803432,38.5092044 25.0034322,38.5092044 25.7897036,38.0723869 L36.0112325,32.2190328 C36.7975039,31.7822153 37.4090484,30.8212169 37.4090484,29.9475818 L37.4090484,18.8524181 C37.4090484,17.9787831 36.7975039,17.0177847 36.0112325,16.5809672 Z" id="Shape" fill="#FFFFFF"></path>
        </g>
    </g>
</svg>