<?xml version="1.0" encoding="UTF-8"?>
<svg width="48px" height="48px" viewBox="0 0 48 48" version="1.1" xmlns="http://www.w3.org/2000/svg" xmlns:xlink="http://www.w3.org/1999/xlink">
    <!-- Generator: Sketch 50.2 (55047) - http://www.bohemiancoding.com/sketch -->
    <title>Trello</title>
    <desc>Created with Sketch.</desc>
    <defs>
        <linearGradient x1="50%" y1="0%" x2="50%" y2="100%" id="linearGradient-1">
            <stop stop-color="#0091E6" offset="0%"></stop>
            <stop stop-color="#0079BF" offset="100%"></stop>
        </linearGradient>
    </defs>
    <g id="Trello" stroke="none" stroke-width="1" fill="none" fill-rule="evenodd">
        <g fill-rule="nonzero">
            <circle id="Oval" fill="url(#linearGradient-1)" cx="24" cy="24" r="24"></circle>
            <path d="M9.6,14.4042582 C9.6,11.7509396 11.7411519,9.6 14.4042582,9.6 L33.5957418,9.6 C36.2490604,9.6 38.4,11.7411519 38.4,14.4042582 L38.4,33.5957418 C38.4,36.2490604 36.2588481,38.4 33.5957418,38.4 L14.4042582,38.4 C11.7509396,38.4 9.6,36.2588481 9.6,33.5957418 L9.6,14.4042582 Z M25.872,15.0728509 L25.872,24.2151491 C25.872,25.1700578 26.6454609,25.944 27.5995732,25.944 L32.9284268,25.944 C33.8822555,25.944 34.656,25.1699671 34.656,24.2151491 L34.656,15.0728509 C34.656,14.1179422 33.8825391,13.344 32.9284268,13.344 L27.5995732,13.344 C26.6457445,13.344 25.872,14.1180329 25.872,15.0728509 Z M13.344,15.0707967 L13.344,31.4172033 C13.344,32.3708577 14.1174609,33.144 15.0715732,33.144 L20.4004268,33.144 C21.3542555,33.144 22.128,32.3708868 22.128,31.4172033 L22.128,15.0707967 C22.128,14.1171423 21.3545391,13.344 20.4004268,13.344 L15.0715732,13.344 C14.1177445,13.344 13.344,14.1171132 13.344,15.0707967 Z" id="Combined-Shape" fill="#FFFFFF"></path>
        </g>
    </g>
</svg>