<?xml version="1.0" encoding="UTF-8"?>
<svg width="48px" height="48px" viewBox="0 0 48 48" version="1.1" xmlns="http://www.w3.org/2000/svg" xmlns:xlink="http://www.w3.org/1999/xlink">
    <!-- Generator: Sketch 50.2 (55047) - http://www.bohemiancoding.com/sketch -->
    <title>Tripadvisor</title>
    <desc>Created with Sketch.</desc>
    <defs></defs>
    <g id="Tripadvisor" stroke="none" stroke-width="1" fill="none" fill-rule="evenodd">
        <g>
            <path d="M0,24 C0,10.7451654 10.7451654,0 24,0 C37.2548346,0 48,10.7451654 48,24 C48,37.2548346 37.2548346,48 24,48 C10.7451654,48 0,37.2548346 0,24 Z" id="back" fill="#FFFFFF" fill-rule="nonzero"></path>
            <g id="Group" transform="translate(9.600000, 15.200000)">
                <path d="M15.2842666,12.3700706 C16.5056,15.7275294 20.1856,17.4452235 23.4954666,16.2091765 C26.8032,14.9644706 28.5002666,11.2336 27.2746666,7.87505882 C26.0522666,4.51218823 22.3776,2.79665882 19.0634666,4.0370353 C15.7514666,5.27957647 14.0608,9.00936472 15.2842666,12.3700706 Z" id="Shape" fill="#FFFFFF" fill-rule="nonzero"></path>
                <ellipse id="Oval" fill="#FFFFFF" fill-rule="nonzero" cx="7.11146666" cy="10.0971294" rx="6.39146666" ry="6.48545882"></ellipse>
                <path d="M8.20053336,10.0289412 C8.20053336,10.6902588 7.67146666,11.2314353 7.01973334,11.2314353 C6.36586666,11.2314353 5.83786666,10.6902588 5.83786666,10.0289412 C5.83786666,9.36870592 6.36586666,8.83402352 7.01973334,8.83402352 C7.67146666,8.8329412 8.20053336,9.36870592 8.20053336,10.0289412 Z" id="Shape" fill="#BE3538" fill-rule="nonzero"></path>
                <path d="M22.4448,10.0289412 C22.4448,10.6902588 21.9178666,11.2314353 21.2661334,11.2314353 C20.6101334,11.2314353 20.0842666,10.6902588 20.0842666,10.0289412 C20.0842666,9.36870592 20.6101334,8.83402352 21.2661334,8.83402352 C21.9178666,8.8329412 22.4448,9.36870592 22.4448,10.0289412 Z" id="Shape" fill="#589442" fill-rule="nonzero"></path>
                <path d="M3.50826666,10.0289412 C3.50826666,11.9955765 5.0848,13.592047 7.02186666,13.592047 C8.95466664,13.592047 10.5301334,11.9955765 10.5301334,10.0289412 C10.5301334,8.06771768 8.9536,6.4701647 7.02186666,6.4701647 C5.0848,6.47124706 3.50826666,8.06663528 3.50826666,10.0289412 Z M4.71893334,10.0289412 C4.71893334,8.74310592 5.75466666,7.69647059 7.024,7.69647059 C8.2912,7.69647059 9.3216,8.74418824 9.3216,10.0289412 C9.3216,11.3191059 8.2912,12.3668235 7.024,12.3668235 C5.75466666,12.3679059 4.71893334,11.3201882 4.71893334,10.0289412 Z" id="Shape" fill="#000000" fill-rule="nonzero"></path>
                <path d="M17.7536,10.0289412 C17.7536,11.9955765 19.328,13.592047 21.2650666,13.592047 C23.1989334,13.592047 24.7722666,11.9955765 24.7722666,10.0289412 C24.7722666,8.06771768 23.1989334,6.4701647 21.2650666,6.4701647 C19.3290666,6.47124706 17.7536,8.06663528 17.7536,10.0289412 Z M18.9642666,10.0289412 C18.9642666,8.74310592 19.9968,7.69647059 21.2672,7.69647059 C22.5344,7.69647059 23.5637334,8.74418824 23.5637334,10.0289412 C23.5637334,11.3191059 22.5344,12.3668235 21.2672,12.3668235 C19.9957334,12.3679059 18.9642666,11.3201882 18.9642666,10.0289412 Z" id="Shape" fill="#000000" fill-rule="nonzero"></path>
                <g id="Shape" transform="translate(7.200000, 1.364706)">
                    <path d="M9.35146664,11.9167059 C9.92746664,12.8085647 10.7274666,13.5283294 11.7045334,13.9861647 C13.0816,14.631247 14.624,14.6918588 16.0458666,14.1604235 C18.9813334,13.0575059 20.4896,9.74117648 19.4048,6.76470588 C18.32,3.78607059 15.0517334,2.25778823 12.1152,3.35637647 C10.6933334,3.88889412 9.56053336,4.95284706 8.9248,6.3501647 C8.50026664,7.28531765 8.35733336,8.29731768 8.45226664,9.29632944"></path>
                    <path d="M11.6170666,1.9893647 C12.3573334,1.71228235 13.1146666,1.57807059 13.8624,1.55750588 C11.8250666,0.631011765 9.51893336,0.162352941 6.96426666,0.162352941 C4.4288,0.162352941 2.0896,0.642917647 0.0533333334,1.5250353 C3.73866666,1.59971765 6.73493334,4.5285647 6.99306666,8.21938824 C7.056,7.37190588 7.25973334,6.5341647 7.62026666,5.7408 C8.41493336,3.98738823 9.83573336,2.65609412 11.6170666,1.9893647 Z" fill="#FFD881" fill-rule="nonzero"></path>
                </g>
                <path d="M28.3850666,2.93952941 L23.6394666,2.93628235 C20.9781334,1.19261177 17.7472,0.268282353 14.1664,0.268282353 C10.4501334,0.268282353 7.0944,1.21534118 4.448,2.97091765 L0,2.9741647 C0,2.9741647 1.04533334,4.4072 1.38346666,5.8445647 C0.5184,7.03731765 0.00426666666,8.50498824 0.00426666666,10.0971294 C0.00426666666,14.0736941 3.1936,17.308847 7.1136,17.308847 C9.35466664,17.308847 11.3525334,16.2492235 12.656,14.6029647 L14.1696,16.9029647 L15.6949334,14.5824 C16.3808,15.4677647 17.2661334,16.1853647 18.304,16.6745882 C20.0298666,17.4798588 21.9637334,17.5577882 23.744,16.8910588 C27.4218666,15.5099765 29.3098666,11.3504941 27.9498666,7.62395294 C27.7109334,6.9669647 27.3845334,6.37167059 26.9941334,5.83590588 C27.3269334,4.3888 28.3850666,2.93952941 28.3850666,2.93952941 Z M14.1653334,1.52705882 C16.72,1.52705882 19.0261334,1.99571765 21.0634666,2.92221177 C20.3146666,2.94277647 19.5584,3.07807059 18.8181334,3.35407059 C17.0368,4.0208 15.616,5.35209412 14.8234666,7.10442353 C14.4629334,7.89778823 14.2592,8.73552944 14.1962666,9.58301176 C13.936,5.89327059 10.9397334,2.96442353 7.2544,2.88865882 C9.2896,2.00654118 11.6288,1.52705882 14.1653334,1.52705882 Z M11.8101334,13.3203765 C10.7893334,14.8475765 9.06346664,15.8541647 7.11146666,15.8541647 C3.98186666,15.8541647 1.43573334,13.2684235 1.43573334,10.0982118 C1.43573334,6.92150588 3.98293334,4.34009412 7.11146666,4.34009412 C10.24,4.34009412 12.7861334,6.92150588 12.7861334,10.0982118 C12.7861334,10.291953 12.7488,10.4748706 12.7296,10.6621177 C12.6346666,11.6362353 12.3264,12.5486588 11.8101334,13.3203765 Z M23.2458666,15.5262118 C21.824,16.057647 20.2816,15.9981177 18.9045334,15.3530353 C17.9274666,14.8941177 17.1274666,14.174353 16.5514666,13.2814118 C16.3168,12.9199059 16.1098666,12.5356706 15.9584,12.1168 C15.7856,11.6427294 15.6992,11.1535059 15.6522666,10.6610353 C15.5573334,9.66202352 15.7002666,8.65002352 16.1248,7.71487059 C16.7605334,6.31755294 17.8933334,5.2536 19.3152,4.72108235 C22.2517334,3.62249412 25.52,5.15077647 26.6048,8.12941176 C27.6885334,11.1069647 26.1813334,14.4222118 23.2458666,15.5262118 Z" id="Shape" fill="#000000" fill-rule="nonzero"></path>
            </g>
        </g>
    </g>
</svg>