<?xml version="1.0" encoding="UTF-8"?>
<svg width="48px" height="48px" viewBox="0 0 48 48" version="1.1" xmlns="http://www.w3.org/2000/svg" xmlns:xlink="http://www.w3.org/1999/xlink">
    <!-- Generator: Sketch 50.2 (55047) - http://www.bohemiancoding.com/sketch -->
    <title>Tumblr</title>
    <desc>Created with Sketch.</desc>
    <defs></defs>
    <g id="Tumblr" stroke="none" stroke-width="1" fill="none" fill-rule="evenodd">
        <g fill-rule="nonzero">
            <path d="M0,24 C0,10.7451654 10.7451654,0 24,0 C37.2548346,0 48,10.7451654 48,24 C48,37.2548346 37.2548346,48 24,48 C10.7451654,48 0,37.2548346 0,24 Z" id="back" fill="#323E4D"></path>
            <g id="Group" transform="translate(12.800000, 9.600000)">
                <path d="M17.1928123,29.4918353 L17.1924344,29.4918353 C14.706045,29.4917085 12.9797402,28.6925482 11.8119199,27.5638422 C12.3295887,27.5982887 12.8688411,27.6154063 13.4292572,27.6154063 C16.1640252,27.6154063 18.8737664,26.635391 19.7701129,25.4480625 L19.9496678,25.2101064 L19.4105414,23.6015999 C19.9224574,23.4879896 20.4310142,23.2975826 20.8504654,23.0631346 L22.3485473,27.5325655 C21.4885653,28.6718803 19.3485622,29.4566279 17.3900035,29.490187 C17.3235732,29.4912858 17.2582767,29.4918353 17.1928123,29.4918353 M14.3590707,20.0744832 C14.3077994,20.0744832 14.261441,20.0416005 14.2484237,19.9916846 C14.2043328,19.8230444 14.1779622,19.61683 14.173889,19.3620522 L14.173889,13.176633 C14.173889,13.1130654 14.2250765,13.0615434 14.2882314,13.0615434 L18.7438873,13.0615434 C18.8070422,13.0615434 18.8582296,13.0100215 18.8582296,12.9464538 L18.8582296,9.49237232 L21.3226576,9.49237232 L21.3226576,14.9235598 L16.638359,14.9235598 L16.638359,20.0744832 L14.3590707,20.0744832 M16.6574651,6.5035519 L14.3073374,6.5035519 C14.2442245,6.5035519 14.1929951,6.45202998 14.1929951,6.3885046 L14.1929951,3.09448337 L16.6574651,3.09448337 L16.6574651,6.5035519" id="Fill-3" fill="#2A323B"></path>
                <path d="M18.6404207,25.033478 C17.7869894,25.8593924 16.0354478,26.4729639 14.3567192,26.5015355 C14.2933123,26.5026345 14.2311232,26.5031839 14.1686822,26.5031839 L14.1681362,26.5031839 C8.64648896,26.5028881 7.17330787,22.2603818 7.17330787,19.753475 L7.17330787,12.0499557 C7.17330787,11.9864303 7.12212046,11.9349084 7.05896553,11.9349084 L4.3889901,11.9349084 C4.32587715,11.9349084 4.27464776,11.8833865 4.27464776,11.8198188 L4.27464776,8.31053824 C4.27464776,8.26362328 4.30383172,8.22178024 4.34729272,8.2047472 C7.20098014,7.08660751 8.79463432,4.86486762 9.2138336,1.42845318 C9.23718072,1.23753891 9.3936404,1.23229796 9.395278,1.23229796 L12.9593744,1.23229796 C13.0224874,1.23229796 13.0736748,1.28381988 13.0736748,1.34738752 L13.0736748,7.51513966 C13.0736748,7.57866504 13.1248622,7.63018695 13.1880171,7.63018695 L17.624567,7.63018695 C17.6877218,7.63018695 17.7389093,7.68175114 17.7389093,7.74527651 L17.7389093,11.8198188 C17.7389093,11.8833865 17.6877218,11.9349084 17.624567,11.9349084 L13.168911,11.9349084 C13.1057562,11.9349084 13.0545687,11.9864303 13.0545687,12.0499979 L13.0546947,19.3711394 C13.0809393,21.019587 13.8735672,21.8552226 15.4105751,21.8552226 C16.029905,21.8552226 16.7392642,21.7102089 17.3868962,21.4611793 C17.4474476,21.4379331 17.5142558,21.4689138 17.5349575,21.5307063 L18.668345,24.912429 C18.682664,24.955075 18.6726281,25.0022859 18.6404207,25.033478 M13.4292572,27.6154063 C16.1640252,27.6154063 18.8737664,26.635391 19.7701129,25.4480625 L19.9496678,25.2101064 L18.2545206,20.1527593 C18.2388158,20.1059712 18.1952289,20.0744832 18.146183,20.0744832 L14.3590707,20.0744832 C14.3077994,20.0744832 14.261441,20.0416005 14.2484237,19.9916846 C14.2043328,19.8230444 14.1779622,19.61683 14.173889,19.3620522 L14.173889,13.176633 C14.173889,13.1130654 14.2250765,13.0615434 14.2882314,13.0615434 L18.7438873,13.0615434 C18.8070422,13.0615434 18.8582296,13.0100215 18.8582296,12.9464538 L18.8582296,6.61864146 C18.8582296,6.55507381 18.8070422,6.5035519 18.7438873,6.5035519 L14.3073374,6.5035519 C14.2442245,6.5035519 14.1929951,6.45202998 14.1929951,6.3885046 L14.1929951,0.220752462 C14.1929951,0.157184817 14.1418497,0.105662903 14.0786948,0.105662903 L6.29820898,0.105662903 C5.74182412,0.105662903 5.09977699,0.521008144 5.00588442,1.29092052 C4.61742282,4.47471275 3.16674904,6.38474295 0.440589229,7.3017823 L0.136404182,7.40398082 C0.0897098448,7.4196614 0.0582583538,7.46361774 0.0582583538,7.51315318 L0.0582583538,12.9464538 C0.0582583538,13.0100215 0.10944576,13.0615434 0.17260069,13.0615434 L2.95687647,13.0615434 L2.95687647,19.753475 C2.95687647,25.0955241 6.63287971,27.6154063 13.4292572,27.6154063" id="Fill-4" fill="#FFFFFE"></path>
                <path d="M6.05394553,14.8620631 L2.95687647,14.8620631 L2.95687647,13.0615434 L5.95304041,13.0615434 C6.00876287,13.0615434 6.05394553,13.1070214 6.05394553,13.163108 L6.05394553,14.8620631" id="Fill-5" fill="#83838D"></path>
            </g>
        </g>
    </g>
</svg>