<?xml version="1.0" encoding="UTF-8"?>
<svg width="48px" height="48px" viewBox="0 0 48 48" version="1.1" xmlns="http://www.w3.org/2000/svg" xmlns:xlink="http://www.w3.org/1999/xlink">
    <!-- Generator: Sketch 50.2 (55047) - http://www.bohemiancoding.com/sketch -->
    <title>Ubuntu</title>
    <desc>Created with Sketch.</desc>
    <defs></defs>
    <g id="Ubuntu" stroke="none" stroke-width="1" fill="none" fill-rule="evenodd">
        <g fill-rule="nonzero">
            <circle id="Oval" fill="#DD4814" cx="24" cy="24" r="24"></circle>
            <path d="M11.7990716,24.0000865 C11.7990716,25.73082 10.4117359,27.1325995 8.7001028,27.1325995 C6.98790262,27.1325995 5.6,25.7302469 5.6,24.0000865 C5.6,22.2699261 6.98790262,20.8670004 8.7001028,20.8670004 C10.411169,20.8670004 11.7990716,22.2699261 11.7990716,24.0000865 Z M29.4330322,39.2334067 C30.2896992,40.7314654 32.1838914,41.2449546 33.6670422,40.3795878 C35.1479253,39.5147942 35.6570497,37.5989525 34.8003827,36.1003206 C33.9448496,34.6016888 32.0495234,34.0887727 30.5675065,34.9541395 C29.0854895,35.8200794 28.577499,37.735348 29.4330322,39.2334067 Z M34.8003827,11.8992792 C35.6570497,10.4012205 35.1496262,8.48537872 33.6670422,7.620012 C32.1855923,6.75521834 30.2896992,7.26870749 29.4330322,8.76676624 C28.577499,10.264825 29.0854895,12.1812398 30.5675065,13.0460334 C32.0495234,13.9119733 33.9459835,13.397911 34.8003827,11.8992792 Z M24.3106056,15.0656046 C28.9295773,15.0656046 32.7190957,18.6445552 33.1148294,23.2080753 L37.6,23.1375852 C37.3873924,19.744889 35.9325892,16.694328 33.6902874,14.4455206 C32.5019525,14.9091509 31.1248219,14.8461109 29.936487,14.1520982 C28.7470182,13.4580856 28.0043089,12.2826768 27.8075759,11.0098427 C26.692945,10.7043854 25.5216186,10.5404815 24.3106056,10.5404815 C22.1907658,10.5404815 20.1854506,11.0419358 18.404649,11.9342378 L20.5868538,15.8960128 C21.7190602,15.3630386 22.9810992,15.0656046 24.3106056,15.0656046 Z M15.4723646,24.0000865 C15.4723646,20.9770338 16.9572162,18.3052855 19.2301336,16.688597 L16.9271677,12.7978852 C14.2596506,14.5985358 12.271911,17.3459319 11.4339534,20.5655547 C12.4261224,21.3736124 13.0611106,22.611488 13.0611106,24.0000865 C13.0611106,25.3886849 12.4261224,26.6265606 11.4339534,27.4346182 C12.2724779,30.6548141 14.2596506,33.4016371 16.9271677,35.2028608 L19.2301336,31.312149 C16.9572162,29.6954605 15.4723646,27.0231392 15.4723646,24.0000865 Z M24.3106056,32.9351414 C22.9810992,32.9351414 21.7190602,32.6371343 20.5868538,32.1053063 L18.404649,36.0670814 C20.1854506,36.9593834 22.1907658,37.4602646 24.3106056,37.4602646 C25.5216186,37.4602646 26.692945,37.2969337 27.8075759,36.9909034 C28.0043089,35.7174962 28.7470182,34.5426605 29.936487,33.8486478 C31.1248219,33.1546351 32.5019525,33.0921682 33.6902874,33.5552254 C35.9325892,31.3052718 37.3873924,28.2541378 37.6,24.8631609 L33.1148294,24.7915246 C32.7190957,29.3556178 28.9295773,32.9351414 24.3106056,32.9351414 Z" id="Shape" fill="#FFFFFF"></path>
        </g>
    </g>
</svg>