<?xml version="1.0" encoding="UTF-8"?>
<svg width="48px" height="48px" viewBox="0 0 48 48" version="1.1" xmlns="http://www.w3.org/2000/svg" xmlns:xlink="http://www.w3.org/1999/xlink">
    <!-- Generator: Sketch 50.2 (55047) - http://www.bohemiancoding.com/sketch -->
    <title>Viber</title>
    <desc>Created with Sketch.</desc>
    <defs></defs>
    <g id="Viber" stroke="none" stroke-width="1" fill="none" fill-rule="evenodd">
        <g fill-rule="nonzero">
            <circle id="Oval" fill="#7F4DA0" transform="translate(24.000000, 24.000000) scale(-1, 1) rotate(-180.000000) translate(-24.000000, -24.000000) " cx="24" cy="24" r="24"></circle>
            <path d="M26.775149,22.6104833 C27.7096845,22.4115319 28.4260601,22.0562899 29.0379901,21.483139 C29.8254514,20.7395299 30.2572115,19.8395335 30.4469141,18.5464067 C30.5749933,17.7032736 30.5228145,17.371726 30.2239396,17.0969891 C29.9440684,16.8412183 29.4270337,16.8317352 29.1138905,17.0733034 C28.8861893,17.2438407 28.8150156,17.4238259 28.7628369,17.9116729 C28.7012046,18.5606181 28.5873144,19.0153315 28.3928762,19.43692 C27.9753755,20.3321441 27.240093,20.7963494 25.9972292,20.9479205 C25.4136595,21.0189865 25.238137,21.085289 25.0484257,21.3078822 C24.7020986,21.7199875 24.8349045,22.387855 25.3140375,22.6341779 C25.4943747,22.7241661 25.5702751,22.7336491 25.9686929,22.7099634 C26.215389,22.6957519 26.5807109,22.6531352 26.775149,22.6104833 Z" id="Path" fill="#FFFFFF" transform="translate(27.683165, 19.809744) rotate(-85.000000) translate(-27.683165, -19.809744) "></path>
            <path d="M25.7647134,23.6481471 C28.6442993,23.2266112 30.8738685,21.8908325 32.3349801,19.7214476 C33.1557045,18.4993868 33.6680124,17.0641718 33.8435437,15.524766 C33.9051759,14.9610895 33.9051759,13.9332164 33.838817,13.7626792 C33.7770967,13.6016689 33.5778526,13.3837513 33.4070481,13.2937983 C33.2220634,13.1990465 32.8283811,13.2084857 32.6101334,13.3222036 C32.2448114,13.5069084 32.1357359,13.8006115 32.1357359,14.5963643 C32.1357359,15.8231448 31.8178661,17.1162716 31.2676475,18.1204589 C30.6414405,19.2667343 29.7306443,20.2140582 28.6205865,20.8724865 C27.6670562,21.4408826 26.2581233,21.8624272 24.9725342,21.966618 C24.5075902,22.0045504 24.2514318,22.0992669 24.0759094,22.3029379 C23.8055708,22.6108436 23.7770344,23.0276687 24.0047357,23.3734189 C24.251423,23.7571014 24.6309251,23.8186844 25.7647134,23.6481471 Z" id="Path" fill="#FFFFFF" transform="translate(28.870441, 18.483628) rotate(-85.000000) translate(-28.870441, -18.483628) "></path>
            <path d="M14.5929343,38.9505011 C14.7590033,38.8936817 15.0151617,38.7610767 15.1622358,38.6663251 C16.0635082,38.0694796 18.5730454,34.8627915 19.3937698,33.2617588 C19.8633612,32.3476037 20.0198888,31.6702531 19.8729027,31.1681595 C19.7210138,30.6281775 19.4696702,30.3439575 18.3453442,29.4392415 C17.8946683,29.0745603 17.472441,28.700352 17.406082,28.6008719 C17.2352862,28.3545491 17.0976656,27.8714216 17.0976656,27.5303822 C17.1024803,26.7393489 17.6147883,25.304134 18.2884386,24.2004754 C18.8102001,23.3431397 19.7447354,22.2442886 20.6698174,21.4011115 C21.7561537,20.4063634 22.7144107,19.7291007 23.7960202,19.1937943 C25.1859582,18.5022763 26.0351397,18.3270195 26.6566112,18.6159151 C26.8131387,18.6869811 26.9791286,18.7817329 27.0313866,18.8243057 C27.0787506,18.8669663 27.4440725,19.3122407 27.8425694,19.8047984 C28.6110358,20.7711325 28.7865583,20.9274232 29.3131345,21.1074084 C29.9820581,21.3347651 30.6651618,21.2732262 31.3529922,20.9227036 C31.8748417,20.6526863 33.0133567,19.9469304 33.7486393,19.4353889 C34.7163498,18.7580383 36.7846734,17.0717722 37.0646415,16.7354172 C37.5579546,16.1291327 37.6433965,15.35239 37.3112584,14.4949663 C36.9602047,13.5903383 35.5939885,11.8945539 34.6404582,11.1698231 C33.7770964,10.5161583 33.1651664,10.2651951 32.3587014,10.2272627 C31.6945926,10.1941291 31.4194392,10.2509484 30.5702577,10.601471 C23.9099017,13.3440154 18.5920314,17.4364535 14.369951,23.0589548 C12.1641034,25.9956871 10.484744,29.0413651 9.33668751,32.2007346 C8.66785199,34.0432826 8.63466815,34.8437989 9.18488671,35.7863945 C9.42212943,36.1842533 10.4325653,37.1695096 11.1678478,37.7189395 C12.3918046,38.6284103 12.9562914,38.9647301 13.4069672,39.0594379 C13.7153044,39.1257667 14.251334,39.073667 14.5929343,38.9505011 Z" id="Path" fill="#FFFFFF" transform="translate(23.155507, 24.653768) rotate(-90.000000) translate(-23.155507, -24.653768) "></path>
            <path d="M25.4373813,25.0246853 C27.0692887,24.8210143 28.3880617,24.4278839 29.8349843,23.7221193 C31.2580973,23.0257939 32.1689023,22.3674095 33.3738643,21.1690519 C34.502917,20.0369792 35.129124,19.1796083 35.7932329,17.8486283 C36.7183148,15.9918248 37.244891,13.7845516 37.3349716,11.3546412 C37.3682347,10.5257547 37.3445131,10.3409709 37.1547136,10.1041751 C36.7942064,9.64465419 36.0019304,9.72052771 35.7315919,10.23678 C35.6461499,10.4073173 35.6224283,10.5540898 35.5939711,11.2172727 C35.5465191,12.2356627 35.4754335,12.8940471 35.333086,13.6803607 C34.773326,16.7639007 33.2932195,19.2269887 30.9307563,20.9937951 C28.9620723,22.4716091 26.9269325,23.1916203 24.2609469,23.3479111 C23.3595954,23.4000109 23.2030591,23.4331358 22.9990882,23.5894704 C22.6194981,23.8878931 22.6005912,24.5888942 22.9658251,24.9157222 C23.1887996,25.1194371 23.3453272,25.1478423 24.1186083,25.1241567 C24.5218408,25.1099539 25.1147847,25.0625825 25.4373813,25.0246853 Z" id="Path" fill="#FFFFFF" transform="translate(30.025186, 17.465788) rotate(-85.000000) translate(-30.025186, -17.465788) "></path>
        </g>
    </g>
</svg>