<?xml version="1.0" encoding="UTF-8"?>
<svg width="48px" height="48px" viewBox="0 0 48 48" version="1.1" xmlns="http://www.w3.org/2000/svg" xmlns:xlink="http://www.w3.org/1999/xlink">
    <!-- Generator: Sketch 50.2 (55047) - http://www.bohemiancoding.com/sketch -->
    <title>Vimeo</title>
    <desc>Created with Sketch.</desc>
    <defs></defs>
    <g id="Vimeo" stroke="none" stroke-width="1" fill="none" fill-rule="evenodd">
        <g fill-rule="nonzero">
            <path d="M0,24 C0,10.7451654 10.7451654,0 24,0 C37.2548346,0 48,10.7451654 48,24 C48,37.2548346 37.2548346,48 24,48 C10.7451654,48 0,37.2548346 0,24 Z" id="back" fill="#31AFD8"></path>
            <path d="M37.585997,19.3620066 C37.4578025,22.1653502 35.5000119,26.0032174 31.7122934,30.8756084 C27.7967122,35.9632069 24.4835794,38.5081686 21.7745552,38.5081686 C20.0950731,38.5081686 18.6746372,36.959538 17.5139114,33.859952 C16.739098,31.0187479 15.9649488,28.177876 15.1898032,25.3366719 C14.3276447,22.2387465 13.4037138,20.6881233 12.4146891,20.6881233 C12.1991494,20.6881233 11.445259,21.1414539 10.154346,22.0441298 L8.8,20.2992221 C10.2214323,19.0508192 11.6232702,17.8020843 13.0025244,16.5516888 C14.8982103,14.9143847 16.3222995,14.0525584 17.2708067,13.9658776 C19.5112231,13.750338 20.8908096,15.2820309 21.4085696,18.5609565 C21.9681755,22.0992602 22.3557483,24.2994913 22.5729485,25.1606534 C23.2198994,28.0961768 23.9309478,29.5624441 24.7070897,29.5624441 C25.3092057,29.5624441 26.2152028,28.6106158 27.422756,26.7056308 C28.6279845,24.8019742 29.2742712,23.3533089 29.3612842,22.357642 C29.5336494,20.7146921 28.8873626,19.8910584 27.422756,19.8910584 C26.7332949,19.8910584 26.0222466,20.0498072 25.2909397,20.3633194 C26.7067261,15.7280551 29.4107686,13.476679 33.4020708,13.6052058 C36.3611741,13.6918866 37.7570339,15.6108202 37.585997,19.3620066" id="Fill-4" fill="#FFFFFE"></path>
        </g>
    </g>
</svg>