<?xml version="1.0" encoding="UTF-8"?>
<svg width="48px" height="48px" viewBox="0 0 48 48" version="1.1" xmlns="http://www.w3.org/2000/svg" xmlns:xlink="http://www.w3.org/1999/xlink">
    <!-- Generator: Sketch 50.2 (55047) - http://www.bohemiancoding.com/sketch -->
    <title>Wordpress</title>
    <desc>Created with Sketch.</desc>
    <defs></defs>
    <g id="Wordpress" stroke="none" stroke-width="1" fill="none" fill-rule="evenodd">
        <g fill-rule="nonzero">
            <path d="M0,24 C0,10.7451654 10.7451654,0 24,0 C37.2548346,0 48,10.7451654 48,24 C48,37.2548346 37.2548346,48 24,48 C10.7451654,48 0,37.2548346 0,24 Z" id="back" fill="#FFFFFF"></path>
            <path d="M12,24.182331 C12,29.027921 14.9382784,33.21603 19.2,35.2 L13.1061772,19.2 C12.3973938,20.722451 12,22.407435 12,24.182331" id="Fill-1" fill="#3E3D3A"></path>
            <path d="M31.9974198,23.7640111 C31.9974198,22.2323581 31.4565806,21.1724203 30.9932909,20.3472466 C30.376049,19.3262418 29.7969368,18.4625726 29.7969368,17.4415678 C29.7969368,16.3028894 30.6458235,15.2428058 31.8421776,15.2428058 C31.8962185,15.2428058 31.9473926,15.2493675 32,15.2527213 C29.833203,13.2331674 26.946386,12 23.7757467,12 C19.5207055,12 15.7776912,14.2209261 13.6,17.5840302 C13.8859725,17.5933625 14.155317,17.5990493 14.3838083,17.5990493 C15.6574251,17.5990493 17.6297035,17.4415678 17.6297035,17.4415678 C18.2859351,17.4024891 18.3634846,18.3835402 17.707683,18.4625726 C17.707683,18.4625726 17.047581,18.5410218 16.3138,18.5802463 L20.7485954,32 L23.4142316,23.868853 L21.5169225,18.5802463 C20.8606909,18.5410218 20.2394354,18.4625726 20.2394354,18.4625726 C19.5830604,18.4230565 19.6600365,17.4024891 20.3166981,17.4415678 C20.3166981,17.4415678 22.3276795,17.5990493 23.5243203,17.5990493 C24.7976504,17.5990493 26.7703588,17.4415678 26.7703588,17.4415678 C27.4268771,17.4024891 27.5042832,18.3835402 26.8480516,18.4625726 C26.8480516,18.4625726 26.1873763,18.5410218 25.454312,18.5802463 L29.8557081,31.8977829 L31.070697,27.768998 C31.596485,26.0546373 31.9974198,24.8242405 31.9974198,23.7640111" id="Fill-3" fill="#3E3D3A"></path>
            <path d="M24.3153395,24.8 L20.8,35.4999174 C21.8498449,35.8233388 22.959807,36 24.1096174,36 C25.4738366,36 26.7823509,35.753281 28,35.3043334 C27.9688383,35.2516096 27.9397449,35.1958522 27.916029,35.1351837 L24.3153395,24.8 Z" id="Fill-5" fill="#3E3D3A"></path>
            <path d="M35.2235573,18.4 C35.2788524,18.7980875 35.3100602,19.2251563 35.3100602,19.6853255 C35.3100602,20.9531446 35.0655494,22.3789629 34.3312598,24.1621184 L30.4,35.2 C34.2265777,33.0334682 36.8,29.0075763 36.8,24.3963222 C36.8,22.2231703 36.228263,20.1802133 35.2235573,18.4" id="Fill-7" fill="#3E3D3A"></path>
            <path d="M23.9998546,37.7397677 C16.4240141,37.7397677 10.2603744,31.5756607 10.2603744,23.9996365 C10.2603744,16.4237577 16.4240141,10.2603778 23.9998546,10.2603778 C31.5756951,10.2603778 37.7394802,16.4237577 37.7394802,23.9996365 C37.7394802,31.5756607 31.5756951,37.7397677 23.9998546,37.7397677 M23.9998546,9.6 C16.0596595,9.6 9.6,16.0595467 9.6,23.9996365 C9.6,31.9401625 16.0596595,38.4 23.9998546,38.4 C31.9400497,38.4 38.4,31.9401625 38.4,23.9996365 C38.4,16.0595467 31.9400497,9.6 23.9998546,9.6" id="Fill-9" fill="#3E3D3A"></path>
        </g>
    </g>
</svg>