<?xml version="1.0" encoding="UTF-8"?>
<svg width="48px" height="48px" viewBox="0 0 48 48" version="1.1" xmlns="http://www.w3.org/2000/svg" xmlns:xlink="http://www.w3.org/1999/xlink">
    <!-- Generator: Sketch 50.2 (55047) - http://www.bohemiancoding.com/sketch -->
    <title>Zoom</title>
    <desc>Created with Sketch.</desc>
    <defs></defs>
    <g id="Zoom" stroke="none" stroke-width="1" fill="none" fill-rule="evenodd">
        <g fill-rule="nonzero">
            <path d="M24,48 C37.2548348,48 48,37.2548348 48,24 C48,10.7451652 37.2548348,0 24,0 C10.7451652,0 0,10.7451652 0,24 C0,37.2548348 10.7451652,48 24,48 Z" id="Oval" fill="#2D8CFF"></path>
            <g id="Clip-14" transform="translate(8.000000, 15.200000)" fill="#FFFFFF">
                <path d="M0.34782608,1.2872696 L0.34782608,12.5566757 C0.34782608,15.0922991 2.42416264,17.1478261 4.98329824,17.1478261 L21.4186261,17.1478261 C21.8837826,17.1478261 22.2608696,16.7737234 22.2608696,16.3127434 L22.2608696,5.04332176 C22.2608696,2.50769568 20.1845304,0.45217392 17.6254,0.45217392 L1.1900748,0.45217392 C0.72491304,0.45217392 0.34782608,0.82628696 0.34782608,1.2872696 Z M23.3043478,5.68401736 L30.0869566,0.73532176 C30.6782434,0.2516696 31.1304348,0.36384344 31.1304348,1.25625216 L31.1304348,16.362773 C31.1304348,17.3636513 30.5669043,17.2503374 30.0869566,16.8836878 L23.3043478,11.9349974 L23.3043478,5.68401736 Z" id="path-1"></path>
            </g>
        </g>
    </g>
</svg>