<?xml version="1.0" encoding="UTF-8"?>
<svg width="48px" height="48px" viewBox="0 0 48 48" version="1.1" xmlns="http://www.w3.org/2000/svg" xmlns:xlink="http://www.w3.org/1999/xlink">
    <!-- Generator: Sketch 50.2 (55047) - http://www.bohemiancoding.com/sketch -->
    <title>Amazon</title>
    <desc>Created with Sketch.</desc>
    <defs></defs>
    <g id="Amazon" stroke="none" stroke-width="1" fill="none" fill-rule="evenodd">
        <g fill-rule="nonzero">
            <path d="M0,24 C0,10.7451654 10.7451654,0 24,0 C37.2548346,0 48,10.7451654 48,24 C48,37.2548346 37.2548346,48 24,48 C10.7451654,48 0,37.2548346 0,24 Z" id="back" fill="#FFFFFF"></path>
            <path d="M17.5317914,24.0590074 C17.5317914,22.8528566 17.8288286,21.8231279 18.4229029,20.968021 C19.0169771,20.1129141 19.8270784,19.4666334 20.8586074,19.0291786 C21.800125,18.6277285 22.9612702,18.3396925 24.3402426,18.1650706 C24.808301,18.1110639 25.5787974,18.0426554 26.6445306,17.9562446 L26.6445306,17.511589 C26.6445306,16.3954494 26.5185148,15.6429554 26.2754844,15.2613077 C25.9100387,14.7356419 25.3339667,14.4728091 24.5472684,14.4728091 L24.343843,14.4728091 C23.767771,14.5268158 23.2691086,14.7068383 22.8496562,15.0236779 C22.4302038,15.3387174 22.16017,15.776172 22.039555,16.3342418 C21.9675459,16.6834854 21.7929241,16.8851106 21.5138892,16.9373172 L18.5021128,16.5700713 C18.2068758,16.4980622 18.0574572,16.3414427 18.0574572,16.0966121 C18.0574572,16.0426054 18.0664583,15.9831979 18.0844606,15.9129891 C18.3814977,14.359395 19.1105888,13.2072509 20.2699338,12.456557 C21.4310789,11.7058632 22.7902488,11.2864108 24.3420427,11.2 L24.9955245,11.2 C26.9847731,11.2 28.5383673,11.7148643 29.6581073,12.744593 C29.8309289,12.9192149 29.9911489,13.1082386 30.1405676,13.3080635 C30.2899862,13.5096887 30.4106014,13.6861108 30.4952119,13.8445306 C30.5852231,14.0029504 30.6608326,14.2297787 30.7292411,14.5286161 C30.8012502,14.8220527 30.8552569,15.0272784 30.887661,15.1406926 C30.9236654,15.2541068 30.9488686,15.5007376 30.9668709,15.8751844 C30.9848731,16.2496312 30.992074,16.4728591 30.992074,16.5412677 L30.992074,22.8780598 C30.992074,23.3335167 31.0568821,23.7475685 31.1900988,24.120215 C31.3161145,24.4982623 31.4457307,24.768296 31.568146,24.9339167 L32.1694212,25.7332166 C32.2738342,25.8898362 32.3260407,26.0302538 32.3260407,26.1526691 C32.3260407,26.2912864 32.2576322,26.4137017 32.1172146,26.5181148 C30.6662333,27.7782723 29.8813352,28.4569571 29.7589198,28.5613702 C29.5500938,28.71979 29.296262,28.7377922 28.9992249,28.615377 C28.7543943,28.4065508 28.5419678,28.2049256 28.3583448,28.0123015 C28.1747218,27.8214777 28.0433054,27.6810602 27.9658958,27.5946494 C27.8866858,27.5046381 27.7606701,27.3372171 27.5878485,27.0833854 C27.4114264,26.8277534 27.2890111,26.6585323 27.2188023,26.5703213 C26.2394799,27.6360545 25.27996,28.2985373 24.3384423,28.5613702 C23.7443681,28.7377922 23.0098762,28.824203 22.1367671,28.824203 C20.7937992,28.824203 19.688461,28.4101513 18.824353,27.5820478 C17.960245,26.7539442 17.528191,25.5783973 17.528191,24.0590074 L17.5317914,24.0590074 Z M22.0359545,23.5333417 C22.0359545,24.2138267 22.2051757,24.7574947 22.5454182,25.1715465 C22.887461,25.5801975 23.3429178,25.783623 23.9189898,25.783623 C23.9729966,25.783623 24.0450056,25.7764221 24.1422178,25.76022 C24.2376297,25.7422178 24.304238,25.7332166 24.3402426,25.7332166 C25.0711339,25.5405926 25.640005,25.0707338 26.0414552,24.32004 C26.232279,23.9869984 26.376297,23.6251531 26.4735092,23.2327041 C26.5689211,22.8420553 26.6211277,22.5234154 26.6301288,22.2785848 C26.6391299,22.0337542 26.6427303,21.6305038 26.6427303,21.0724341 L26.6427303,20.4189524 C25.6292037,20.4189524 24.8605076,20.4909614 24.3384423,20.6295787 C22.8010502,21.0652331 22.0341542,22.0337542 22.0341542,23.5351419 L22.0359545,23.5333417 Z" id="Shape" fill="#221F1F"></path>
            <path d="M33.031729,31.9655957 C33.0677334,31.8935867 33.1217402,31.8251782 33.1883486,31.7549694 C33.6258032,31.4597325 34.0452557,31.2581073 34.4485061,31.1536942 C35.1091886,30.9808726 35.7554694,30.8836605 36.383748,30.8656582 C36.5583698,30.8476559 36.7257907,30.8584573 36.8806101,30.8926616 C37.6673084,30.9646706 38.1407676,31.0942868 38.295587,31.2887111 C38.3675959,31.3913239 38.4,31.5479435 38.4,31.7567696 L38.4,31.9403926 C38.4,32.552469 38.2343793,33.272559 37.9031379,34.1006626 C37.5700962,34.9287661 37.1074384,35.5984498 36.5169646,36.104313 C36.4269534,36.1763221 36.3495437,36.2087261 36.2793349,36.2087261 C36.2433304,36.2087261 36.2073259,36.199725 36.1749218,36.183523 C36.0669084,36.1295162 36.0435054,36.0341042 36.095712,35.895487 C36.743793,34.376097 37.064233,33.3211651 37.064233,32.7270909 C37.064233,32.5344668 37.0282286,32.3940493 36.95982,32.3076385 C36.7851982,32.1006126 36.2973372,31.9943993 35.4926366,31.9943993 C35.1973997,31.9943993 34.848156,32.0124015 34.4485061,32.0484061 C34.0092511,32.1024128 33.607801,32.1528191 33.2423553,32.2050256 C33.1343418,32.2050256 33.0677334,32.1870234 33.031729,32.1510189 C32.9957245,32.1150144 32.9885236,32.0826103 33.0065258,32.0466058 C33.0065258,32.0286036 33.0137267,32.0034004 33.031729,31.9691962 L33.031729,31.9655957 Z" id="Path" fill="#FF9900"></path>
            <path d="M9.65400672,31.5209401 C9.74041752,31.3805226 9.87903488,31.3715214 10.071659,31.4939367 C14.4354044,34.0250531 19.1843981,35.2924115 24.3168396,35.2924115 C27.7372671,35.2924115 31.1162895,34.6533317 34.4521065,33.3787723 L34.8301538,33.2221528 C34.9957745,33.1501438 35.1127891,33.0997374 35.1829978,33.0655332 C35.4458307,32.9611202 35.6510564,33.0115265 35.800475,33.2221528 C35.9480935,33.4309789 35.8994874,33.623603 35.656457,33.7982248 C35.3414177,34.0250531 34.9399675,34.287886 34.4503063,34.5831229 C32.9507188,35.4742342 31.2747094,36.1637205 29.424078,36.6533817 C27.5752469,37.1394424 25.7696212,37.3860733 24.0054006,37.3860733 C21.2816602,37.3860733 18.7073384,36.9090136 16.2824353,35.9584948 C13.8521315,35.007976 11.6810602,33.6668083 9.76022,31.9385923 C9.65400672,31.8539818 9.6,31.7639705 9.6,31.6775597 C9.6,31.623553 9.61800224,31.5731466 9.65400672,31.5209401 Z" id="Path" fill="#FF9900"></path>
        </g>
    </g>
</svg>