<?xml version="1.0" encoding="UTF-8"?>
<svg width="48px" height="48px" viewBox="0 0 48 48" version="1.1" xmlns="http://www.w3.org/2000/svg" xmlns:xlink="http://www.w3.org/1999/xlink">
    <!-- Generator: Sketch 50.2 (55047) - http://www.bohemiancoding.com/sketch -->
    <title>Behance</title>
    <desc>Created with Sketch.</desc>
    <defs></defs>
    <g id="Behance" stroke="none" stroke-width="1" fill="none" fill-rule="evenodd">
        <g fill-rule="nonzero">
            <path d="M0,24 C0,10.7451654 10.7451654,0 24,0 C37.2548346,0 48,10.7451654 48,24 C48,37.2548346 37.2548346,48 24,48 C10.7451654,48 0,37.2548346 0,24 Z" id="back" fill="#1769FF"></path>
            <path d="M27.5582761,18.669884 L34.3375984,18.669884 L34.3375984,16.7276102 L27.5582761,16.7276102 L27.5582761,18.669884 Z M29.1643011,22.9078422 C28.732315,23.3473782 28.4598778,23.9428306 28.3484946,24.6941995 L33.6211336,24.6941995 C33.565442,23.8923434 33.2914996,23.2864965 32.8068322,22.8692343 C32.3161442,22.454942 31.7125677,22.2485383 30.9900822,22.2485383 C30.2073896,22.2485383 29.5962873,22.4683062 29.1643011,22.9078422 Z M33.7400426,20.3003248 C34.5573544,20.6596752 35.230169,21.229884 35.7599918,22.0079814 C36.2431539,22.6940139 36.5532206,23.4899304 36.6947074,24.3942459 C36.7774922,24.922877 36.8106061,25.6890951 36.7970595,26.6854756 L28.2732357,26.6854756 C28.3244117,27.8422274 28.7277994,28.6544779 29.4984506,29.1192575 C29.9650559,29.4088167 30.5264874,29.5543387 31.1857554,29.5543387 C31.8796425,29.5543387 32.4470946,29.3776334 32.8820911,29.0257077 C33.1214145,28.8341531 33.3321394,28.5698376 33.5127608,28.2312761 L36.6360054,28.2312761 C36.5532206,28.9143387 36.1739158,29.6107657 35.5026062,30.317587 C34.4550023,31.4387007 32.9874536,32 31.1014654,32 C29.543606,32 28.1693784,31.5277958 26.9817928,30.5804176 C25.7881866,29.6345244 25.1951464,28.0931786 25.1951464,25.9608353 C25.1951464,23.9606497 25.732495,22.4267286 26.805687,21.3590719 C27.8818894,20.2943851 29.2741791,19.7583294 30.988577,19.7583294 C32.0075826,19.7583294 32.9242362,19.9394895 33.7400426,20.3003248 Z M14.3533482,24.7357773 L14.3533482,28.8980046 L18.1945628,28.8980046 C18.8809241,28.8980046 19.4167674,28.8059397 19.7975775,28.6232946 C20.4914646,28.2817634 20.8376557,27.6343387 20.8376557,26.6750812 C20.8376557,25.8613457 20.5035061,25.3045012 19.8306914,25.0000928 C19.454397,24.8308121 18.9260794,24.741717 18.2487492,24.7357773 L14.3533482,24.7357773 Z M14.3533482,18.7099768 L14.3533482,22.1535035 L18.2005835,22.1535035 C18.8854396,22.1535035 19.4438607,22.0243155 19.8743416,21.7659397 C20.3018122,21.5075638 20.5170527,21.0502088 20.5170527,20.3968446 C20.5170527,19.6677494 20.2340792,19.1881206 19.6681322,18.9535035 C19.1774442,18.7916474 18.5543004,18.7099768 17.7971958,18.7099768 L14.3533482,18.7099768 Z M22.944905,17.663109 C23.4280672,18.3268678 23.6704009,19.1198144 23.6704009,20.0449188 C23.6704009,20.9967518 23.4280672,21.7644547 22.9388843,22.3435731 C22.6649419,22.6672854 22.2630594,22.9642691 21.7317314,23.2315546 C22.538507,23.5225986 23.1465989,23.9814385 23.5605229,24.6095592 C23.9699314,25.2361949 24.1761408,25.9994431 24.1761408,26.8963341 C24.1761408,27.8214385 23.941333,28.6515082 23.4702122,29.385058 C23.172187,29.8706265 22.7989028,30.280464 22.3503597,30.6130858 C21.846125,30.99471 21.2515796,31.2545708 20.5637132,31.397123 C19.8758468,31.5381902 19.1322888,31.6064965 18.3285237,31.6064965 L11.2,31.6064965 L11.2,16 L18.8447998,16 C20.7744382,16.0282134 22.1396347,16.5820882 22.944905,17.663109 Z" id="Shape" fill="#FFFFFF"></path>
        </g>
    </g>
</svg>