<?xml version="1.0" encoding="UTF-8"?>
<svg width="48px" height="48px" viewBox="0 0 48 48" version="1.1" xmlns="http://www.w3.org/2000/svg" xmlns:xlink="http://www.w3.org/1999/xlink">
    <!-- Generator: Sketch 50.2 (55047) - http://www.bohemiancoding.com/sketch -->
    <title>Bitbucket</title>
    <desc>Created with Sketch.</desc>
    <defs>
        <linearGradient x1="108.63338%" y1="13.818022%" x2="46.9265964%" y2="78.7761408%" id="linearGradient-1">
            <stop stop-color="#0052CC" offset="18%"></stop>
            <stop stop-color="#2684FF" offset="100%"></stop>
        </linearGradient>
    </defs>
    <g id="Bitbucket" stroke="none" stroke-width="1" fill="none" fill-rule="evenodd">
        <g fill-rule="nonzero">
            <path d="M0,24 C0,10.7451654 10.7451654,0 24,0 C37.2548346,0 48,10.7451654 48,24 C48,37.2548346 37.2548346,48 24,48 C10.7451654,48 0,37.2548346 0,24 Z" id="back" fill="#FFFFFF"></path>
            <g id="Group" transform="translate(12.000000, 13.600000)">
                <path d="M1.125,0.0975 C0.903436704,0.0946423784 0.691949665,0.189904706 0.547270177,0.357732911 C0.40259069,0.525561117 0.339528497,0.748775897 0.375,0.9675 L3.55875,20.295 C3.64063129,20.7832107 4.06123742,21.142149 4.55625,21.14625 L19.83,21.14625 C20.2015446,21.151032 20.5205787,20.8830434 20.58,20.51625 L23.76375,0.97125 C23.7992215,0.752525897 23.7361593,0.529311117 23.5914798,0.361482911 C23.4468003,0.193654706 23.2353133,0.0983923784 23.01375,0.10125 L1.125,0.0975 Z M14.53125,14.06625 L9.65625,14.06625 L8.33625,7.17 L15.7125,7.17 L14.53125,14.06625 Z" id="Shape" fill="#2684FF"></path>
                <path d="M22.75125,7.17 L15.7125,7.17 L14.53125,14.06625 L9.65625,14.06625 L3.9,20.89875 C4.08244769,21.0565134 4.31506036,21.1442417 4.55625,21.14625 L19.83375,21.14625 C20.2052946,21.151032 20.5243287,20.8830434 20.58375,20.51625 L22.75125,7.17 Z" id="Shape" fill="url(#linearGradient-1)"></path>
            </g>
        </g>
    </g>
</svg>