<?xml version="1.0" encoding="UTF-8"?>
<svg width="48px" height="48px" viewBox="0 0 48 48" version="1.1" xmlns="http://www.w3.org/2000/svg" xmlns:xlink="http://www.w3.org/1999/xlink">
    <!-- Generator: Sketch 50.2 (55047) - http://www.bohemiancoding.com/sketch -->
    <title>Bittorrent</title>
    <desc>Created with Sketch.</desc>
    <defs>
        <path d="M0,24 C0,10.7451654 10.7451654,0 24,0 C37.2548346,0 48,10.7451654 48,24 C48,37.2548346 37.2548346,48 24,48 C10.7451654,48 0,37.2548346 0,24 Z" id="path-1"></path>
        <path d="M0,24 C0,10.7451654 10.7451654,0 24,0 C37.2548346,0 48,10.7451654 48,24 C48,37.2548346 37.2548346,48 24,48 C10.7451654,48 0,37.2548346 0,24 Z" id="path-3"></path>
        <path d="M0,24 C0,10.7451654 10.7451654,0 24,0 C37.2548346,0 48,10.7451654 48,24 C48,37.2548346 37.2548346,48 24,48 C10.7451654,48 0,37.2548346 0,24 Z" id="path-5"></path>
    </defs>
    <g id="Bittorrent" stroke="none" stroke-width="1" fill="none" fill-rule="evenodd">
        <g>
            <g id="back" fill="#00853F" fill-rule="nonzero">
                <path d="M0,24 C0,10.7451654 10.7451654,0 24,0 C37.2548346,0 48,10.7451654 48,24 C48,37.2548346 37.2548346,48 24,48 C10.7451654,48 0,37.2548346 0,24 Z" id="path-1"></path>
            </g>
            <g id="path3942-Clipped">
                <mask id="mask-2" fill="white">
                    <use xlink:href="#path-1"></use>
                </mask>
                <g id="path-1"></g>
                <path d="M11.2559412,45.6953474 C7.68495739,42.1144027 5.72265946,37.3381497 5.73262037,32.2381673 C5.74756173,21.5999226 14.7273159,12.605227 25.3356778,12.605227 L25.3356778,15.9172274 C16.6696921,15.9172274 9.0545816,23.5472792 9.03964024,32.2481282 C9.03465976,36.4615902 10.6483261,40.4061078 13.5967534,43.3595157 C16.5601222,46.3278648 20.5345225,47.9664334 24.7878282,47.9664334 L24.7878282,51.2734533 C19.6480022,51.2734533 14.8468468,49.2912335 11.2559412,45.6953474" id="path3942" fill="#99CEB2" fill-rule="nonzero" mask="url(#mask-2)" transform="translate(15.534130, 31.939340) scale(-1, 1) rotate(-180.000000) translate(-15.534130, -31.939340) "></path>
            </g>
            <g id="path3946-Clipped">
                <mask id="mask-4" fill="white">
                    <use xlink:href="#path-3"></use>
                </mask>
                <g id="path-1"></g>
                <path d="M21.069423,47.7545902 C17.264358,46.7286171 14.1266735,44.3429808 12.2341019,41.0359609 C8.25970152,34.088231 10.371413,25.6065218 17.2543971,20.8701124 C27.4693033,13.8476757 45.707717,18.285258 46.4747066,18.4745152 L45.6778343,21.6869065 C45.5035186,21.6420824 28.116762,17.4236399 19.1320274,23.5944194 C13.6983546,27.3297582 12.0050011,33.9736806 15.1078225,39.3924119 C16.5621143,41.9274618 18.9826138,43.7652484 21.9310411,44.5571402 C24.9541753,45.3739342 28.0818989,44.9754982 30.74146,43.441519 L32.3949699,46.3102591 C28.9684193,48.2874985 24.9442143,48.800485 21.069423,47.7545902" id="path3946" fill="#CCE7D9" fill-rule="nonzero" mask="url(#mask-4)" transform="translate(28.356943, 32.601404) scale(-1, 1) rotate(-180.000000) translate(-28.356943, -32.601404) "></path>
            </g>
            <g id="path3950-Clipped">
                <mask id="mask-6" fill="white">
                    <use xlink:href="#path-5"></use>
                </mask>
                <g id="path-1"></g>
                <path d="M19.9408527,42.4143589 C16.6388133,40.506846 14.7910658,37.0354712 14.7910658,33.4694679 C14.7910658,31.8159579 15.2044432,30.1475066 16.0361786,28.6035666 L16.0262178,28.5936057 C16.0262178,28.5886253 16.0561004,28.5388208 16.0660614,28.5188989 L16.0610809,28.5188989 C16.0610809,28.5188989 16.0810027,28.4890163 16.0959441,28.464114 C16.1158658,28.4242704 16.1656704,28.3346223 16.1706508,28.3296418 C16.6886178,27.4381409 18.6857789,24.4349287 23.0635958,22.8411841 C32.0831937,19.5491057 47.3582387,22.8561255 48.0056974,23.0005586 L47.2934929,26.2328717 C47.1440793,26.1980085 32.307314,22.9905977 24.1941583,25.948986 C20.7476858,27.2040597 19.3083354,29.4950675 19.0443714,29.9682104 C19.0443714,29.9682104 19.0344105,29.9831517 19.0344105,29.9881322 C18.4018931,31.088812 18.0980856,32.2891009 18.0980856,33.4744483 C18.0980856,35.8949478 19.3531594,38.2507014 21.5943626,39.5505993 C23.2130094,40.4819437 25.1006006,40.7309663 26.9085045,40.2478625 C28.7114279,39.7647587 30.2205048,38.6043134 31.1568297,36.9856667 L34.0753743,38.5395676 L34.0205894,38.6391766 C32.6459847,41.0248129 30.4247033,42.7281273 27.7651422,43.4453124 C25.105581,44.157517 22.326489,43.7889636 19.9408527,42.4143589" id="path3950" fill="#FFFFFF" fill-rule="nonzero" mask="url(#mask-6)" transform="translate(31.398382, 32.593589) scale(-1, 1) rotate(-180.000000) translate(-31.398382, -32.593589) "></path>
            </g>
        </g>
    </g>
</svg>