<?xml version="1.0" encoding="UTF-8"?>
<svg width="48px" height="48px" viewBox="0 0 48 48" version="1.1" xmlns="http://www.w3.org/2000/svg" xmlns:xlink="http://www.w3.org/1999/xlink">
    <!-- Generator: Sketch 50.2 (55047) - http://www.bohemiancoding.com/sketch -->
    <title>Codeopen</title>
    <desc>Created with Sketch.</desc>
    <defs></defs>
    <g id="Codeopen" stroke="none" stroke-width="1" fill="none" fill-rule="evenodd">
        <g fill-rule="nonzero">
            <path d="M0,24 C0,10.7451654 10.7451654,0 24,0 C37.2548346,0 48,10.7451654 48,24 C48,37.2548346 37.2548346,48 24,48 C10.7451654,48 0,37.2548346 0,24 Z" id="back" fill="#FFFFFF"></path>
            <path d="M36.7907,20.48315 C36.788375,20.466875 36.7845,20.45215 36.782175,20.43665 C36.77675,20.406425 36.771325,20.3762 36.763575,20.347525 C36.758925,20.3297 36.75195,20.31265 36.746525,20.2956 C36.738,20.26925 36.729475,20.243675 36.7194,20.2181 C36.712425,20.200275 36.7039,20.18245 36.695375,20.166175 C36.684525,20.141375 36.6729,20.118125 36.65895,20.09565 C36.64965,20.0786 36.6388,20.062325 36.628725,20.04605 C36.614775,20.023575 36.60005,20.001875 36.583775,19.98095 C36.57215,19.96545 36.55975,19.94995 36.54735,19.935225 C36.5303,19.915075 36.512475,19.8957 36.493875,19.8771 C36.479925,19.86315 36.46675,19.848425 36.452025,19.836025 C36.431875,19.8182 36.411725,19.80115 36.391575,19.784875 C36.3753,19.772475 36.3598,19.760075 36.343525,19.74845 C36.337325,19.744575 36.3319,19.73915 36.3257,19.735275 L24.991325,12.179025 C24.633275,11.940325 24.1675,11.940325 23.808675,12.179025 L12.475075,19.735275 C12.468875,19.73915 12.46345,19.744575 12.45725,19.74845 C12.4402,19.760075 12.4247,19.772475 12.4092,19.784875 C12.388275,19.80115 12.368125,19.8182 12.34875,19.836025 C12.334025,19.848425 12.320075,19.86315 12.306125,19.8771 C12.287525,19.8957 12.2697,19.915075 12.253425,19.935225 C12.24025,19.94995 12.22785,19.96545 12.216225,19.98095 C12.200725,20.001875 12.186,20.023575 12.17205,20.04605 C12.1612,20.062325 12.151125,20.0786 12.14105,20.09565 C12.127875,20.118125 12.11625,20.141375 12.104625,20.166175 C12.096875,20.18245 12.08835,20.200275 12.081375,20.2181 C12.070525,20.243675 12.062,20.26925 12.053475,20.2956 C12.04805,20.31265 12.04185,20.3297 12.0372,20.347525 C12.02945,20.3762 12.024025,20.406425 12.0186,20.43665 C12.0155,20.45215 12.011625,20.466875 12.010075,20.48315 C12.003875,20.5281 12,20.5746 12,20.621875 L12,28.178125 C12,28.224625 12.003875,28.271125 12.010075,28.317625 C12.011625,28.33235 12.0155,28.34785 12.0186,28.36335 C12.024025,28.393575 12.02945,28.423025 12.0372,28.452475 C12.04185,28.4703 12.04805,28.48735 12.053475,28.5044 C12.062,28.529975 12.070525,28.556325 12.081375,28.582675 C12.08835,28.599725 12.096875,28.616775 12.104625,28.633825 C12.11625,28.65785 12.127875,28.6811 12.14105,28.705125 C12.151125,28.7214 12.1612,28.737675 12.17205,28.75395 C12.186,28.776425 12.200725,28.79735 12.216225,28.818275 C12.22785,28.83455 12.24025,28.85005 12.253425,28.864775 C12.2697,28.88415 12.287525,28.9043 12.306125,28.922125 C12.320075,28.93685 12.334025,28.9508 12.34875,28.963975 C12.368125,28.9818 12.388275,28.99885 12.4092,29.015125 C12.4247,29.027525 12.4402,29.039925 12.45725,29.05155 C12.46345,29.055425 12.468875,29.06085 12.475075,29.064725 L23.808675,36.620975 C23.9877,36.740325 24.19385,36.8 24.4,36.8 C24.60615,36.8 24.8123,36.740325 24.991325,36.620975 L36.3257,29.064725 C36.3319,29.06085 36.337325,29.055425 36.343525,29.05155 C36.3598,29.039925 36.3753,29.027525 36.391575,29.015125 C36.411725,28.99885 36.431875,28.9818 36.452025,28.963975 C36.46675,28.9508 36.479925,28.93685 36.493875,28.922125 C36.512475,28.9043 36.5303,28.88415 36.54735,28.864775 C36.55975,28.85005 36.57215,28.83455 36.583775,28.818275 C36.60005,28.79735 36.614775,28.776425 36.628725,28.75395 C36.6388,28.737675 36.64965,28.7214 36.65895,28.705125 C36.6729,28.6811 36.684525,28.65785 36.695375,28.633825 C36.7039,28.616775 36.712425,28.599725 36.7194,28.582675 C36.729475,28.556325 36.738,28.529975 36.746525,28.5044 C36.75195,28.48735 36.758925,28.4703 36.763575,28.452475 C36.771325,28.423025 36.77675,28.393575 36.782175,28.36335 C36.7845,28.34785 36.788375,28.33235 36.7907,28.317625 C36.7969,28.271125 36.8,28.224625 36.8,28.178125 L36.8,20.621875 C36.8,20.5746 36.7969,20.5281 36.7907,20.48315 Z M25.465625,15.057375 L33.815475,20.623425 L30.086175,23.11815 L25.465625,20.02745 L25.465625,15.057375 Z M23.334375,15.057375 L23.334375,20.02745 L18.7146,23.11815 L14.984525,20.623425 L23.334375,15.057375 Z M14.13125,22.616725 L16.798025,24.4 L14.13125,26.183275 L14.13125,22.616725 Z M23.334375,33.742625 L14.984525,28.176575 L18.7146,25.682625 L23.334375,28.77255 L23.334375,33.742625 Z M24.4,26.921075 L20.631175,24.4 L24.4,21.878925 L28.1696,24.4 L24.4,26.921075 Z M25.465625,33.742625 L25.465625,28.77255 L30.086175,25.682625 L33.815475,28.176575 L25.465625,33.742625 Z M34.66875,26.183275 L32.00275,24.4 L34.66875,22.616725 L34.66875,26.183275 Z" id="Codepen" fill="#0B0B0A"></path>
        </g>
    </g>
</svg>