<?xml version="1.0" encoding="UTF-8"?>
<svg width="48px" height="48px" viewBox="0 0 48 48" version="1.1" xmlns="http://www.w3.org/2000/svg" xmlns:xlink="http://www.w3.org/1999/xlink">
    <!-- Generator: Sketch 50.2 (55047) - http://www.bohemiancoding.com/sketch -->
    <title>Confluence</title>
    <desc>Created with Sketch.</desc>
    <defs>
        <linearGradient x1="99.140087%" y1="112.708084%" x2="33.8589812%" y2="37.7549606%" id="linearGradient-1">
            <stop stop-color="#0052CC" offset="18%"></stop>
            <stop stop-color="#2684FF" offset="100%"></stop>
        </linearGradient>
        <linearGradient x1="7053.82653%" y1="-161634%" x2="6067.18134%" y2="-163895%" id="linearGradient-2">
            <stop stop-color="#0052CC" offset="18%"></stop>
            <stop stop-color="#2684FF" offset="100%"></stop>
        </linearGradient>
    </defs>
    <g id="Confluence" stroke="none" stroke-width="1" fill="none" fill-rule="evenodd">
        <g fill-rule="nonzero">
            <path d="M0,24 C0,10.7451654 10.7451654,0 24,0 C37.2548346,0 48,10.7451654 48,24 C48,37.2548346 37.2548346,48 24,48 C10.7451654,48 0,37.2548346 0,24 Z" id="back" fill="#FFFFFF"></path>
            <g id="Group-4" transform="translate(12.000000, 12.000000)">
                <path d="M0.868216448,17.5623557 C0.620597404,17.9661652 0.342502166,18.4347366 0.10631169,18.8080699 C-0.105097123,19.1653245 0.00839558987,19.626071 0.361549785,19.8442604 L5.31393074,22.8918794 C5.48776949,22.9992105 5.69743082,23.0322286 5.89584306,22.983521 C6.09425531,22.9348132 6.26479322,22.808461 6.36916883,22.6328318 C6.56726407,22.3014033 6.82250217,21.870927 7.10059741,21.4099747 C9.06250216,18.1718794 11.0358355,18.5680699 14.5939307,20.2671175 L19.504407,22.6023557 C19.6903841,22.6908754 19.904277,22.7003276 20.0973375,22.6285579 C20.290398,22.5567882 20.4461762,22.4099118 20.5291688,22.2214033 L22.8872641,16.8880699 C23.0538674,16.5071574 22.8843457,16.0630105 22.5063117,15.8899747 C21.4701212,15.4023557 19.4091688,14.430927 17.5539307,13.535689 C10.879645,10.2937842 5.20726407,10.503308 0.868216448,17.5623557 Z" id="Shape" fill="url(#linearGradient-1)"></path>
                <path d="M23.0739307,5.4594985 C23.3215498,5.05568898 23.599645,4.58711755 23.8358355,4.21378422 C24.0472443,3.85652967 23.9337516,3.39578314 23.5805974,3.17759374 L18.6282165,0.129974698 C18.4529593,0.0119334198 18.2365518,-0.0280246558 18.030697,0.0196470054 C17.8248421,0.0673186666 17.6480294,0.198338212 17.5425022,0.38140327 C17.344407,0.712831841 17.0891688,1.14330803 16.8110736,1.60426042 C14.8491688,4.84235565 12.8758355,4.44616518 9.31774024,2.74711755 L4.42250217,0.423308031 C4.23652504,0.334788219 4.0226321,0.325336046 3.8295716,0.39710575 C3.63651109,0.468875455 3.48073286,0.615751853 3.39774026,0.804260416 L1.03964502,6.13759374 C0.87304176,6.51850635 1.04256345,6.96265318 1.42059741,7.13568898 C2.45678788,7.62330803 4.51774026,8.59473664 6.37297836,9.48997472 C13.0625022,12.7280699 18.7348831,12.510927 23.0739307,5.4594985 Z" id="Shape" fill="url(#linearGradient-2)"></path>
            </g>
        </g>
    </g>
</svg>