<?xml version="1.0" encoding="UTF-8"?>
<svg width="48px" height="48px" viewBox="0 0 48 48" version="1.1" xmlns="http://www.w3.org/2000/svg" xmlns:xlink="http://www.w3.org/1999/xlink">
    <!-- Generator: Sketch 50.2 (55047) - http://www.bohemiancoding.com/sketch -->
    <title>Coub</title>
    <desc>Created with Sketch.</desc>
    <defs>
        <path d="M23.2,46.4 C36.0129954,46.4 46.4,36.0129954 46.4,23.2 C46.4,10.3870046 36.0129954,0 23.2,0 C10.3870046,0 0,10.3870046 0,23.2 C0,36.0129954 10.3870046,46.4 23.2,46.4 Z" id="path-1"></path>
        <path d="M11.4013371,44.4312 C4.55914286,40.2030514 0,32.6339657 0,24 C0,10.7451771 10.7451771,0 24,0 C37.2548229,0 48,10.7451771 48,24 C48,37.2548229 37.2548229,48 24,48 C23.3638971,48 22.7335543,47.9752457 22.1099314,47.9266629 L24.4708114,41.4402514 C24.8614286,40.3670057 26.1653829,38.9292686 27.3152571,37.6602171 C27.9735771,36.9356571 28.5410057,36.3089143 28.7576571,35.9405829 C29.8028914,34.1605371 32.9910171,28.8133371 33.0231771,28.7592 C33.6783429,27.8196686 34.7297143,26.2132457 35.3778171,25.1647543 L38.9180229,19.4131886 C39.5655771,18.3618171 39.6146057,17.0422971 39.0271886,16.4728114 C38.9239543,16.3733143 38.8030286,16.2977486 38.6681829,16.2486514 C38.0190857,16.0124229 37.1566629,16.3954286 36.5215543,17.2016571 L32.9627314,22.1642057 C32.5511314,22.6871657 32.0907771,23.1160114 31.6451657,23.5311771 C31.2744343,23.8765371 30.8917714,24.2343429 30.54912,24.6331886 L30.1855543,25.0583314 C30.1413257,25.1092457 30.07968,25.1405486 30.0126171,25.1449714 C29.9455543,25.1493943 29.8819886,25.1410629 29.82384,25.1199086 C29.6969143,25.0736914 29.4925371,24.9288 29.5479771,24.4768457 C29.5600457,24.4212343 30.1830171,21.80304 28.5308229,21.1054629 L28.4586171,21.0780343 C27.5656114,20.7530057 26.8543886,21.3114171 26.0649943,22.2504343 C25.9462629,22.3914857 25.7034171,22.4047543 25.5809486,22.3601829 C25.3388914,22.26 25.2319543,22.0454057 25.2881143,21.7958743 C25.5697714,20.5361143 25.0503771,19.3579886 24.0531771,18.9950057 L23.9764114,18.9694286 C23.1085371,18.6909257 22.0613143,19.0476 21.4333371,19.8396686 C21.4100914,19.8682286 21.38304,19.8910971 21.35112,19.9071429 C21.2263886,20.0261486 21.0122743,20.19168 20.7793714,20.1069257 C20.5299771,20.0161371 20.4706629,19.7125029 20.4482057,19.4916343 L20.4201257,19.2176914 C20.39304,18.9464229 20.3581714,18.6333943 20.3184686,18.2971886 C20.1936686,17.1984 20.0379086,15.8304343 20.0628343,14.9217257 L20.4456343,8.46387432 C20.4722057,7.52070857 20.0382514,6.71688 19.3664571,6.47235429 C19.1769257,6.40337143 18.97752,6.38184 18.7733486,6.40762286 C17.8235657,6.52978286 17.00784,7.60645714 16.9152343,8.85946288 L16.2103886,15.3886286 C16.1615314,16.0494857 16.1768571,16.9728343 16.19208,17.8653943 C16.2033943,18.5278629 16.2140914,19.1535086 16.1984229,19.65888 L16.1370171,21.7413257 C16.1150743,22.4427086 15.8911543,22.9455429 15.4703657,23.2357371 C15.2383543,23.39904 14.4575657,23.9601943 13.6131771,24.7474971 C13.5204686,24.8341371 13.4266286,24.9164571 13.33464,24.99792 C12.71136,25.55016 12.1738629,26.02728 12.1221257,27.6111086 C12.0948686,28.3549714 12.1293257,29.1111771 12.2365371,30.2218971 C12.3485143,31.3880571 12.6930857,32.1196457 13.0587086,32.89392 C13.5795429,33.9974057 14.6019771,35.6375314 13.9134857,37.5291086 C13.9079657,37.5442286 12.2478514,42.1054286 11.4013371,44.4312 Z" id="path-3"></path>
    </defs>
    <g id="Coub" stroke="none" stroke-width="1" fill="none" fill-rule="evenodd">
        <g>
            <g id="Group-3" transform="translate(0.800000, 1.600000)">
                <g id="Fill-1-Clipped">
                    <mask id="mask-2" fill="white">
                        <use xlink:href="#path-1"></use>
                    </mask>
                    <g id="path-1"></g>
                    <polygon id="Fill-1" fill="#FFFFFF" fill-rule="nonzero" mask="url(#mask-2)" points="-0.802742856 46.4006857 47.2027429 46.4006857 47.2027429 -1.60068571 -0.802742856 -1.60068571"></polygon>
                </g>
            </g>
            <g id="Group-6">
                <g id="Fill-4-Clipped">
                    <mask id="mask-4" fill="white">
                        <use xlink:href="#path-3"></use>
                    </mask>
                    <g id="path-3"></g>
                    <polygon id="Fill-4" fill="#0043FF" fill-rule="nonzero" mask="url(#mask-4)" points="-0.00274285714 48.0006857 48.0027429 48.0006857 48.0027429 -0.000685714286 -0.00274285714 -0.000685714286"></polygon>
                </g>
            </g>
        </g>
    </g>
</svg>