<?xml version="1.0" encoding="UTF-8"?>
<svg width="48px" height="48px" viewBox="0 0 48 48" version="1.1" xmlns="http://www.w3.org/2000/svg" xmlns:xlink="http://www.w3.org/1999/xlink">
    <!-- Generator: Sketch 50.2 (55047) - http://www.bohemiancoding.com/sketch -->
    <title>Dailymotion</title>
    <desc>Created with Sketch.</desc>
    <defs></defs>
    <g id="Dailymotion" stroke="none" stroke-width="1" fill="none" fill-rule="evenodd">
        <g fill-rule="nonzero">
            <circle id="Oval" fill="#0064DD" cx="24" cy="24" r="24"></circle>
            <g id="Square_Icon" transform="translate(16.800000, 12.000000)" fill="#FFFFFE">
                <path d="M10.042006,19.9350756 C7.43416861,19.9350756 5.56687245,18.0756657 5.56687245,15.628979 C5.56687245,13.2802318 7.43416861,11.2902795 9.8488508,11.2902795 C12.2312921,11.2902795 14.0663796,13.1823578 14.0663796,15.6942174 C14.0663796,18.1082686 12.2312921,19.9350756 10.042006,19.9350756 Z M18.96,0.24 L13.8732244,1.30794832 L13.8732244,8.94146688 C12.7141962,7.4408847 11.1044404,6.72322918 9.01174808,6.72322918 C6.82246202,6.72322918 4.85857212,7.5387587 3.24878398,9.13721488 C1.44590516,10.8988162 0.48,13.1496894 0.48,15.6616146 C0.48,18.4018579 1.51019342,20.7506378 3.50632426,22.5448094 C5.01951866,23.9149474 6.82246202,24.6 8.91515432,24.6 C10.975638,24.6 12.521041,24.0454242 14.0341709,22.5448094 L14.0341709,24.502126 L18.96,24.502126 L18.96,0.24 Z" id="Fill-3"></path>
            </g>
        </g>
    </g>
</svg>