<?xml version="1.0" encoding="UTF-8"?>
<svg width="48px" height="48px" viewBox="0 0 48 48" version="1.1" xmlns="http://www.w3.org/2000/svg" xmlns:xlink="http://www.w3.org/1999/xlink">
    <!-- Generator: Sketch 50.2 (55047) - http://www.bohemiancoding.com/sketch -->
    <title>Dribbble</title>
    <desc>Created with Sketch.</desc>
    <defs></defs>
    <g id="Dribbble" stroke="none" stroke-width="1" fill="none" fill-rule="evenodd">
        <g fill-rule="nonzero">
            <path d="M0,24 C0,10.7451654 10.7451654,0 24,0 C37.2548346,0 48,10.7451654 48,24 C48,37.2548346 37.2548346,48 24,48 C10.7451654,48 0,37.2548346 0,24 Z" id="back" fill="#F26798"></path>
            <path d="M36.8,23.982255 C36.8,24.847893 36.7118732,25.7123302 36.538776,26.5549551 C36.3699874,27.3775688 36.119986,28.1851741 35.792479,28.9572092 C35.4724872,29.7155867 35.075591,30.4463986 34.6118108,31.1279328 C34.1549444,31.8051646 33.6286387,32.4405226 33.050479,33.0196991 C32.4710668,33.5963742 31.833538,34.12122 31.1566302,34.5800286 C30.4728586,35.0405882 29.7409906,35.4369117 28.9821686,35.7583929 C28.2090177,36.0841765 27.399544,36.3338172 26.5776454,36.5023122 C25.733903,36.67586 24.8663127,36.7644599 23.9994238,36.7644599 C23.1318837,36.7644599 22.2643435,36.67586 21.4218035,36.5023122 C20.5986524,36.3338172 19.7892288,36.0841765 19.0166791,35.7583929 C18.2579072,35.4369117 17.5253378,35.0405882 16.8415662,34.5800286 C16.1646584,34.1212701 15.5271296,33.5963742 14.9489699,33.0196991 C14.370209,32.4405226 13.8439033,31.8051646 13.3863856,31.1279328 C12.9251103,30.4463986 12.5275629,29.7155366 12.2063186,28.9572092 C11.8787615,28.1851741 11.6281588,27.3775188 11.458769,26.5549551 C11.2875256,25.7123302 11.2,24.847893 11.2,23.982255 C11.2,23.1159667 11.2874754,22.2496784 11.4588191,21.4089045 C11.628209,20.5862908 11.8788116,19.7774349 12.2063686,19.0066504 C12.527613,18.2477226 12.9251604,17.5162603 13.3864357,16.8346761 C13.8439534,16.1568941 14.3702591,15.5227366 14.94902,14.9429098 C15.5271797,14.3661847 16.1647085,13.8425895 16.8416163,13.3844814 C17.5253878,12.9219706 18.2579573,12.5256973 19.0167293,12.2036157 C19.7892789,11.8771317 20.5986524,11.6268906 21.4218536,11.4596463 C22.2643936,11.2873993 23.1319338,11.2 23.9994739,11.2 C24.8663628,11.2 25.733903,11.2873993 26.5776955,11.4596463 C27.3995941,11.6269406 28.2090177,11.8771817 28.9822186,12.2036157 C29.7409906,12.5256472 30.4729087,12.9219706 31.1566803,13.3844814 C31.8335881,13.8425895 32.471167,14.3661847 33.0505291,14.9429098 C33.6286888,15.5227366 34.1549945,16.1568941 34.6118609,16.8346761 C35.075591,17.5162603 35.4724872,18.2477726 35.792479,19.0066504 C36.119986,19.7774349 36.3699874,20.5862908 36.538776,21.4089045 C36.7118732,22.2496784 36.8,23.1159667 36.8,23.982255 Z M19.3354185,14.1090898 C16.287104,15.5465 14.0119905,18.351331 13.3025674,21.7316364 C13.5907455,21.7341378 18.1459826,21.7915702 23.3943602,20.3990853 C21.5024152,17.0424933 19.4810606,14.3032492 19.3354185,14.1090898 Z M24.3000268,22.0799327 C18.671637,23.7625311 13.2707035,23.6414629 13.076965,23.6340087 C13.0738086,23.7513248 13.0681974,23.8648888 13.0681974,23.982255 C13.0681974,26.7864356 14.1276224,29.3428766 15.8689653,31.2758662 C15.8652078,31.270213 18.8566582,25.9707258 24.7556908,24.0659022 C24.8981766,24.0184754 25.0432175,23.9760014 25.1869558,23.9348282 C24.9126055,23.3144786 24.6131549,22.6928282 24.3000268,22.0799327 Z M31.2185544,15.7898872 C29.2940441,14.095332 26.7670754,13.0674526 23.9994238,13.0674526 C23.1112422,13.0674526 22.2493134,13.1748131 21.4236572,13.373275 C21.5873856,13.5929989 23.6406542,16.312932 25.5101041,19.7406141 C29.6347274,18.1965438 31.1916504,15.8298097 31.2185544,15.7898872 Z M25.9320003,25.7435478 C25.9076515,25.7516023 25.8833026,25.7585562 25.8595049,25.7672611 C19.4099023,28.0124441 17.3036972,32.5371318 17.2809091,32.5865243 C19.1366698,34.0276173 21.4642887,34.8970574 23.9994238,34.8970574 C25.5132103,34.8970574 26.9551526,34.5892838 28.2670842,34.0320198 C28.1052094,33.0783322 27.4701857,29.7354979 25.9320003,25.7435478 Z M30.1078766,33.0346576 C32.5623498,31.3807253 34.3055465,28.7543949 34.7918218,25.7122802 C34.5668206,25.6398894 31.5085361,24.6730944 27.9802087,25.2379628 C29.4140348,29.1725306 29.9966034,32.3768368 30.1078766,33.0346576 Z M26.3514417,21.367131 C26.6051506,21.8876743 26.8508434,22.417473 27.0776984,22.9499231 C27.1583602,23.1409308 27.2371182,23.3281863 27.3139724,23.5153918 C31.0691547,23.0435258 34.7687255,23.8374234 34.9268928,23.8698416 C34.9018926,21.282233 33.9749333,18.9073944 32.4411568,17.0481464 C32.4205154,17.077413 30.6672986,19.6070388 26.3514417,21.367131 Z" id="Path" fill="#FFFFFF"></path>
        </g>
    </g>
</svg>