<?xml version="1.0" encoding="UTF-8"?>
<svg width="48px" height="48px" viewBox="0 0 48 48" version="1.1" xmlns="http://www.w3.org/2000/svg" xmlns:xlink="http://www.w3.org/1999/xlink">
    <!-- Generator: Sketch 50.2 (55047) - http://www.bohemiancoding.com/sketch -->
    <title>Foursquare</title>
    <desc>Created with Sketch.</desc>
    <defs></defs>
    <g id="Foursquare" stroke="none" stroke-width="1" fill="none" fill-rule="evenodd">
        <g fill-rule="nonzero">
            <path d="M0,24 C0,10.7451654 10.7451654,0 24,0 C37.2548346,0 48,10.7451654 48,24 C48,37.2548346 37.2548346,48 24,48 C10.7451654,48 0,37.2548346 0,24 Z" id="back" fill="#FFFFFF"></path>
            <path d="M30.5306162,14.9510651 L29.9152742,17.9554538 C29.8449674,18.2754611 29.5460736,18.5598997 29.1768729,18.5598997 L23.8322516,18.5598997 C23.2344864,18.5598997 22.7422263,19.0576614 22.7422263,19.6621073 L22.7422263,20.3198727 C22.7422263,20.9243186 23.2344864,21.4220803 23.8322516,21.4220803 L28.3505879,21.4220803 C28.7725411,21.4220803 29.1241427,21.8309536 29.0362367,22.2753958 C28.9483307,22.7376338 28.4736697,25.084257 28.4208949,25.3331266 C28.3857414,25.5997919 28.1044467,25.9375725 27.6824935,25.9375725 L23.9904868,25.9375725 C23.2169097,25.9553457 23.0586968,25.9731188 22.6015901,26.5419958 C22.1444834,27.1108728 18.1008528,32.2308108 18.1008528,32.2308108 C18.0656994,32.2841303 18.0305459,32.2663572 18.0305459,32.2130377 L18.0305459,14.8088346 C18.0305459,14.3999838 18.3645708,14.0621807 18.7689473,14.0621807 L29.8625664,14.0621807 C30.2493438,14.0621807 30.6361212,14.4533034 30.5306162,14.9510651 M31.3393467,11.2 L17.6437462,11.2 C15.7625894,11.2 15.2,12.6399882 15.2,13.5466458 L15.2,35.5551618 C15.2,36.6395736 15.7450126,36.959581 16.0438841,37.0839932 C16.3427778,37.208428 17.1339094,37.297339 17.6964987,36.7284394 C17.6964987,36.7284394 24.2014746,29.0663507 24.3069573,28.9419159 C24.41244,28.8174586 24.4651702,28.8174586 24.5354994,28.8174586 L28.649437,28.8174586 C30.4075567,28.8174586 30.7415816,27.5908162 30.9349702,26.8441623 C31.0932055,26.2219432 32.904033,17.3332121 33.4666224,14.5243734 C33.888598,12.3555498 33.3435854,11.2 31.3393467,11.2" id="Shape" fill="#FA4778"></path>
        </g>
    </g>
</svg>