<?xml version="1.0" encoding="UTF-8"?>
<svg width="48px" height="48px" viewBox="0 0 48 48" version="1.1" xmlns="http://www.w3.org/2000/svg" xmlns:xlink="http://www.w3.org/1999/xlink">
    <!-- Generator: Sketch 50.2 (55047) - http://www.bohemiancoding.com/sketch -->
    <title>Jira</title>
    <desc>Created with Sketch.</desc>
    <defs>
        <linearGradient x1="98.0308675%" y1="0.160599572%" x2="58.8877062%" y2="40.7655246%" id="linearGradient-1">
            <stop stop-color="#0052CC" offset="18%"></stop>
            <stop stop-color="#2684FF" offset="100%"></stop>
        </linearGradient>
        <linearGradient x1="3739.42064%" y1="3462%" x2="2058.27826%" y2="5116%" id="linearGradient-2">
            <stop stop-color="#0052CC" offset="18%"></stop>
            <stop stop-color="#2684FF" offset="100%"></stop>
        </linearGradient>
    </defs>
    <g id="Jira" stroke="none" stroke-width="1" fill="none" fill-rule="evenodd">
        <g fill-rule="nonzero">
            <path d="M0,24 C0,10.7451654 10.7451654,0 24,0 C37.2548346,0 48,10.7451654 48,24 C48,37.2548346 37.2548346,48 24,48 C10.7451654,48 0,37.2548346 0,24 Z" id="back" fill="#FFFFFF"></path>
            <g id="Group" transform="translate(12.000000, 12.000000)">
                <path d="M22.9366666,0 L11.41,0 C11.41,1.3800098 11.9582067,2.70349799 12.934021,3.67931229 C13.9098354,4.65512658 15.2333235,5.20333334 16.6133334,5.20333334 L18.7366666,5.20333334 L18.7366666,7.25333334 C18.7385054,10.1244521 21.0655479,12.4514946 23.9366666,12.4533334 L23.9366666,1 C23.9366666,0.44771525 23.4889514,3.38176875e-17 22.9366666,0 Z" id="Shape" fill="#2684FF"></path>
                <path d="M17.2333334,5.74333334 L5.70666666,5.74333334 C5.70850536,8.61445208 8.03554792,10.9414946 10.9066666,10.9433334 L13.03,10.9433334 L13.03,13 C13.0336786,15.8711178 15.3622132,18.196669 18.2333334,18.1966666 L18.2333334,6.74333334 C18.2333334,6.19104858 17.7856181,5.74333334 17.2333334,5.74333334 Z" id="Shape" fill="url(#linearGradient-1)"></path>
                <path d="M11.5266666,11.4833334 L0,11.4833334 C3.51929402e-16,14.357055 2.32961169,16.6866666 5.20333334,16.6866666 L7.33333334,16.6866666 L7.33333334,18.7366666 C7.33516566,21.6051863 9.65815176,23.9311544 12.5266666,23.9366666 L12.5266666,12.4833334 C12.5266666,11.9310486 12.0789514,11.4833334 11.5266666,11.4833334 Z" id="Shape" fill="url(#linearGradient-2)"></path>
            </g>
        </g>
    </g>
</svg>