<?xml version="1.0" encoding="UTF-8"?>
<svg width="48px" height="48px" viewBox="0 0 48 48" version="1.1" xmlns="http://www.w3.org/2000/svg" xmlns:xlink="http://www.w3.org/1999/xlink">
    <!-- Generator: Sketch 50.2 (55047) - http://www.bohemiancoding.com/sketch -->
    <title>Kaixin001</title>
    <desc>Created with Sketch.</desc>
    <defs></defs>
    <g id="Kaixin001" stroke="none" stroke-width="1" fill="none" fill-rule="evenodd">
        <g fill-rule="nonzero">
            <path d="M0,24 C0,10.7451654 10.7451654,0 24,0 C37.2548346,0 48,10.7451654 48,24 C48,37.2548346 37.2548346,48 24,48 C10.7451654,48 0,37.2548346 0,24 Z" id="back" fill="#E94543"></path>
            <g id="Page-1" transform="translate(8.800000, 8.800000)">
                <path d="M26.39408,11.1872 C21.51008,11.2504 20.69168,9.3456 20.48288,8.4504 C20.23248,7.3744 20.31328,7.696 19.66608,4.4048 C18.93648,-0.344 16.06768,0.7456 16.06768,0.7456 C13.87728,1.112 10.66048,4.2024 9.93088,5.2976 C8.83568,6.3944 8.65488,7.4504 5.54848,6.004 C-0.41872,2.7136 0.07648,8.7208 0.07648,8.7208 C0.75008,13.2632 2.31888,15.2416 3.97888,16.8312 C2.99568,21.0144 3.24208,23.628 3.82608,26.1816 C4.93808,31.0376 7.95968,28.828 8.99808,28.0672 C10.03568,27.3048 12.35168,24.8856 12.35168,24.8856 C12.35168,24.8856 13.62128,26.5208 16.86688,28.4656 C22.67968,31.9488 23.90288,28.904 23.76448,26.412 C23.65168,24.3808 22.60128,20.1456 22.60128,20.1456 C26.29168,19.4152 28.30928,16.9544 28.30928,16.9544 C33.75248,11.4184 26.39408,11.1872 26.39408,11.1872" id="Fill-1" fill="#A32025"></path>
                <path d="M26.0948,10.45632 C21.254,10.51872 20.4428,8.63072 20.2364,7.74352 C19.9876,6.67712 20.0684,6.99552 19.426,3.73392 C18.7028,-0.97248 15.8596,0.10672 15.8596,0.10672 C13.6876,0.46992 10.5004,3.53312 9.7772,4.61872 C8.6916,5.70592 8.5116,6.75232 5.4332,5.31952 C-0.4812,2.05712 0.01,8.01232 0.01,8.01232 C0.678,12.51392 2.2324,14.47552 3.878,16.05072 C2.9028,20.19712 3.146,22.78832 3.726,25.31872 C4.8284,30.13152 7.8228,27.94112 8.8516,27.18752 C9.8804,26.43232 12.1772,24.03392 12.1772,24.03392 C12.1772,24.03392 13.4348,25.65472 16.6516,27.58192 C22.4132,31.03472 23.626,28.01632 23.4884,25.54752 C23.3772,23.53392 22.3356,19.33552 22.3356,19.33552 C25.994,18.61232 27.9924,16.17312 27.9924,16.17312 C33.3884,10.68512 26.0948,10.45632 26.0948,10.45632" id="Fill-2" fill="#F5D53A"></path>
                <path d="M6.89016,14.99504 C6.89016,14.99504 7.74296,18.71584 11.36536,20.06384 C14.90936,21.38304 18.84616,17.84944 18.84616,17.84944 C18.84616,17.84944 15.50456,22.80064 10.90536,21.17264 C7.35096,19.91424 6.89016,14.99504 6.89016,14.99504" id="Fill-3" fill="#764921"></path>
                <path d="M14.18232,11.38912 C13.60472,13.54832 12.07752,15.01552 10.77192,14.66592 C9.46632,14.31632 8.87672,12.28272 9.45512,10.12352 C10.03192,7.96512 11.55992,6.49712 12.86552,6.84672 C14.17112,7.19712 14.76152,9.22992 14.18232,11.38912" id="Fill-4" fill="#FFFFFF"></path>
                <path d="M18.78624,12.54776 C18.20784,14.70696 16.68144,16.17416 15.37584,15.82456 C14.06944,15.47496 13.47984,13.44136 14.05824,11.28216 C14.63584,9.12376 16.16304,7.65576 17.46864,8.00536 C18.77424,8.35576 19.36464,10.38856 18.78624,12.54776" id="Fill-5" fill="#FFFFFF"></path>
                <path d="M18.4964,10.9356 C18.3164,12.0324 17.6524,12.8364 17.0132,12.7316 C16.374,12.6276 16.0004,11.654 16.1796,10.5564 C16.3588,9.4596 17.022,8.6556 17.662,8.7604 C18.302,8.8652 18.6756,9.838 18.4964,10.9356" id="Fill-6" fill="#313638"></path>
                <path d="M13.79096,9.96024 C13.61176,11.05704 12.94776,11.86104 12.30776,11.75704 C11.66856,11.65224 11.29496,10.67864 11.47416,9.58184 C11.65336,8.48504 12.31736,7.68024 12.95656,7.78504 C13.59656,7.88984 13.97096,8.86264 13.79096,9.96024" id="Fill-7" fill="#313638"></path>
                <path d="M13.58776,9.4048 C13.58776,9.7072 13.37336,9.9536 13.10936,9.9536 C12.84616,9.9536 12.63256,9.7072 12.63256,9.4048 C12.63256,9.1016 12.84616,8.856 13.10936,8.856 C13.37336,8.856 13.58776,9.1016 13.58776,9.4048" id="Fill-8" fill="#FFFFFF"></path>
                <path d="M18.29328,10.3196 C18.29328,10.6228 18.07888,10.8684 17.81568,10.8684 C17.55168,10.8684 17.33808,10.6228 17.33808,10.3196 C17.33808,10.0172 17.55168,9.7708 17.81568,9.7708 C18.07888,9.7708 18.29328,10.0172 18.29328,10.3196" id="Fill-9" fill="#FFFFFF"></path>
                <path d="M7.93232,11.95048 C7.93232,13.05288 7.09952,13.94728 6.07312,13.94728 C5.04592,13.94728 4.21392,13.05288 4.21392,11.95048 C4.21392,10.84728 5.04592,9.95368 6.07312,9.95368 C7.09952,9.95368 7.93232,10.84728 7.93232,11.95048" id="Fill-10" fill="#EF7B1D"></path>
                <path d="M22.93152,15.68488 C22.93152,16.78728 22.09872,17.68168 21.07232,17.68168 C20.04512,17.68168 19.21312,16.78728 19.21312,15.68488 C19.21312,14.58168 20.04512,13.68808 21.07232,13.68808 C22.09872,13.68808 22.93152,14.58168 22.93152,15.68488" id="Fill-11" fill="#EF7B1D"></path>
            </g>
        </g>
    </g>
</svg>