<?xml version="1.0" encoding="UTF-8"?>
<svg width="48px" height="48px" viewBox="0 0 48 48" version="1.1" xmlns="http://www.w3.org/2000/svg" xmlns:xlink="http://www.w3.org/1999/xlink">
    <!-- Generator: Sketch 50.2 (55047) - http://www.bohemiancoding.com/sketch -->
    <title>Kickstarter</title>
    <desc>Created with Sketch.</desc>
    <defs></defs>
    <g id="Kickstarter" stroke="none" stroke-width="1" fill="none" fill-rule="evenodd">
        <g fill-rule="nonzero">
            <circle id="Oval" fill="#2BDE73" cx="24" cy="24" r="24"></circle>
            <path d="M21.3976593,20.1790207 L25.799097,13.8021304 C26.631254,12.6007102 27.7053785,12 29.0225222,12 C30.0969098,12 31.0263798,12.3810985 31.8125105,13.1435585 C32.5978522,13.9060185 32.990523,14.818656 32.990523,15.881471 C32.990523,16.6670758 32.7830096,17.3603647 32.3669311,17.9610748 L28.3984043,23.7314688 L33.2506378,29.8832244 C33.7358874,30.4955069 33.9783807,31.2119405 33.9783807,32.0319993 C33.9783807,33.1182221 33.5975452,34.0505852 32.8348222,34.8304037 C32.0723623,35.6104853 31.1476264,36 30.0621926,36 C28.8720818,36 27.9654934,35.6133784 27.3413756,34.839083 L21.3976593,27.4225223 L21.3976593,31.5122956 C21.3976593,32.6792618 21.1956692,33.5858502 20.791163,34.2328497 C20.0518477,35.4108622 18.9774602,36 17.5682638,36 C16.285837,36 15.29193,35.566826 14.5875948,34.7004778 C13.929023,33.9033007 13.6,32.8460088 13.6,31.5296542 L13.6,16.3667207 C13.6,15.119011 13.9345461,14.0911761 14.6049534,13.2824266 C15.3095516,12.4276509 16.2797878,12 17.5159251,12 C18.6944637,12 19.6762722,12.4276509 20.461877,13.2824266 C20.9008372,13.755841 21.1780476,14.2353044 21.2935082,14.7205541 C21.3629422,15.0211722 21.3976593,15.581116 21.3976593,16.4014378 L21.3976593,20.1790207" id="K" fill="#FFFFFF"></path>
        </g>
    </g>
</svg>