<?xml version="1.0" encoding="UTF-8"?>
<svg width="48px" height="48px" viewBox="0 0 48 48" version="1.1" xmlns="http://www.w3.org/2000/svg" xmlns:xlink="http://www.w3.org/1999/xlink">
    <!-- Generator: Sketch 50.2 (55047) - http://www.bohemiancoding.com/sketch -->
    <title>Line</title>
    <desc>Created with Sketch.</desc>
    <defs></defs>
    <g id="Line" stroke="none" stroke-width="1" fill="none" fill-rule="evenodd">
        <g fill-rule="nonzero">
            <path d="M0,24 C0,10.7451654 10.7451654,0 24,0 C37.2548346,0 48,10.7451654 48,24 C48,37.2548346 37.2548346,48 24,48 C10.7451654,48 0,37.2548346 0,24 Z" id="back" fill="#00B900"></path>
            <path d="M24.3998582,11.2 C16.239849,11.2 9.6,16.5489535 9.6,23.1237441 C9.6,29.0180147 14.8652359,33.9543186 21.9774751,34.88778 C22.4595118,34.990872 23.1154674,35.2032528 23.2814424,35.6122406 C23.4306779,35.9837662 23.3790413,36.5657008 23.329107,36.9408881 C23.329107,36.9408881 23.1554716,37.9777231 23.1180209,38.1985541 C23.053617,38.5700796 22.8206846,39.6514188 24.3998582,38.9906161 C25.9795991,38.3298133 32.9233099,34.008118 36.0283181,30.4598943 C38.1726577,28.1248325 39.2,25.755125 39.2,23.1237441 C39.2,16.5489535 32.5610022,11.2 24.3998582,11.2 Z" id="Fill-1" fill="#FFFFFF"></path>
            <path d="M20.2858749,20 C20.1281799,20 20,20.1323209 20,20.2948865 L20,26.9051135 C20,27.0679699 20.1281799,27.2 20.2858749,27.2 L21.3144062,27.2 C21.4721012,27.2 21.6,27.0679699 21.6,26.9051135 L21.6,20.2948865 C21.6,20.1323209 21.4721012,20 21.3144062,20 L20.2858749,20 Z" id="Fill-2" fill="#00B900"></path>
            <path d="M28.4993527,20 L27.4166081,20 C27.250601,20 27.1159608,20.1323209 27.1159608,20.2948865 L27.1159608,24.2220534 L24.0337341,20.1311576 C24.0266322,20.1206882 24.0186425,20.1108006 24.010357,20.1012037 L24.0082855,20.0994588 C24.0023673,20.09277 23.996449,20.0869537 23.9902349,20.0811374 C23.9884594,20.0793925 23.9866839,20.0779385 23.9846126,20.0761935 C23.979582,20.0715405 23.9742556,20.0671783 23.9686333,20.0631069 C23.9662659,20.0607803 23.9636027,20.0590354 23.9609395,20.0569998 C23.9556131,20.05351 23.9505826,20.0497294 23.9452562,20.0465304 C23.942297,20.0444947 23.9393379,20.0427498 23.9360829,20.0412958 C23.9307564,20.0380968 23.92543,20.0348978 23.9201036,20.0322805 C23.9168486,20.0308264 23.9138894,20.0290815 23.9106344,20.0279182 C23.905012,20.0253009 23.8993897,20.0226836 23.8934714,20.0206478 C23.8899205,20.0194846 23.8869614,20.0183214 23.8837063,20.0171581 C23.8777881,20.0151224 23.8718698,20.0130866 23.8656556,20.0116326 C23.8624006,20.0104694 23.8588496,20.0098877 23.8552987,20.0087245 C23.8493804,20.0075612 23.8437581,20.0061071 23.8381358,20.0049438 C23.833993,20.0043622 23.8295543,20.0037806 23.8254115,20.0034898 C23.820085,20.0023266 23.8147586,20.0020357 23.8094322,20.0014541 C23.8044017,20.0008725 23.7993712,20.0008725 23.7940447,20.0005816 C23.7901979,20.0005816 23.7872388,20 23.7833919,20 L22.7009432,20 C22.5349362,20 22.4,20.1323209 22.4,20.2948865 L22.4,26.9051135 C22.4,27.0679699 22.5349362,27.2 22.7009432,27.2 L23.7833919,27.2 C23.9496949,27.2 24.0843351,27.0679699 24.0843351,26.9051135 L24.0843351,22.9791098 L27.1704087,27.0752403 C27.1917145,27.1049034 27.2180506,27.1290411 27.2467542,27.1482349 C27.2476419,27.1488166 27.2488256,27.149689 27.2497134,27.1505614 C27.2559275,27.154342 27.2621417,27.1581226 27.2683558,27.1616124 C27.271315,27.1633573 27.2739782,27.1645206 27.2769373,27.1659746 C27.281376,27.168592 27.2864065,27.1709185 27.2911411,27.1729542 C27.2961716,27.1749899 27.3006103,27.1770256 27.3059367,27.1790613 C27.3088958,27.1802246 27.311855,27.1813878 27.3148142,27.1822602 C27.321916,27.1848776 27.3284261,27.1869134 27.3352321,27.188949 C27.3367117,27.188949 27.3381912,27.1895306 27.3396708,27.1898214 C27.3642315,27.1962194 27.3899759,27.2 27.4166081,27.2 L28.4993527,27.2 C28.6656556,27.2 28.8,27.0679699 28.8,26.9051135 L28.8,20.2948865 C28.8,20.1323209 28.6656556,20 28.4993527,20" id="Fill-3" fill="#00B900"></path>
            <path d="M18.907623,25.5447474 L16.0409443,25.5447474 L16.0409443,20.2954562 C16.0409443,20.1323155 15.9097495,20 15.748279,20 L14.6929537,20 C14.5311948,20 14.4,20.1323155 14.4,20.2954562 L14.4,26.904253 L14.4,26.9048346 C14.4,26.9842239 14.4314291,27.0560523 14.4818886,27.1089786 C14.483042,27.1104326 14.4841954,27.1118866 14.4859254,27.1133406 C14.4873671,27.1147946 14.4888088,27.1159578 14.4902505,27.1174118 C14.5430167,27.1685932 14.6139485,27.2 14.6926654,27.2 L18.907623,27.2 C19.0693818,27.2 19.2,27.0673937 19.2,26.904253 L19.2,25.8402036 C19.2,25.6770629 19.0693818,25.5447474 18.907623,25.5447474" id="Fill-4" fill="#00B900"></path>
            <path d="M34.107623,21.6552526 C34.2693818,21.6552526 34.4,21.5232279 34.4,21.3597964 L34.4,20.295747 C34.4,20.1326063 34.2693818,20 34.107623,20 L29.8929537,20 L29.892377,20 C29.8133718,20 29.7421518,20.0319884 29.6893854,20.0834606 C29.6882321,20.0846238 29.6867904,20.0854962 29.6859254,20.0866594 C29.6841954,20.0884042 29.6827537,20.090149 29.6813119,20.0918938 C29.6311407,20.1448201 29.6,20.2163577 29.6,20.2954562 L29.6,20.295747 L29.6,26.9045438 L29.6,26.9048346 C29.6,26.9842239 29.6314291,27.0560523 29.6818886,27.1089786 C29.683042,27.1104326 29.6844837,27.1121774 29.6859254,27.1133406 C29.6870787,27.1147946 29.6888088,27.1162486 29.6902505,27.1174118 C29.7427284,27.1683024 29.8139485,27.2 29.892377,27.2 L34.107623,27.2 C34.2693818,27.2 34.4,27.0673937 34.4,26.9045438 L34.4,25.8402036 C34.4,25.6773537 34.2693818,25.5447474 34.107623,25.5447474 L31.2412326,25.5447474 L31.2412326,24.4274809 L34.107623,24.4274809 C34.2693818,24.4274809 34.4,24.2951654 34.4,24.1320247 L34.4,23.0679753 C34.4,22.9048346 34.2693818,22.7722283 34.107623,22.7722283 L31.2412326,22.7722283 L31.2412326,21.6552526 L34.107623,21.6552526 Z" id="Fill-5" fill="#00B900"></path>
        </g>
    </g>
</svg>