<?xml version="1.0" encoding="UTF-8"?>
<svg width="48px" height="48px" viewBox="0 0 48 48" version="1.1" xmlns="http://www.w3.org/2000/svg" xmlns:xlink="http://www.w3.org/1999/xlink">
    <!-- Generator: Sketch 50.2 (55047) - http://www.bohemiancoding.com/sketch -->
    <title>Love</title>
    <desc>Created with Sketch.</desc>
    <defs></defs>
    <g id="Love" stroke="none" stroke-width="1" fill="none" fill-rule="evenodd">
        <g fill-rule="nonzero">
            <path d="M0,24 C0,10.7451654 10.7451654,0 24,0 C37.2548346,0 48,10.7451654 48,24 C48,37.2548346 37.2548346,48 24,48 C10.7451654,48 0,37.2548346 0,24 Z" id="back" fill="#FFFFFF"></path>
            <path d="M24.3491378,18.3446386 C26.8531378,13.5830386 32.6691378,13.5830386 35.1731378,15.9638386 C37.6771378,18.3446386 38.4771378,23.1054386 35.9731378,27.8678386 C34.2211378,31.4358386 28.1091378,35.0118386 24.3491378,37.3878386 C20.5891378,35.0118386 14.4771378,31.4358386 12.7251378,27.8678386 C10.2211378,23.1054386 11.0211378,18.3446386 13.5251378,15.9638386 C16.0291378,13.5830386 21.8451378,13.5830386 24.3491378,18.3446386 Z" id="Shape" fill="#EB1919"></path>
        </g>
    </g>
</svg>