<?xml version="1.0" encoding="UTF-8"?>
<svg width="48px" height="48px" viewBox="0 0 48 48" version="1.1" xmlns="http://www.w3.org/2000/svg" xmlns:xlink="http://www.w3.org/1999/xlink">
    <!-- Generator: Sketch 50.2 (55047) - http://www.bohemiancoding.com/sketch -->
    <title>Marvel</title>
    <desc>Created with Sketch.</desc>
    <defs></defs>
    <g id="Marvel" stroke="none" stroke-width="1" fill="none" fill-rule="evenodd">
        <g fill-rule="nonzero">
            <circle id="Oval" fill="#1FB6FF" cx="24" cy="24" r="24"></circle>
            <path d="M21.8179746,19.0738867 C23.4674546,19.0916912 20.5635126,27.606159 20.875242,31.3076818 C21.1896874,35.0420975 25.3450736,33.9668875 25.0813258,31.8170712 C24.6325923,28.162323 27.0808602,16.7101147 29.5638318,16.7101147 C31.3059555,16.7101147 27.6343082,24.6050468 28.3567478,29.6606158 C28.8347531,33.0054452 33.1733143,31.8451358 32.7324269,29.861897 C31.2739678,23.2983785 35.7926863,16.9904599 35.2863146,12.5212319 C35.0648147,10.565756 33.8821743,9.60944384 32.6992321,9.60008896 C28.5574256,9.56840296 25.3580498,18.0146706 25.3580498,18.0146706 C25.3580498,18.0146706 25.6912049,13.2140981 22.472214,13.0378638 C17.5436906,12.7677788 12.6646575,25.0332598 12.8028686,35.9851318 C12.8469272,39.4790361 17.2198902,38.8839437 16.9899408,36.0982959 C16.5623314,30.9177937 19.4668769,19.0488398 21.8179746,19.0738867 Z" id="m" fill="#FFFFFF"></path>
        </g>
    </g>
</svg>