<?xml version="1.0" encoding="UTF-8"?>
<svg width="48px" height="48px" viewBox="0 0 48 48" version="1.1" xmlns="http://www.w3.org/2000/svg" xmlns:xlink="http://www.w3.org/1999/xlink">
    <!-- Generator: Sketch 50.2 (55047) - http://www.bohemiancoding.com/sketch -->
    <title>Mastercard</title>
    <desc>Created with Sketch.</desc>
    <defs></defs>
    <g id="Mastercard" stroke="none" stroke-width="1" fill="none" fill-rule="evenodd">
        <g fill-rule="nonzero">
            <circle id="Oval" fill="#FFFFFF" cx="24" cy="24" r="24"></circle>
            <g id="g3110" transform="translate(9.600000, 15.200000)">
                <path d="M28.7789044,8.91567392 C28.7789044,13.8385981 24.7956296,17.8294173 19.8820102,17.8294173 C14.9683909,17.8294173 10.9851149,13.8385981 10.9851149,8.91567392 C10.9851149,3.99274899 14.9683909,0.00193009041 19.8820102,0.00193009041 C24.7956296,0.00193009041 28.7789044,3.99274899 28.7789044,8.91567392 Z" id="path2997" fill="#F79F1A"></path>
                <path d="M17.803235,8.91567392 C17.803235,13.8385981 13.8199602,17.8294173 8.9063408,17.8294173 C3.99272146,17.8294173 0.00944548496,13.8385981 0.00944548496,8.91567392 C0.00944548496,3.99274899 3.99272146,0.00193009041 8.9063408,0.00193009041 C13.8199602,0.00193009041 17.803235,3.99274899 17.803235,8.91567392 Z" id="path2995" fill="#EA001B"></path>
                <path d="M14.3941935,1.89870968 C12.318323,3.53052622 10.9858065,6.06627035 10.9858065,8.91483872 C10.9858065,11.763407 12.318323,14.3010866 14.3941935,15.9329032 C16.4700641,14.3010866 17.8025806,11.763407 17.8025806,8.91483872 C17.8025806,6.06627035 16.4700641,3.53052622 14.3941935,1.89870968 Z" id="path2999" fill="#FF5F01"></path>
            </g>
        </g>
    </g>
</svg>