<?xml version="1.0" encoding="UTF-8"?>
<svg width="48px" height="48px" viewBox="0 0 48 48" version="1.1" xmlns="http://www.w3.org/2000/svg" xmlns:xlink="http://www.w3.org/1999/xlink">
    <!-- Generator: Sketch 50.2 (55047) - http://www.bohemiancoding.com/sketch -->
    <title>Netflix</title>
    <desc>Created with Sketch.</desc>
    <defs></defs>
    <g id="Netflix" stroke="none" stroke-width="1" fill="none" fill-rule="evenodd">
        <g fill-rule="nonzero">
            <path d="M0,24 C0,10.7451654 10.7451654,0 24,0 C37.2548346,0 48,10.7451654 48,24 C48,37.2548346 37.2548346,48 24,48 C10.7451654,48 0,37.2548346 0,24 Z" id="back" fill="#FFFFFF"></path>
            <path d="M21.1524,37.8294 L21.1524,21.948 L26.5236,37.1886 C28.1742,37.0014 29.8284,36.8286 31.4862,36.663 L31.4862,9.6 L27.132,9.6 L27.132,26.0484 L21.3396,9.6 L16.8,9.6 L16.8,38.4 L16.8288,38.4 C18.2688,38.202 19.7088,38.0112 21.1524,37.8294" id="Shape" fill="#E50A13"></path>
        </g>
    </g>
</svg>