<?xml version="1.0" encoding="UTF-8"?>
<svg width="48px" height="48px" viewBox="0 0 48 48" version="1.1" xmlns="http://www.w3.org/2000/svg" xmlns:xlink="http://www.w3.org/1999/xlink">
    <!-- Generator: Sketch 50.2 (55047) - http://www.bohemiancoding.com/sketch -->
    <title>PayPal</title>
    <desc>Created with Sketch.</desc>
    <defs></defs>
    <g id="PayPal" stroke="none" stroke-width="1" fill="none" fill-rule="evenodd">
        <g fill-rule="nonzero">
            <path d="M0,24 C0,10.7451654 10.7451654,0 24,0 C37.2548346,0 48,10.7451654 48,24 C48,37.2548346 37.2548346,48 24,48 C10.7451654,48 0,37.2548346 0,24 Z" id="back" fill="#FFFFFF"></path>
            <g id="Shape" transform="translate(14.400000, 12.800000)">
                <path d="M5.8128,23.3232 L6.2312,20.6656 L5.2992,20.644 L0.8488,20.644 L3.9416,1.0336 C3.9512,0.9744 3.9824,0.9192 4.028,0.88 C4.0736,0.8408 4.132,0.8192 4.1928,0.8192 L11.6968,0.8192 C14.188,0.8192 15.9072,1.3376 16.8048,2.3608 C17.2256,2.8408 17.4936,3.3424 17.6232,3.8944 C17.7592,4.4736 17.7616,5.1656 17.6288,6.0096 L17.6192,6.0712 L17.6192,6.612 L18.04,6.8504 C18.3944,7.0384 18.676,7.2536 18.892,7.5 C19.252,7.9104 19.4848,8.432 19.5832,9.0504 C19.6848,9.6864 19.6512,10.4432 19.4848,11.3 C19.2928,12.2856 18.9824,13.144 18.5632,13.8464 C18.1776,14.4936 17.6864,15.0304 17.1032,15.4464 C16.5464,15.8416 15.8848,16.1416 15.1368,16.3336 C14.412,16.5224 13.5856,16.6176 12.6792,16.6176 L12.0952,16.6176 C11.6776,16.6176 11.272,16.768 10.9536,17.0376 C10.6344,17.3128 10.4232,17.6888 10.3584,18.1 L10.3144,18.3392 L9.5752,23.0232 L9.5416,23.1952 C9.5328,23.2496 9.5176,23.2768 9.4952,23.2952 C9.4752,23.312 9.4464,23.3232 9.4184,23.3232 L5.8128,23.3232 Z" fill="#253B80"></path>
                <path d="M18.4384,6.1336 C18.416,6.2768 18.3904,6.4232 18.3616,6.5736 C17.372,11.6544 13.9864,13.4096 9.6624,13.4096 L7.4608,13.4096 C6.932,13.4096 6.4864,13.7936 6.404,14.3152 L5.2768,21.464 L4.9576,23.4904 C4.904,23.8328 5.168,24.1416 5.5136,24.1416 L9.4184,24.1416 C9.8808,24.1416 10.2736,23.8056 10.3464,23.3496 L10.3848,23.1512 L11.12,18.4856 L11.1672,18.2296 C11.2392,17.772 11.6328,17.436 12.0952,17.436 L12.6792,17.436 C16.4624,17.436 19.424,15.9 20.2896,11.4552 C20.6512,9.5984 20.464,8.048 19.5072,6.9576 C19.2176,6.6288 18.8584,6.356 18.4384,6.1336 Z" fill="#179BD7"></path>
                <path d="M17.4032,5.7208 C17.252,5.6768 17.096,5.6368 16.936,5.6008 C16.7752,5.5656 16.6104,5.5344 16.4408,5.5072 C15.8472,5.4112 15.1968,5.3656 14.5,5.3656 L8.6184,5.3656 C8.4736,5.3656 8.336,5.3984 8.2128,5.4576 C7.9416,5.588 7.74,5.8448 7.6912,6.1592 L6.44,14.084 L6.404,14.3152 C6.4864,13.7936 6.932,13.4096 7.4608,13.4096 L9.6624,13.4096 C13.9864,13.4096 17.372,11.6536 18.3616,6.5736 C18.3912,6.4232 18.416,6.2768 18.4384,6.1336 C18.188,6.0008 17.9168,5.8872 17.6248,5.7904 C17.5528,5.7664 17.4784,5.7432 17.4032,5.7208 Z" fill="#222D65"></path>
                <path d="M8.2128,5.4584 C8.3368,5.3992 8.4736,5.3664 8.6184,5.3664 L14.5,5.3664 C15.1968,5.3664 15.8472,5.412 16.4408,5.508 C16.6104,5.5352 16.7752,5.5664 16.936,5.6016 C17.096,5.6376 17.252,5.6776 17.4032,5.7216 C17.4784,5.744 17.5528,5.7672 17.6256,5.7904 C17.9176,5.8872 18.1888,6.0016 18.4392,6.1336 C18.7336,4.256 18.4368,2.9776 17.4216,1.82 C16.3024,0.5456 14.2824,0 11.6976,0 L4.1936,0 C3.6656,0 3.2152,0.384 3.1336,0.9064 L0.008,20.7184 C-0.0536,21.1104 0.2488,21.464 0.644,21.464 L5.2768,21.464 L6.44,14.084 L7.6912,6.1592 C7.74,5.8448 7.9416,5.588 8.2128,5.4584 Z" fill="#253B80"></path>
            </g>
        </g>
    </g>
</svg>