<?xml version="1.0" encoding="UTF-8"?>
<svg width="48px" height="48px" viewBox="0 0 48 48" version="1.1" xmlns="http://www.w3.org/2000/svg" xmlns:xlink="http://www.w3.org/1999/xlink">
    <!-- Generator: Sketch 50.2 (55047) - http://www.bohemiancoding.com/sketch -->
    <title>Pinterest</title>
    <desc>Created with Sketch.</desc>
    <defs></defs>
    <g id="Pinterest" stroke="none" stroke-width="1" fill="none" fill-rule="evenodd">
        <g fill-rule="nonzero">
            <ellipse id="Oval" fill="#FFFFFF" cx="24" cy="23.9016393" rx="24" ry="23.9016393"></ellipse>
            <path d="M24,0 C10.745679,0 0,10.7016393 0,23.9016393 C0,34.0327869 6.32098765,42.6885246 15.2493827,46.1704918 C15.0320988,44.2819672 14.854321,41.3704918 15.3283951,39.304918 C15.762963,37.4360656 18.1333333,27.4229508 18.1333333,27.4229508 C18.1333333,27.4229508 17.4222222,25.9868852 17.4222222,23.8819672 C17.4222222,20.557377 19.3580247,18.0786885 21.7679012,18.0786885 C23.8222222,18.0786885 24.8098765,19.6131148 24.8098765,21.442623 C24.8098765,23.4885246 23.5061728,26.557377 22.8148148,29.4098361 C22.2419753,31.7901639 24.0197531,33.7377049 26.3703704,33.7377049 C30.637037,33.7377049 33.9160494,29.252459 33.9160494,22.8 C33.9160494,17.0754098 29.7876543,13.0819672 23.8814815,13.0819672 C17.0469136,13.0819672 13.037037,18.1770492 13.037037,23.4491803 C13.037037,25.495082 13.8271605,27.6983607 14.8148148,28.8983607 C15.0123457,29.1344262 15.0320988,29.3508197 14.9728395,29.5868852 C14.7950617,30.3344262 14.3802469,31.9672131 14.3012346,32.3016393 C14.2024691,32.7344262 13.945679,32.8327869 13.491358,32.6163934 C10.4888889,31.2196721 8.61234568,26.8721311 8.61234568,23.3508197 C8.61234568,15.8163934 14.1037037,8.89180328 24.4740741,8.89180328 C32.7901235,8.89180328 39.2691358,14.7934426 39.2691358,22.7016393 C39.2691358,30.9442623 34.054321,37.5737705 26.8246914,37.5737705 C24.3950617,37.5737705 22.1037037,36.3147541 21.3333333,34.8196721 C21.3333333,34.8196721 20.1283951,39.3836066 19.8320988,40.504918 C19.2987654,42.5901639 17.837037,45.1868852 16.8493827,46.7803279 C19.1012346,47.4688525 21.4716049,47.842623 23.9604938,47.842623 C37.2148148,47.842623 47.9604938,37.1409836 47.9604938,23.9409836 C48,10.7016393 37.254321,0 24,0 Z" id="Shape" fill="#E60019"></path>
        </g>
    </g>
</svg>