<?xml version="1.0" encoding="UTF-8"?>
<svg width="48px" height="48px" viewBox="0 0 48 48" version="1.1" xmlns="http://www.w3.org/2000/svg" xmlns:xlink="http://www.w3.org/1999/xlink">
    <!-- Generator: Sketch 50.2 (55047) - http://www.bohemiancoding.com/sketch -->
    <title>Reddit</title>
    <desc>Created with Sketch.</desc>
    <defs></defs>
    <g id="Reddit" stroke="none" stroke-width="1" fill="none" fill-rule="evenodd">
        <g fill-rule="nonzero">
            <path d="M24,48 C37.254834,48 48,37.254834 48,24 C48,10.745166 37.254834,0 24,0 C10.745166,0 0,10.745166 0,24 C0,37.254834 10.745166,48 24,48 Z" id="Oval" fill="#FF5700"></path>
            <g id="Group" transform="translate(7.200000, 9.600000)" fill="#FFFFFF">
                <path d="M34.4,14.0874811 C34.4,11.8924541 32.6065091,10.1064649 30.4013909,10.1064649 C29.3928454,10.1064649 28.4726454,10.4835892 27.7686182,11.0992865 C25.2632818,9.49699456 21.9511091,8.45435672 18.2832091,8.27182704 L20.2119546,2.20242162 L25.4743727,3.43615135 C25.5334,5.20423784 26.9926636,6.62594594 28.7834182,6.62594594 C30.6109182,6.62594594 32.0979364,5.14585946 32.0979364,3.32601081 C32.0979364,1.50616216 30.6105273,0.0260756757 28.7834182,0.0260756757 C27.4558909,0.0260756757 26.3117,0.808735136 25.7824091,1.93271351 L19.8691273,0.547589189 C19.4774364,0.45612973 19.0794909,0.680691892 18.9594818,1.06287567 L16.6761818,8.24808648 C12.771,8.3243676 9.22819088,9.3744 6.57313636,11.0467459 C5.87692727,10.4614054 4.97822727,10.1064649 3.99860909,10.1064649 C1.79349091,10.1068541 0,11.8924541 0,14.0874811 C0,15.4850594 0.728654546,16.7137298 1.82554546,17.4236108 C1.76964546,17.7801081 1.73954546,18.1412757 1.73954546,18.5067243 C1.73954546,24.1674811 8.643,28.7731459 17.1296364,28.7731459 C25.6154909,28.7731459 32.5197273,24.1674811 32.5197273,18.5067243 C32.5197273,18.1677406 32.4939273,17.8326486 32.4458454,17.5010594 C33.6127091,16.8067459 34.4,15.5387676 34.4,14.0874811 Z M28.7834182,1.56025946 C29.7618636,1.56025946 30.5577546,2.35303784 30.5577546,3.32717838 C30.5577546,4.30131892 29.7618636,5.09370811 28.7834182,5.09370811 C27.8045818,5.09370811 27.0086909,4.30131892 27.0086909,3.32717838 C27.0086909,2.35303784 27.8045818,1.56025946 28.7834182,1.56025946 Z M1.54018182,14.0874811 C1.54018182,12.7381622 2.64293636,11.6398702 3.99821818,11.6398702 C4.45597273,11.6398702 4.88362727,11.7679135 5.25147273,11.9862486 C3.87977273,13.095827 2.85324546,14.4015567 2.27430909,15.8287135 C1.82124546,15.3846486 1.54018182,14.7685622 1.54018182,14.0874811 Z M30.9795454,18.5075027 C30.9795454,23.3221622 24.7656546,27.2401298 17.1296364,27.2401298 C9.49244544,27.2401298 3.27972727,23.3225514 3.27972727,18.5075027 C3.27972727,18.3378162 3.28910909,18.1704649 3.30396364,18.0035027 C3.35048182,17.4917189 3.46931818,16.9912216 3.65030909,16.5062919 C4.11979091,15.2492108 5.02044546,14.0956541 6.25063636,13.112173 C6.64428182,12.7973189 7.07076364,12.4999784 7.52734546,12.2224865 C10.0193909,10.7081514 13.4038818,9.77409728 17.1296364,9.77409728 C20.9093364,9.77409728 24.3395636,10.7346162 26.8398182,12.2878702 C27.2975727,12.5715892 27.7228818,12.8759351 28.1145727,13.1977946 C29.2959,14.1664865 30.1594182,15.2959135 30.6148273,16.5238054 C30.7942546,17.0102919 30.9130909,17.5111784 30.9576546,18.0241298 C30.9713364,18.1848649 30.9795454,18.3452108 30.9795454,18.5075027 Z M32.0240546,15.920173 C31.4615364,14.478227 30.4373546,13.1592649 29.0664364,12.0356757 C29.4510909,11.7862054 29.9092364,11.6398702 30.4017818,11.6398702 C31.7574546,11.6398702 32.8602091,12.737773 32.8602091,14.0874811 C32.8594273,14.8172108 32.5349727,15.471827 32.0240546,15.920173 Z" id="Shape"></path>
                <path d="M14.4171182,16.6615784 C14.4171182,15.3686919 13.3640091,14.2840216 12.0650182,14.2840216 C10.7664182,14.2840216 9.67734544,15.3686919 9.67734544,16.6615784 C9.67734544,17.9540757 10.7668091,19.0037189 12.0650182,19.0037189 C13.3640091,19.0021622 14.4171182,17.9540757 14.4171182,16.6615784 Z" id="Shape"></path>
                <path d="M22.3705546,14.2832433 C21.0719546,14.2832433 19.9793636,15.3675243 19.9793636,16.6604108 C19.9793636,17.9536865 21.0719546,19.0025514 22.3705546,19.0025514 C23.6695454,19.0025514 24.7234364,17.9544649 24.7234364,16.6604108 C24.7226546,15.3667459 23.6695454,14.2832433 22.3705546,14.2832433 Z" id="Shape"></path>
                <path d="M21.7060091,22.3379027 C20.8346727,23.2042378 19.3675909,23.6249514 17.2179818,23.6249514 C17.2113364,23.6249514 17.2054727,23.6268973 17.1992182,23.6268973 C17.1925727,23.6268973 17.1871,23.6249514 17.1808454,23.6249514 C15.0308454,23.6249514 13.5633727,23.2042378 12.6932091,22.3379027 C12.3926,22.038227 11.9047454,22.038227 11.6041364,22.3379027 C11.3031364,22.6379676 11.3031364,23.1232865 11.6041364,23.4217946 C12.7772546,24.5901406 14.6016273,25.1587459 17.1808454,25.1587459 C17.1874909,25.1587459 17.1929636,25.1564108 17.1992182,25.1564108 C17.2054727,25.1564108 17.2113364,25.1587459 17.2179818,25.1587459 C19.7968091,25.1587459 21.6215727,24.5901406 22.7958636,23.422573 C23.0972546,23.1225081 23.0972546,22.6375784 22.7966454,22.3386811 C22.4952546,22.0390054 22.0074,22.0390054 21.7060091,22.3379027 Z" id="Shape"></path>
            </g>
        </g>
    </g>
</svg>