<?xml version="1.0" encoding="UTF-8"?>
<svg width="48px" height="48px" viewBox="0 0 48 48" version="1.1" xmlns="http://www.w3.org/2000/svg" xmlns:xlink="http://www.w3.org/1999/xlink">
    <!-- Generator: Sketch 50.2 (55047) - http://www.bohemiancoding.com/sketch -->
    <title>RSS</title>
    <desc>Created with Sketch.</desc>
    <defs></defs>
    <g id="RSS" stroke="none" stroke-width="1" fill="none" fill-rule="evenodd">
        <g fill-rule="nonzero">
            <path d="M0,24 C0,10.7451654 10.7451654,0 24,0 C37.2548346,0 48,10.7451654 48,24 C48,37.2548346 37.2548346,48 24,48 C10.7451654,48 0,37.2548346 0,24 Z" id="back" fill="#F8991D"></path>
            <path d="M14.40024,30.4 C14.40024,28.6328 15.8330246,27.2 17.6002057,27.2 C19.3673868,27.2 20.8001714,28.6328 20.8001714,30.4 C20.8001714,32.1672 19.3673868,33.6 17.6002057,33.6 C15.8330246,33.6 14.40024,32.1672 14.40024,30.4 Z M36.8,33.6 L32.5336457,33.6 C32.5336457,23.6008 24.3993329,15.4664 14.40024,15.4664 L14.40024,11.2 C26.7513077,11.2 36.8,21.2488 36.8,33.6 Z M29.33344,33.6 L25.0670857,33.6 C25.0670857,27.7184 20.281537,22.9336 14.4,22.9336 L14.4,18.6664 C22.6343118,18.6664 29.33344,25.3656 29.33344,33.6 Z" id="Shape" fill="#FFFFFF"></path>
        </g>
    </g>
</svg>