<?xml version="1.0" encoding="UTF-8"?>
<svg width="48px" height="48px" viewBox="0 0 48 48" version="1.1" xmlns="http://www.w3.org/2000/svg" xmlns:xlink="http://www.w3.org/1999/xlink">
    <!-- Generator: Sketch 50.2 (55047) - http://www.bohemiancoding.com/sketch -->
    <title>Shopify</title>
    <desc>Created with Sketch.</desc>
    <defs></defs>
    <g id="Shopify" stroke="none" stroke-width="1" fill="none" fill-rule="evenodd">
        <g fill-rule="nonzero">
            <path d="M24,48 C37.254834,48 48,37.254834 48,24 C48,10.745166 37.254834,0 24,0 C10.745166,0 0,10.745166 0,24 C0,37.254834 10.745166,48 24,48 Z" id="Combined-Shape" fill="#FFFFFF"></path>
            <g id="Shopify_logo" transform="translate(11.200000, 9.600000)">
                <path d="M21.9957894,5.72631579 C21.9789474,5.57473684 21.8442106,5.50736842 21.7431579,5.49052631 C21.6421053,5.47368421 19.4357894,5.32210526 19.4357894,5.32210526 C19.4357894,5.32210526 17.9031579,3.80631579 17.751579,3.63789474 C17.5831579,3.46947369 17.2631579,3.52 17.128421,3.55368421 C17.111579,3.55368421 16.791579,3.65473684 16.2694737,3.8231579 C15.7810526,2.35789474 14.871579,1.01052631 13.288421,1.01052631 L13.1536842,1.01052631 C12.6989474,0.421052631 12.1431579,0.151578947 11.671579,0.151578947 C7.9831579,0.168421053 6.23157894,4.76631579 5.67578947,7.10736842 C4.24421053,7.54526316 3.23368421,7.86526316 3.09894737,7.89894737 C2.30736842,8.15157896 2.27368421,8.16842104 2.17263158,8.92631576 C2.08842106,9.51578944 0,25.6842106 0,25.6842106 L16.2863158,28.7326316 L25.111579,26.8294737 C25.111579,26.8126316 22.0126316,5.87789474 21.9957894,5.72631579 Z M15.3768421,4.10947369 C14.9726316,4.24421053 14.5010526,4.37894737 13.9957894,4.53052631 L13.9957894,4.22736842 C13.9957894,3.31789474 13.8610526,2.5768421 13.6589474,2.00421053 C14.4842106,2.12210526 15.04,3.04842106 15.3768421,4.10947369 Z M12.6652631,2.18947369 C12.8842106,2.76210526 13.0357894,3.57052631 13.0357894,4.66526316 L13.0357894,4.8168421 C12.1431579,5.08631579 11.1663158,5.38947369 10.1894737,5.69263158 C10.7452631,3.60421053 11.7726316,2.5768421 12.6652631,2.18947369 Z M11.5705263,1.16210526 C11.7221053,1.16210526 11.8905263,1.21263158 12.0421053,1.31368421 C10.8631579,1.86947369 9.6,3.26736842 9.06105264,6.0631579 C8.28631576,6.29894737 7.51157894,6.53473684 6.80421053,6.75368421 C7.44421053,4.63157894 8.92631576,1.16210526 11.5705263,1.16210526 Z" id="Shape" fill="#95BF47"></path>
                <path d="M21.7431579,5.49052631 C21.6421053,5.47368421 19.4357894,5.32210526 19.4357894,5.32210526 C19.4357894,5.32210526 17.9031579,3.80631579 17.751579,3.63789474 C17.6842106,3.57052631 17.6,3.5368421 17.5157894,3.5368421 L16.2863158,28.7326316 L25.111579,26.8294737 C25.111579,26.8294737 22.0126316,5.87789474 21.9957894,5.7431579 C21.9789474,5.59157894 21.8442106,5.50736842 21.7431579,5.49052631 Z" id="Shape" fill="#5E8E3E"></path>
                <path d="M13.288421,10.3747369 L12.1936842,13.608421 C12.1936842,13.608421 11.2336842,13.1031579 10.071579,13.1031579 C8.35368424,13.1031579 8.26947368,14.1810526 8.26947368,14.4505263 C8.26947368,15.9326316 12.1263158,16.488421 12.1263158,19.9578947 C12.1263158,22.6863158 10.391579,24.4378947 8.0673684,24.4378947 C5.27157894,24.4378947 3.84,22.7031579 3.84,22.7031579 L4.58105263,20.2273684 C4.58105263,20.2273684 6.04631579,21.4905263 7.29263158,21.4905263 C8.10105264,21.4905263 8.43789472,20.8505263 8.43789472,20.3789474 C8.43789472,18.4421053 5.27157894,18.3578947 5.27157894,15.191579 C5.27157894,12.5305263 7.19157894,9.93684208 11.048421,9.93684208 C12.5642106,9.95368424 13.288421,10.3747369 13.288421,10.3747369 Z" id="Shape" fill="#FFFFFF"></path>
            </g>
        </g>
    </g>
</svg>