<?xml version="1.0" encoding="UTF-8"?>
<svg width="48px" height="48px" viewBox="0 0 48 48" version="1.1" xmlns="http://www.w3.org/2000/svg" xmlns:xlink="http://www.w3.org/1999/xlink">
    <!-- Generator: Sketch 50.2 (55047) - http://www.bohemiancoding.com/sketch -->
    <title>Tilda</title>
    <desc>Created with Sketch.</desc>
    <defs></defs>
    <g id="Tilda" stroke="none" stroke-width="1" fill="none" fill-rule="evenodd" opacity="0.300000012">
        <g id="logo_w" fill="#000000" fill-rule="nonzero">
            <polygon id="Shape" points="21.6 38.4387097 25.083871 38.4387097 25.083871 21.2516129 21.6 20.0903226"></polygon>
            <path d="M31.8193548,13.6645161 C31.7806452,15.9870968 31.0451613,17.1870968 29.4967742,17.1870968 C27.9096774,17.1870968 26.283871,16.3354839 24.116129,15.2903226 C21.1741935,13.8967742 19.7806452,13.5096774 17.9612903,13.5096774 C14.9806452,13.5096774 12.6580645,15.9870968 12.8129032,20.2451613 L15.4064516,20.2451613 C15.4451613,17.5354839 16.4129032,16.3354839 17.9612903,16.3354839 C19.5096774,16.3354839 21.1354839,17.1483871 23.1483871,18.1548387 C26.1290323,19.5096774 27.6774194,20.1290323 29.4193548,20.1290323 C32.0903226,20.1290323 34.5677419,18.6967742 34.3741935,13.6645161 L31.8193548,13.6645161 Z" id="Shape"></path>
            <path d="M23.9612903,0 C10.7612903,0 0,10.7612903 0,23.9612903 C0,37.1612903 10.7612903,47.9225806 23.9612903,47.9225806 C37.1612903,47.9225806 47.9225806,37.1612903 47.9225806,23.9612903 C47.9225806,10.7612903 37.2,0 23.9612903,0 Z M23.9612903,46.3741935 C11.6129032,46.3741935 1.5483871,36.3483871 1.5483871,23.9612903 C1.5483871,11.5741935 11.6129032,1.5483871 23.9612903,1.5483871 C36.3096774,1.5483871 46.3741935,11.6129032 46.3741935,23.9612903 C46.3741935,36.3096774 36.3096774,46.3741935 23.9612903,46.3741935 Z" id="Shape"></path>
        </g>
    </g>
</svg>