<?xml version="1.0" encoding="UTF-8"?>
<svg width="48px" height="48px" viewBox="0 0 48 48" version="1.1" xmlns="http://www.w3.org/2000/svg" xmlns:xlink="http://www.w3.org/1999/xlink">
    <!-- Generator: Sketch 50.2 (55047) - http://www.bohemiancoding.com/sketch -->
    <title>Tor</title>
    <desc>Created with Sketch.</desc>
    <defs></defs>
    <g id="Tor" stroke="none" stroke-width="1" fill="none" fill-rule="evenodd">
        <g fill-rule="nonzero">
            <path d="M0,24 C0,10.7451654 10.7451654,0 24,0 C37.2548346,0 48,10.7451654 48,24 C48,37.2548346 37.2548346,48 24,48 C10.7451654,48 0,37.2548346 0,24 Z" id="back" fill="#FFFFFF"></path>
            <g id="Tor-logo-2011-flat" transform="translate(12.800000, 7.200000)">
                <g id="layer3">
                    <g id="layer5" transform="translate(0.188902, 0.000000)">
                        <path d="M12.9422432,2.57376256 L12.0134121,6.16968672 C13.3291146,3.6299467 15.4187486,1.71883527 17.8181818,0.0338385855 C16.0638489,2.02044434 14.4644156,4.00723441 13.4840142,5.99384017 C15.1352066,3.73048305 17.3538607,2.47322621 19.8562456,1.64334094 C16.52817,4.53532648 13.8865114,7.63856265 11.8741384,10.7568469 L10.274705,10.0779502 C10.558247,7.58829447 11.5232114,5.03837652 12.9422432,2.57376256 Z" id="path2554" fill="#ABCD03"></path>
                        <path d="M8.6708156,9.41681696 L11.7151603,10.6479159 C11.7151603,11.402491 11.6522314,13.7039689 12.1362947,14.3828654 C17.1994144,20.7389543 16.3475797,33.4798549 11.1106494,33.8066901 C3.13585643,33.8066901 0.0944510032,28.5259536 0.0944510032,23.6724026 C0.0944510032,19.2464093 5.53785124,16.3041558 8.78866584,13.6889215 C9.61416768,12.9847988 9.4708156,11.4286489 8.6708156,9.41681696 Z" id="path2534" fill="#FFFCDB"></path>
                        <path d="M11.7160746,10.6036302 L12.8132231,11.1491817 C12.7100826,11.8531203 12.8647934,13.4125386 13.5869658,13.8146841 C16.7862102,15.7510217 19.8044864,17.8633899 20.9913578,19.9757582 C25.2223849,27.4195013 18.0244628,34.3097402 11.8069422,33.6558855 C15.1865879,31.2164979 16.1669894,26.2123266 14.9028571,20.7551911 C14.3869658,18.6175967 13.5869658,16.6812591 12.1679339,14.4933966 C11.5532071,13.419451 11.7678338,12.0875542 11.7160746,10.6036302 Z" id="path2536" fill="#7D4698"></path>
                    </g>
                    <g id="layer4" transform="translate(0.000000, 8.654229)" fill="#000000">
                        <path d="M11.3768122,1.76560438 L13.6470366,2.06739758 C12.9762456,4.23003402 14.962928,5.73881589 15.6078394,6.0910614 C17.0525638,6.87067849 18.4457162,7.6753376 19.5551377,8.65602736 C21.6449606,10.5168706 22.831643,13.132289 22.831643,15.8985118 C22.831643,18.6395085 21.5416312,21.2799688 19.3745474,23.0402757 C17.3364836,24.7000462 14.5244864,25.404169 11.7897521,25.404169 C10.0869894,25.404169 8.56481704,25.3288588 6.91381346,24.8005826 C3.14729634,23.5683678 0.335112161,20.4250415 0.102951594,16.6527186 C-0.1035183,13.710465 0.567272727,11.4723343 2.91513578,9.13366712 C4.12750886,7.90145233 6.5785124,6.49320682 8.2555844,5.36152835 C9.08127512,4.80821014 9.95834712,3.24897596 8.28127512,0.30690656 L8.61676504,0.0553815379 L11.1020713,1.67796282 L9.00382528,0.834998624 C9.1844156,1.08652365 9.67461632,2.21820211 9.77794568,2.54503734 C10.0101062,3.47545896 9.90696576,4.38102269 9.70049584,4.78316811 C8.64283352,6.64419549 6.83693034,7.1470614 5.52122786,8.20324552 C3.19924439,10.0640888 0.670979929,11.5478286 0.954710744,16.6527186 C1.08373082,19.1674164 3.0961039,22.2354325 6.11438017,23.6689041 C7.81714286,24.4737474 9.77794568,24.8005826 11.7644392,24.901119 C13.5444628,24.9766133 16.9499901,23.9454712 18.8074635,22.4366893 C20.793957,20.827371 21.9033785,18.3879834 21.9033785,15.8985118 C21.9033785,13.3836298 20.8714069,10.9946946 18.9364836,9.30969784 C17.8270621,8.32900808 15.9954663,7.1470614 14.8603542,6.51824884 C13.725242,5.88962042 12.3062102,4.12931354 12.7705313,2.44450098 L11.3768122,1.76560438 Z" id="path2538"></path>
                        <path d="M10.6803306,5.487475 C10.44817,6.64437962 10.1901298,8.73152176 9.15815824,9.5111388 C8.71952776,9.81274792 8.28089728,10.1147252 7.81657615,10.4163343 C5.95910271,11.6487332 4.10144038,12.8052696 3.25024794,15.7727493 C3.06965762,16.4015618 3.22455726,17.0804584 3.3794569,17.7090869 C3.84377804,19.5196619 5.15948052,21.4812257 6.19145218,22.6381302 C6.19145218,22.6883985 6.39792208,22.814161 6.39792208,22.8644291 C7.24930342,23.845303 7.50734357,24.1218701 10.7320898,24.8258087 L10.6546399,25.1780542 C8.71971664,24.6751883 7.12028335,24.2225906 6.11400236,23.090728 C6.11400236,23.065686 5.93341204,22.8894712 5.93341204,22.8894712 C4.84987013,21.6822984 3.53397875,19.6706506 3.04396694,17.7845812 C2.86337662,17.0300062 2.70866588,16.45183 2.91494687,15.6720288 C3.79201889,12.6041969 5.70125147,11.3970241 7.63617474,10.1145411 C8.0748052,9.83797408 8.59069656,9.58626488 9.00344744,9.25942968 C9.80306968,8.68125352 10.2415112,6.92076253 10.6803306,5.487475 Z" id="path2540"></path>
                        <path d="M11.5053129,10.2652978 C11.5311925,11.5730069 11.4002362,12.229025 11.7355372,13.1596308 C11.9418182,13.7127649 12.6388666,14.4672478 12.8453365,15.1965968 C13.1290673,16.1774707 13.438111,17.2586987 13.4120425,17.9125533 C13.4120425,18.6671265 13.3636364,20.0747276 13.0283353,21.5836935 C12.7726338,22.8304696 12.1833332,23.9003624 11.1924439,24.5067973 C10.1774224,24.3030658 8.98564536,23.9552818 8.2821724,23.3674774 C6.91489965,22.2107569 5.7038961,20.2765368 5.54899646,18.5915401 C5.42016529,17.2085226 6.73393152,15.1687928 8.56552536,14.1378348 C10.1133884,13.2576814 10.4734357,12.2545734 10.8087367,10.645071 C10.3444156,12.0533166 9.90833528,13.2338362 8.41204248,13.9882271 C6.24495868,15.0946794 5.13298702,16.952072 5.23612751,18.7123771 C5.39083826,20.9755498 6.32070838,22.5090976 8.15230224,23.7414966 C8.92623376,24.2695886 10.372137,24.8276482 11.2750886,24.9786369 L11.2750886,24.8635541 C11.9598451,24.7385502 12.8464094,23.6422638 13.2880756,22.1591077 C13.6751358,20.8263565 13.8277214,19.1205529 13.8016529,18.0391444 C13.7757733,17.410516 13.4912869,16.0490383 12.9752066,14.8168234 C12.6914758,14.1379269 12.2555844,13.4590763 11.9716647,12.9812524 C11.6624321,12.5030602 11.6602125,11.4722864 11.5053129,10.2652978 Z" id="path2542"></path>
                        <path d="M11.35183,15.1965968 C11.3775206,16.0767502 11.7402125,17.2044717 11.8949233,18.3613763 C12.0241322,19.2164859 11.9680283,20.075326 11.9421488,20.829901 C11.9166564,21.7032839 11.618144,23.268217 11.2101535,24.0292036 C10.8254111,23.8572183 10.6750054,23.6610822 10.4250295,23.3444608 C10.115608,22.916905 9.90540728,22.4893494 9.69893744,21.9864834 C9.54422672,21.6091959 9.36335304,21.1774051 9.28571432,20.6745393 C9.18257376,19.9201483 9.21147576,18.739951 10.0885478,17.53278 C10.7593389,16.5771303 10.9130578,16.504444 11.1452184,15.3979918 C10.8354191,16.3786815 10.6044864,16.4786655 9.88193624,17.3083685 C9.08231408,18.2137481 8.94923256,19.5472799 8.94923256,20.6285061 C8.94923256,21.081288 9.13445104,21.5836475 9.31523024,22.0612873 C9.5215112,22.5643374 9.6985596,23.0651778 9.9822904,23.4422812 C10.4088236,24.0537522 10.9547542,24.401468 11.2219598,24.4665183 C11.22366,24.4668866 11.2261157,24.4661501 11.2278536,24.4665183 C11.2335774,24.4678073 11.2401134,24.4712137 11.2455537,24.4722633 L11.2455537,24.4434926 C11.74611,23.899497 12.047337,23.3590735 12.1487414,22.8150706 C12.2777615,22.161216 12.3074191,21.5059344 12.384869,20.7263173 C12.4621298,20.0724627 12.4060732,19.1917569 12.2254829,18.2865633 C11.9676317,17.1548848 11.5324014,16.0010626 11.3518111,15.1965876 L11.35183,15.1965968 Z" id="path2544"></path>
                        <path d="M11.4283826,4.43129086 C11.4542621,5.73881589 11.5574026,8.17838768 11.9185832,9.13385128 C12.0217238,9.46068648 12.9762456,10.8941582 13.6468477,12.6292389 C14.1113578,13.8364117 14.2144982,14.942864 14.2919481,15.2696992 C14.6015585,16.7031709 14.2144982,19.1173324 13.6984179,21.4057313 C13.4405667,22.6379462 12.5633058,24.1719542 11.5572137,24.7755406 L11.3509327,25.1276019 C11.9185832,25.1023758 13.3115466,23.7696246 13.8017474,22.1098541 C14.627438,19.293363 14.962739,17.9856539 14.5758678,14.8673697 C14.5242975,14.5653923 14.3952774,13.5346185 13.9050767,12.4279821 C13.1827154,10.7429854 12.1507438,9.13366712 12.0219126,8.80664776 C11.7895632,8.27873984 11.4799528,5.99034091 11.4283826,4.43129086 Z" id="path2550"></path>
                        <path d="M11.9124458,2.64285958 C11.8359122,3.9866808 11.8154427,4.48155905 12.073294,5.46224884 C12.3570248,6.54365913 13.8019362,8.1027092 14.3952774,9.88824224 C15.5303896,13.3083196 15.2466588,17.7845812 14.4209682,21.2799688 C14.1115466,22.5119995 12.6407556,24.2977166 11.1703424,24.8758928 L12.2538843,25.1274178 C12.8472255,25.1021917 14.369209,23.7191723 14.962739,22.1348961 C15.917072,19.6452403 16.0978512,16.6779447 15.710791,13.5596606 C15.6849114,13.2578674 15.1688312,10.5671388 14.6788194,9.43546032 C13.9821488,7.7506478 12.7437072,6.2416818 12.614876,5.91503071 C12.3829044,5.36171249 11.8731504,4.21297967 11.9124458,2.64285958 Z" id="path2552"></path>
                        <rect id="rect2556" x="11.0922484" y="1.69712366" width="1" height="23.2041794"></rect>
                    </g>
                </g>
            </g>
        </g>
    </g>
</svg>