<?xml version="1.0" encoding="UTF-8"?>
<svg width="48px" height="48px" viewBox="0 0 48 48" version="1.1" xmlns="http://www.w3.org/2000/svg" xmlns:xlink="http://www.w3.org/1999/xlink">
    <!-- Generator: Sketch 50.2 (55047) - http://www.bohemiancoding.com/sketch -->
    <title>Vine</title>
    <desc>Created with Sketch.</desc>
    <defs></defs>
    <g id="Vine" stroke="none" stroke-width="1" fill="none" fill-rule="evenodd">
        <g fill-rule="nonzero">
            <path d="M0,24 C0,10.7451654 10.7451654,0 24,0 C37.2548346,0 48,10.7451654 48,24 C48,37.2548346 37.2548346,48 24,48 C10.7451654,48 0,37.2548346 0,24 Z" id="back" fill="#00B488"></path>
            <path d="M23.3905261,39.0153612 C22.2323914,38.8311562 21.2571546,37.9714007 19.9161875,36.620432 C15.8933519,32.8130002 11.7485626,22.6189366 11.2,14.0215805 L16.0761842,14.0215805 C17.3561416,23.0488143 19.367625,29.1898396 23.6952466,34.164035 C25.8285527,32.1375158 27.5961286,29.312643 28.8152074,27.040451 C26.4381249,25.935089 25.0971578,23.8471021 24.365763,21.9433862 C22.1105032,16.0480336 24.0609769,9.78420504 30.461026,9.6 C35.1543124,9.6 36.7391214,13.161759 36.8,16.539313 C36.7390559,18.5658322 36.4342698,19.9782686 35.8247631,21.6977795 C34.4837961,22.0047878 33.0819505,21.6363778 32.2286018,21.0222951 C31.5581511,20.5310158 31.3143091,20.7766224 31.7409834,19.4255876 C32.2286018,17.7061428 32.4114342,13.9601127 30.0952958,13.8987111 C28.5104868,14.0215144 28.083878,15.9866319 28.083878,17.3376667 C28.5105523,22.8645433 32.0457695,25.3209402 36.7391214,24.0927747 L36.7391214,27.6545338 C35.215322,28.0230098 35.1543124,28.0230098 33.2647828,28.0844114 C32.1676578,30.6636117 26.1942829,39.5681082 23.329582,39.0153612 L23.3905261,39.0153612 Z" id="Shape" fill="#FFFFFF"></path>
        </g>
    </g>
</svg>