<?xml version="1.0" encoding="UTF-8"?>
<svg width="48px" height="48px" viewBox="0 0 48 48" version="1.1" xmlns="http://www.w3.org/2000/svg" xmlns:xlink="http://www.w3.org/1999/xlink">
    <!-- Generator: Sketch 50.2 (55047) - http://www.bohemiancoding.com/sketch -->
    <title>Visa</title>
    <desc>Created with Sketch.</desc>
    <defs>
        <linearGradient x1="16.1481739%" y1="34.4008407%" x2="85.8318643%" y2="66.3485849%" id="linearGradient-1">
            <stop stop-color="#222357" offset="0%"></stop>
            <stop stop-color="#254AA5" offset="100%"></stop>
        </linearGradient>
    </defs>
    <g id="Visa" stroke="none" stroke-width="1" fill="none" fill-rule="evenodd">
        <g fill-rule="nonzero">
            <circle id="Oval" fill="#FFFFFF" cx="24" cy="24" r="24"></circle>
            <g id="path10273" transform="translate(24.000000, 24.722301) scale(-1, 1) rotate(-180.000000) translate(-24.000000, -24.722301) translate(9.600000, 19.922301)" fill="url(#linearGradient-1)">
                <path d="M14.9053153,6.4481856 C14.8889168,5.1448444 16.0575269,4.41747904 16.9378683,3.98506216 C17.842376,3.54133448 18.1461801,3.25682672 18.1427278,2.860082 C18.1358231,2.25278416 17.421193,1.98480752 16.7523062,1.9743668 C15.5854222,1.95609568 14.9070414,2.29193664 14.3676166,2.54599248 L13.9472967,0.56313888 C14.4884478,0.3116932 15.4904834,0.0924396 16.5296315,0.08286896 C18.9686951,0.08286896 20.5645298,1.29659464 20.5731606,3.17852184 C20.5826544,5.56682072 17.2960464,5.69906896 17.3184865,6.76662544 C17.3262542,7.0902856 17.6326476,7.43569712 18.3041237,7.52357264 C18.6364094,7.56794536 19.5538633,7.60187752 20.5938745,7.11899744 L21.0021112,9.03746696 C20.4428355,9.24279976 19.72389,9.439432 18.8288762,9.439432 C16.5330838,9.439432 14.9182615,8.20917536 14.9053153,6.4481856 M24.924809,9.27412168 C24.4794598,9.27412168 24.1040202,9.01223536 23.9365826,8.61027032 L20.4523294,0.22381776 L22.8896668,0.22381776 L23.3747177,1.57501192 L26.3532062,1.57501192 L26.6345702,0.22381776 L28.7827759,0.22381776 L26.9081666,9.27412168 L24.924809,9.27412168 M25.2657256,6.82926936 L25.9691357,3.4308376 L24.0427415,3.4308376 L25.2657256,6.82926936 M11.95013,9.27412168 L10.0289142,0.22381776 L12.3514621,0.22381776 L14.2718147,9.27412168 L11.95013,9.27412168 M8.51420912,9.27412168 L6.09672256,3.11413784 L5.11885312,8.35186424 C5.00406352,8.93654064 4.55094656,9.27412168 4.04777104,9.27412168 L0.09572848,9.27412168 L0.04049136,9.01136528 C0.8517864,8.83387424 1.77355568,8.5476264 2.33196832,8.24136736 C2.67374792,8.05430568 2.77127592,7.89073552 2.88347632,7.44613776 L4.73564568,0.22381776 L7.19024472,0.22381776 L10.9532727,9.27412168 L8.51420912,9.27412168" id="path-2"></path>
            </g>
        </g>
    </g>
</svg>