<?xml version="1.0" encoding="UTF-8"?>
<svg width="48px" height="48px" viewBox="0 0 48 48" version="1.1" xmlns="http://www.w3.org/2000/svg" xmlns:xlink="http://www.w3.org/1999/xlink">
    <!-- Generator: Sketch 50.2 (55047) - http://www.bohemiancoding.com/sketch -->
    <title>VK</title>
    <desc>Created with Sketch.</desc>
    <defs></defs>
    <g id="VK" stroke="none" stroke-width="1" fill="none" fill-rule="evenodd">
        <g fill-rule="nonzero">
            <path d="M0,24 C0,10.7451654 10.7451654,0 24,0 C37.2548346,0 48,10.7451654 48,24 C48,37.2548346 37.2548346,48 24,48 C10.7451654,48 0,37.2548346 0,24 Z" id="back" fill="#4C6C91"></path>
            <path d="M25.2554624,31.8760801 C25.2554624,31.8760801 25.7174862,31.8256889 25.9541326,31.5761909 C26.1707453,31.3475869 26.1632327,30.9161889 26.1632327,30.9161889 C26.1632327,30.9161889 26.1344345,28.9017692 27.0872802,28.6043382 C28.026353,28.3118233 29.2321223,30.5523889 30.5117654,31.4139558 C31.4783843,32.0653544 32.2121131,31.9227842 32.2121131,31.9227842 L35.6315899,31.8760801 C35.6315899,31.8760801 37.4195844,31.7679234 36.5719147,30.3876956 C36.5017973,30.2746226 36.0773364,29.3663517 34.0301579,27.5006476 C31.8853158,25.5476806 32.1732981,25.8635476 34.755122,22.4848779 C36.3277558,20.4274414 36.9563085,19.1713482 36.7597293,18.6342515 C36.5731668,18.1205069 35.4162292,18.2569319 35.4162292,18.2569319 L31.5672832,18.2802839 C31.5672832,18.2802839 31.281805,18.2421833 31.0702007,18.3663177 C30.8636047,18.4879941 30.7296303,18.7719056 30.7296303,18.7719056 C30.7296303,18.7719056 30.1211112,20.3635306 29.3085002,21.7179482 C27.5943795,24.5742698 26.9094825,24.7254435 26.6290128,24.5484597 C25.9766702,24.1342685 26.1394429,22.8867786 26.1394429,22.0006306 C26.1394429,19.2315718 26.56766,18.07749 25.3067984,17.7788298 C24.888598,17.6792765 24.5805822,17.6141366 23.5100393,17.6030751 C22.1364889,17.5895555 20.9745429,17.6079914 20.3159399,17.9238582 C19.877706,18.1340265 19.5396398,18.6035251 19.7462358,18.6305643 C20.0004115,18.6637488 20.5763761,18.782967 20.8818878,19.191013 C21.2762983,19.7182772 21.2625252,20.9006272 21.2625252,20.9006272 C21.2625252,20.9006272 21.4891548,24.1600786 20.7328882,24.5644374 C20.2145201,24.8422036 19.503329,24.2756097 17.9745186,21.6835346 C17.191958,20.3561562 16.6009682,18.8886657 16.6009682,18.8886657 C16.6009682,18.8886657 16.4870274,18.6145866 16.2829356,18.4671002 C16.0362725,18.2888873 15.6919458,18.2335798 15.6919458,18.2335798 L12.0345706,18.2569319 C12.0345706,18.2569319 11.4849001,18.2716806 11.2833125,18.5064299 C11.1042626,18.71414 11.2695394,19.145538 11.2695394,19.145538 C11.2695394,19.145538 14.1330851,25.7222063 17.3760162,29.0369652 C20.3497466,32.0751869 23.7253999,31.8760801 23.7253999,31.8760801 L25.2554624,31.8760801 Z" id="Shape" fill="#FFFFFF"></path>
        </g>
    </g>
</svg>