<?xml version="1.0" encoding="UTF-8"?>
<svg width="48px" height="48px" viewBox="0 0 48 48" version="1.1" xmlns="http://www.w3.org/2000/svg" xmlns:xlink="http://www.w3.org/1999/xlink">
    <!-- Generator: Sketch 50.2 (55047) - http://www.bohemiancoding.com/sketch -->
    <title>YandexBrowser</title>
    <desc>Created with Sketch.</desc>
    <defs></defs>
    <g id="YandexBrowser" stroke="none" stroke-width="1" fill="none" fill-rule="evenodd">
        <g fill-rule="nonzero">
            <path d="M0,24 C0,10.7451654 10.7451654,0 24,0 C37.2548346,0 48,10.7451654 48,24 C48,37.2548346 37.2548346,48 24,48 C10.7451654,48 0,37.2548346 0,24 Z" id="back" fill="#000000"></path>
            <g id="Group" transform="translate(9.600000, 8.800000)">
                <circle id="Oval" fill="#FFFFFF" cx="14.4" cy="14.4" r="14.4"></circle>
                <path d="M11.4564706,29.3687395 C9.6080672,28.2554622 8.42823528,25.8080672 7.91394958,23.8053782 C7.42991597,21.9267227 7.20605042,19.5277311 7.27260504,16.3058823 C4.73747899,14.0218487 2.51092437,11.765042 1.55798319,9.63226888 C0.644369748,7.58420168 1.09210084,4.78890756 2.9405042,3.37613446 C3.63327731,2.84672269 4.58016806,2.49579832 5.87798319,2.49277311 C5.72672269,5.42420168 7.8594958,7.33613446 10.6880672,9.70487392 C12.542521,7.7112605 14.8810084,5.74487395 17.2315966,4.38352941 C19.0648739,3.32168067 20.8678991,2.63193278 22.4016806,2.46857143 C24.005042,2.29613446 25.6416806,2.81042017 26.6944538,4.0810084 C27.3781513,4.90689076 27.7502521,6.08672269 27.2117647,7.72033614 C25.8867227,7.90789916 24.7431933,8.20134456 23.7418487,8.57344536 C22.1959664,9.15126048 21.1341177,10.0709244 20.0238655,10.9603362 C17.9909244,12.5909244 16.2756302,14.242689 14.8447059,15.9337815 C14.7902521,18.6564706 14.8053782,22.4198319 15.5556302,25.0668907 C15.9670588,26.5189916 16.7294118,27.6957983 18.1694118,28.3492437 C15.9065546,30.6665546 13.2413446,30.442689 11.4564706,29.3687395 Z" id="Shape" fill="#EC1A23"></path>
            </g>
        </g>
    </g>
</svg>