<?xml version="1.0" encoding="UTF-8"?>
<svg width="48px" height="48px" viewBox="0 0 48 48" version="1.1" xmlns="http://www.w3.org/2000/svg" xmlns:xlink="http://www.w3.org/1999/xlink">
    <!-- Generator: Sketch 50.2 (55047) - http://www.bohemiancoding.com/sketch -->
    <title>Zerpply</title>
    <desc>Created with Sketch.</desc>
    <defs></defs>
    <g id="Zerpply" stroke="none" stroke-width="1" fill="none" fill-rule="evenodd">
        <g fill-rule="nonzero">
            <path d="M0,24 C0,10.7451654 10.7451654,0 24,0 C37.2548346,0 48,10.7451654 48,24 C48,37.2548346 37.2548346,48 24,48 C10.7451654,48 0,37.2548346 0,24 Z" id="back" fill="#9DBC7A"></path>
            <path d="M13.8495111,27.9639638 C13.6382666,28.2043898 13.6037334,28.596795 13.6037334,28.596795 L13.6037334,30.8898741 C13.6037334,30.9172802 13.6012445,31.0860766 13.6,31.267019 C13.6740445,31.6516385 13.8513778,31.7291852 13.9531111,31.7419539 L14.8472445,31.7419539 C17.0682666,31.7419539 18.9616889,31.8001918 21.0137778,32.817331 C22.5901778,33.5980929 23.8928,34.8484952 25.4284445,35.7183267 C26.8844445,36.5426891 28.5467111,37.4078492 30.2519111,37.6021832 C33.6844,37.9930312 35.0638666,33.9957924 34.4926666,31.403738 C32.9635555,32.5909195 30.8305778,32.5603991 28.8758666,32.0446666 C27.0359555,31.4532558 24.1087111,29.6176714 24.1087111,29.6176714 L24.1087111,29.6186058 C22.7961334,28.8281895 21.2539555,28.1754266 19.7058666,28.2430075 C19.7058666,27.5690671 19.7260889,27.5435296 20.1510666,27.0679719 C20.7359555,26.4158318 21.3205334,25.7627574 21.9054222,25.1099945 C23.7450222,23.0554729 25.5852445,21.0018856 27.4248445,18.9476755 C28.9906666,17.1996037 30.5561778,15.4518434 32.1216889,13.7034602 C32.2716445,13.5365322 32.8238666,13.1067551 32.8515555,12.8759834 C32.9467555,12.0821415 33.0419555,11.2882995 33.1374666,10.4944575 C33.2040445,9.944156 32.6110666,10.0762034 32.6110666,10.0762034 L32.6101334,10.0734006 C30.0708445,10.5707586 27.4618666,10.830182 24.8737334,10.7158862 C23.4339111,10.6526654 21.9184889,10.5203065 20.5667111,10.0023938 C20.5178666,9.98370792 20.2316445,9.84294032 19.9631555,9.70123848 C19.5739555,9.50690448 19.3126222,9.63241184 19.1744889,9.74515048 C19.0652889,9.8762636 18.9498666,10.0023938 18.8468889,10.1372442 C18.1664889,11.031679 17.5336889,12.0827643 17.4182666,13.2054793 C17.3921334,13.4558711 17.3600889,13.984061 17.5028889,14.3020338 L17.5019555,14.3023453 C17.5019555,14.3023453 17.5175111,14.3409629 17.5604445,14.4026266 C17.5679111,14.412281 17.5735111,14.4231811 17.5812889,14.4319013 C17.9051555,14.8629242 19.3969334,16.1600414 25.2221778,15.0351464 C21.4316,19.3447522 17.6407111,23.6537351 13.8501334,27.9630294 C13.8495111,27.9633409 13.8495111,27.9633409 13.8495111,27.9639638" id="Z" fill="#FFFFFF"></path>
        </g>
    </g>
</svg>