<?xml version="1.0" encoding="UTF-8"?>
<svg width="48px" height="48px" viewBox="0 0 48 48" version="1.1" xmlns="http://www.w3.org/2000/svg" xmlns:xlink="http://www.w3.org/1999/xlink">
    <!-- Generator: Sketch 50.2 (55047) - http://www.bohemiancoding.com/sketch -->
    <title>Aim</title>
    <desc>Created with Sketch.</desc>
    <defs></defs>
    <g id="Aim" stroke="none" stroke-width="1" fill="none" fill-rule="evenodd">
        <g fill-rule="nonzero">
            <path d="M0,24 C0,10.7451654 10.7451654,0 24,0 C37.2548346,0 48,10.7451654 48,24 C48,37.2548346 37.2548346,48 24,48 C10.7451654,48 0,37.2548346 0,24 Z" id="back" fill="#FFD900"></path>
            <path d="M26.4615555,8.8 C24.2495555,8.8 22.4,10.5845094 22.4,12.7866501 C22.4,14.9881678 24.2495555,16.7729887 26.4615555,16.7729887 C28.672,16.7729887 30.5504889,14.9881678 30.5504889,12.7866501 C30.5504889,10.5845094 28.672,8.8 26.4615555,8.8" id="2" fill="#FFFFFF"></path>
            <path d="M33.9279111,22.9575769 C33.9279111,22.9575769 33.0014222,21.2406483 31.8297778,19.4636133 C29.9189334,21.1733789 27.9393334,20.8871722 27.0980889,20.7049841 C25.9889778,20.4654923 25.6878222,19.9964746 25.7796,19.5841378 C25.1331111,19.381395 22.8607555,18.0444145 21.4868889,17.6 C18.844,19.1995184 17.7856,23.1970686 17.9125334,27.2625111 C16.1398222,30.6122814 14.8204,31.7412249 11.2,32.5693245 C11.8810222,34.158877 12.1563555,34.7543363 13.1649778,36.8611786 C17.6922666,35.6419195 20.5865334,33.0019045 22.3648445,30.740903 C25.3938222,31.507339 27.6092445,33.4220272 29.4382666,36.896059 C31.3372889,35.3208324 31.5476,35.1595102 33.1635111,33.867376 C31.9032,30.8673447 28.8104445,28.2724874 25.8648445,26.8595172 C25.8925334,26.1497621 25.914,25.9725569 25.9432445,25.4157152 C30.2714222,26.5406102 33.9279111,22.9575769 33.9279111,22.9575769" id="1" fill="#FFFFFF"></path>
        </g>
    </g>
</svg>