<?xml version="1.0" encoding="UTF-8"?>
<svg width="48px" height="48px" viewBox="0 0 48 48" version="1.1" xmlns="http://www.w3.org/2000/svg" xmlns:xlink="http://www.w3.org/1999/xlink">
    <!-- Generator: Sketch 50.2 (55047) - http://www.bohemiancoding.com/sketch -->
    <title>Android</title>
    <desc>Created with Sketch.</desc>
    <defs></defs>
    <g id="Android" stroke="none" stroke-width="1" fill="none" fill-rule="evenodd">
        <g fill-rule="nonzero">
            <circle id="Oval" fill="#FFFFFF" cx="24" cy="24" r="24"></circle>
            <g id="Page-1" transform="translate(12.000000, 10.400000)" fill="#A4C639">
                <g id="Clip-2">
                    <path d="M15.2725771,5.48622798 C14.8202171,5.48622798 14.4540171,5.12982226 14.4540171,4.68955941 C14.4540171,4.24929084 14.8202171,3.89450226 15.2725771,3.89450226 C15.7249371,3.89450226 16.0911371,4.24929084 16.0911371,4.68955941 C16.0911371,5.12982226 15.7249371,5.48622798 15.2725771,5.48622798 Z M8.72742288,5.48622798 C8.27506288,5.48622798 7.90886286,5.12982226 7.90886286,4.68955941 C7.90886286,4.24929084 8.27506288,3.89450226 8.72742288,3.89450226 C9.17978288,3.89450226 9.54598288,4.24929084 9.54598288,4.68955941 C9.54598288,5.12982226 9.17978288,5.48622798 8.72742288,5.48622798 Z M15.7564229,2.29631941 L16.0613086,1.84798798 L16.3662,1.40610798 L17.0455657,0.412690838 C17.1300743,0.290125125 17.09528,0.125627982 16.9693429,0.0449936958 C16.8450686,-0.0372520184 16.6744,-0.00338344699 16.5932057,0.119176553 L15.5559257,1.6302737 L15.2444057,2.08505655 C14.2584914,1.71252513 13.1599029,1.50448513 12,1.50448513 C10.8417543,1.50448513 9.74150856,1.71252513 8.75559432,2.08505655 L8.44573144,1.6302737 L8.13918856,1.18355941 L7.41010857,0.119176553 C7.3256,-0.00338344699 7.15658857,-0.0356405898 7.03065714,0.0449936958 C6.90637714,0.125627982 6.87158286,0.290125125 6.95443429,0.412690838 L7.6338,1.40610798 L7.93869143,1.84798798 L8.24523432,2.29631941 C5.93040571,3.34618226 4.36454,5.33463941 4.36454,7.6101537 L19.6354571,7.6101537 C19.6354571,5.33463941 18.0695943,3.34618226 15.7564229,2.29631941 Z M4.48218743,8.67130224 L4.36454,8.67130224 L4.36454,20.3504508 C4.36454,21.277748 5.13835943,22.0324902 6.09279429,22.0324902 L7.33885714,22.0324902 C7.29577714,22.1727948 7.27257714,22.3195502 7.27257714,22.4743691 L7.27257714,25.83684 C7.27257714,26.7157594 8.00662856,27.4285708 8.90969144,27.4285708 C9.81276,27.4285708 10.5468114,26.7157594 10.5468114,25.83684 L10.5468114,22.4743691 C10.5468114,22.3195502 10.5219543,22.1727948 10.4805314,22.0324902 L13.5194686,22.0324902 C13.4780457,22.1727948 13.4548457,22.3195502 13.4548457,22.4743691 L13.4548457,25.83684 C13.4548457,26.7157594 14.18724,27.4285708 15.0903086,27.4285708 C15.9950286,27.4285708 16.72908,26.7157594 16.72908,25.83684 L16.72908,22.4743691 C16.72908,22.3195502 16.7042229,22.1727948 16.6611429,22.0324902 L17.9088629,22.0324902 C18.8632971,22.0324902 19.6354571,21.277748 19.6354571,20.3504508 L19.6354571,8.67130224 L4.48218743,8.67130224 Z M1.63711657,8.67130224 C0.732394286,8.67130224 0,9.38411944 0,10.2630337 L0,17.0766737 C0,17.9555937 0.732394286,18.6684051 1.63711657,18.6684051 C2.54018229,18.6684051 3.27257657,17.9555937 3.27257657,17.0766737 L3.27257657,10.2630337 C3.27257657,9.38411944 2.54018229,8.67130224 1.63711657,8.67130224 Z M22.3645429,8.67130224 C21.4598171,8.67130224 20.7274229,9.38411944 20.7274229,10.2630337 L20.7274229,17.0766737 C20.7274229,17.9555937 21.4598171,18.6684051 22.3645429,18.6684051 C23.2676057,18.6684051 24,17.9555937 24,17.0766737 L24,10.2630337 C24,9.38411944 23.2676057,8.67130224 22.3645429,8.67130224 Z" id="path-1"></path>
                </g>
            </g>
        </g>
    </g>
</svg>