<?xml version="1.0" encoding="UTF-8"?>
<svg width="48px" height="48px" viewBox="0 0 48 48" version="1.1" xmlns="http://www.w3.org/2000/svg" xmlns:xlink="http://www.w3.org/1999/xlink">
    <!-- Generator: Sketch 50.2 (55047) - http://www.bohemiancoding.com/sketch -->
    <title>Atlassian</title>
    <desc>Created with Sketch.</desc>
    <defs>
        <linearGradient x1="99.6865531%" y1="15.8007988%" x2="39.8359011%" y2="97.4378355%" id="linearGradient-1">
            <stop stop-color="#0052CC" offset="0%"></stop>
            <stop stop-color="#2684FF" offset="92.3%"></stop>
        </linearGradient>
    </defs>
    <g id="Atlassian" stroke="none" stroke-width="1" fill="none" fill-rule="evenodd">
        <g fill-rule="nonzero">
            <path d="M0,24 C0,10.7451654 10.7451654,0 24,0 C37.2548346,0 48,10.7451654 48,24 C48,37.2548346 37.2548346,48 24,48 C10.7451654,48 0,37.2548346 0,24 Z" id="back" fill="#FFFFFF"></path>
            <g id="Group-7" transform="translate(12.000000, 9.600000)">
                <path d="M7.09173354,11.0362136 C6.73435649,10.6544431 6.17750403,10.6760824 5.93461878,11.161853 L0.0740286189,22.8832955 C-0.034619903,23.1004806 -0.0230477118,23.3584404 0.104611297,23.5650246 C0.232270305,23.7716088 0.457806215,23.8973494 0.70065157,23.8973283 L8.86235648,23.8973283 C9.12951016,23.9035215 9.3752056,23.751652 9.48911056,23.5099185 C11.2489794,19.87123 10.1827499,14.338771 7.09173354,11.0362136 Z" id="Shape" fill="url(#linearGradient-1)"></path>
                <path d="M11.3917991,0.375361124 C8.11389744,5.56880374 8.33015976,11.3206726 10.4892418,15.6389677 L14.4247171,23.5099185 C14.5433903,23.7472667 14.7859771,23.8971954 15.0513401,23.8971972 L23.2129138,23.8971972 C23.4557592,23.8972182 23.6812951,23.7714777 23.8089542,23.5648934 C23.9366131,23.3583092 23.9481854,23.1003495 23.8395368,22.8831644 C23.8395368,22.8831644 12.8597335,0.920410304 12.5835368,0.370902108 C12.336586,-0.121032318 11.7093073,-0.127720843 11.3917991,0.375361124 Z" id="Shape" fill="#2681FF"></path>
            </g>
        </g>
    </g>
</svg>