<?xml version="1.0" encoding="UTF-8"?>
<svg width="48px" height="48px" viewBox="0 0 48 48" version="1.1" xmlns="http://www.w3.org/2000/svg" xmlns:xlink="http://www.w3.org/1999/xlink">
    <!-- Generator: Sketch 50.2 (55047) - http://www.bohemiancoding.com/sketch -->
    <title>Bitcoin</title>
    <desc>Created with Sketch.</desc>
    <defs></defs>
    <g id="Bitcoin" stroke="none" stroke-width="1" fill="none" fill-rule="evenodd">
        <g fill-rule="nonzero">
            <path d="M24,48 C37.2548348,48 48,37.2548348 48,24 C48,10.7451652 37.2548348,0 24,0 C10.7451652,0 0,10.7451652 0,24 C0,37.2548348 10.7451652,48 24,48 Z" id="Oval" fill="#F7931A"></path>
            <path d="M33.9837538,20.2663385 C34.4541538,17.1219692 32.0600615,15.4316308 28.7864615,14.304 L29.8483692,10.0445538 L27.2556308,9.3984 L26.2217846,13.5456 C25.5401846,13.3757538 24.840123,13.2155077 24.1444923,13.0567385 L25.185723,8.88221536 L22.5944615,8.23606152 L21.5318154,12.4940308 C20.9676308,12.3655385 20.4137846,12.238523 19.8761846,12.1048615 L19.8791385,12.0915692 L16.3035077,11.1987692 L15.6137846,13.968 C15.6137846,13.968 17.537477,14.4088615 17.4968615,14.4361846 C18.5469538,14.6983385 18.7367385,15.3932308 18.7049846,15.944123 L17.4953846,20.7965538 C17.5677538,20.8150154 17.6615385,20.8416 17.764923,20.8829538 C17.678523,20.8615385 17.5862154,20.8379077 17.4909538,20.8150154 L15.7954462,27.6125538 C15.6669538,27.9315692 15.3412923,28.4100923 14.6072615,28.2284308 C14.6331077,28.2660923 12.7227077,27.7580308 12.7227077,27.7580308 L11.4355692,30.7259077 L14.8096,31.5670154 C15.4372923,31.7243077 16.0524308,31.8889846 16.6579692,32.0440615 L15.5849846,36.3522462 L18.1747692,36.9984 L19.2374154,32.736 C19.9448615,32.928 20.6316308,33.1052308 21.3036308,33.272123 L20.244677,37.5145846 L22.8374154,38.1607385 L23.9104,33.860677 C28.3315692,34.6973538 31.656123,34.359877 33.0555077,30.3611077 C34.1831385,27.1414154 32.9993846,25.2841846 30.6732308,24.0731077 C32.3672615,23.6824615 33.643323,22.568123 33.9837538,20.2663385 Z M28.0598154,28.5732923 C27.2585846,31.7929846 21.8375385,30.0524308 20.08,29.616 L21.5037538,23.9084308 C23.2612923,24.347077 28.8972308,25.2155077 28.0598154,28.5732923 Z M28.8617846,20.2198154 C28.1307077,23.1485538 23.6187077,21.6605538 22.155077,21.2957538 L23.4459077,16.1191385 C24.9095385,16.4839385 29.6231385,17.1648 28.8617846,20.2198154 Z" id="Shape" fill="#FFFFFF"></path>
        </g>
    </g>
</svg>