<?xml version="1.0" encoding="UTF-8"?>
<svg width="48px" height="48px" viewBox="0 0 48 48" version="1.1" xmlns="http://www.w3.org/2000/svg" xmlns:xlink="http://www.w3.org/1999/xlink">
    <!-- Generator: Sketch 50.2 (55047) - http://www.bohemiancoding.com/sketch -->
    <title>Cloud</title>
    <desc>Created with Sketch.</desc>
    <defs></defs>
    <g id="Cloud" stroke="none" stroke-width="1" fill="none" fill-rule="evenodd">
        <g fill-rule="nonzero">
            <path d="M0,24 C0,10.7451654 10.7451654,0 24,0 C37.2548346,0 48,10.7451654 48,24 C48,37.2548346 37.2548346,48 24,48 C10.7451654,48 0,37.2548346 0,24 Z" id="back" fill="#1899E2"></path>
            <path d="M34.2390261,23.0857043 C34.2828522,22.8346434 34.3104,22.5773218 34.3104,22.3143652 C34.3104,19.8563478 32.3175652,17.8641391 29.8601739,17.8641391 C29.3248696,17.8641391 28.8121043,17.963687 28.3350261,18.1377391 C26.8862609,15.8913391 24.367513,14.4 21.4956522,14.4 C17.0003478,14.4 13.3565218,18.0438261 13.3565218,22.5391304 C13.3565218,22.7501218 13.3721739,22.9573566 13.3884522,23.1645913 C11.2128,23.7105391 9.6,25.6733218 9.6,28.0173913 C9.6,30.7834434 11.8426434,33.026087 14.6086957,33.026087 L33.3913043,33.026087 C36.1573566,33.026087 38.4,30.7834434 38.4,28.0173913 C38.4,25.5412174 36.6006261,23.4895304 34.2390261,23.0857043 Z" id="Shape" fill="#FFFFFF"></path>
        </g>
    </g>
</svg>