<?xml version="1.0" encoding="UTF-8"?>
<svg width="48px" height="48px" viewBox="0 0 48 48" version="1.1" xmlns="http://www.w3.org/2000/svg" xmlns:xlink="http://www.w3.org/1999/xlink">
    <!-- Generator: Sketch 50.2 (55047) - http://www.bohemiancoding.com/sketch -->
    <title>Creativemarket</title>
    <desc>Created with Sketch.</desc>
    <defs></defs>
    <g id="Creativemarket" stroke="none" stroke-width="1" fill="none" fill-rule="evenodd">
        <g fill-rule="nonzero">
            <circle id="Oval" fill="#8BA651" cx="24" cy="24" r="24"></circle>
            <path d="M37.5999014,22.4082931 C37.5999014,21.3059199 37.1253417,14.7526986 37.1253417,14.7526986 C37.1253417,13.7137757 36.7403827,13.0176466 36.2569035,12.543087 C35.7841682,12.0614322 35.0878366,11.6746488 34.0491164,11.6746488 C34.0491164,11.6746488 27.4956922,11.200089 26.3916973,11.200089 C24.8080748,11.200089 23.7515155,11.1542751 21.7669194,13.1406957 C20.8017854,14.1040052 10.1050355,24.8023769 9.6533828,25.2524078 C9.20335176,25.7024389 7.68115239,27.4780341 10.2775474,30.0742263 L14.3858032,34.1824822 L14.6179138,34.4145927 L18.7261695,38.5244702 C21.3241862,41.122487 23.0997814,39.5968414 23.5498125,39.1468104 C23.9998434,38.6965767 34.6982151,27.998205 35.6615247,27.0348954 C37.647337,25.0484749 37.5999014,23.9937402 37.5999014,22.4082931 Z M26.16729,25.9424554 L29.8326098,27.6831834 L28.4845441,30.0953089 L25.0943107,27.8814402 C25.0156566,27.8295448 24.9264613,27.8027862 24.8370633,27.8027862 C24.7584092,27.8027862 24.6801606,27.8224497 24.6086016,27.8633985 C24.4567668,27.9509721 24.3691932,28.116997 24.3817616,28.2917387 L24.6621188,32.301677 L21.9485536,32.301677 L21.9359851,32.301677 C21.9465264,32.2676206 22.1591762,28.2899143 22.1591762,28.2899143 C22.1717446,28.1151726 22.084171,27.9489449 21.9323362,27.861574 C21.778677,27.7740004 21.5913668,27.7812982 21.4468298,27.879413 L18.1510624,30.1182158 L16.6799476,27.777852 L20.3772967,25.9422526 C20.5362266,25.8674502 20.6379904,25.7064932 20.6379904,25.529927 C20.6379904,25.3531581 20.5362266,25.1924038 20.3772967,25.1176013 L16.7103551,23.3768734 L18.0582182,20.9651533 L21.4468298,23.1806436 C21.5913668,23.2771367 21.778677,23.287678 21.9323362,23.1984827 C22.084171,23.1109091 22.1715419,22.9450869 22.1591762,22.7699397 L21.8806435,18.7600014 L24.5960331,18.7600014 L24.3817616,22.7699397 C24.3691932,22.9448842 24.4567668,23.1109091 24.6086016,23.1984827 C24.7620581,23.287678 24.9513954,23.2771367 25.0943107,23.1806436 L28.3900782,20.9418408 L29.861193,23.2826101 L26.16729,25.117804 C26.0083601,25.1928092 25.9065963,25.3533608 25.9065963,25.5301297 C25.9065963,25.7068986 26.0083601,25.867653 26.16729,25.9424554 Z M32.4371135,18.2526016 C31.4772502,18.2526016 30.7018589,17.4755887 30.7018589,16.5175498 C30.7018589,15.5595108 31.4770474,14.7843223 32.4371135,14.7843223 C33.3915035,14.7843223 34.1666921,15.5595108 34.1666921,16.5175498 C34.1666921,17.4755887 33.3915035,18.2526016 32.4371135,18.2526016 Z" id="Shape" fill="#FFFFFF"></path>
        </g>
    </g>
</svg>