<?xml version="1.0" encoding="UTF-8"?>
<svg width="48px" height="48px" viewBox="0 0 48 48" version="1.1" xmlns="http://www.w3.org/2000/svg" xmlns:xlink="http://www.w3.org/1999/xlink">
    <!-- Generator: Sketch 50.2 (55047) - http://www.bohemiancoding.com/sketch -->
    <title>Google</title>
    <desc>Created with Sketch.</desc>
    <defs></defs>
    <g id="Google" stroke="none" stroke-width="1" fill="none" fill-rule="evenodd">
        <g>
            <path d="M0,24 C0,10.7451654 10.7451654,0 24,0 C37.2548346,0 48,10.7451654 48,24 C48,37.2548346 37.2548346,48 24,48 C10.7451654,48 0,37.2548346 0,24 Z" id="back" fill="#FFFFFF" fill-rule="nonzero"></path>
            <g id="super-g" transform="translate(13.600000, 13.600000)">
                <path d="M10.4,4.02133334 C12.3528889,4.02133334 13.6702222,4.86488889 14.4213334,5.56977778 L17.3564445,2.704 C15.5537778,1.02844445 13.208,0 10.4,0 C6.33244445,0 2.81955555,2.33422222 1.10933334,5.73155555 L4.472,8.34311112 C5.31555555,5.83555555 7.64977778,4.02133334 10.4,4.02133334 Z" id="Shape" fill="#EA4335" fill-rule="nonzero"></path>
                <path d="M20.384,10.6311111 C20.384,9.776 20.3146666,9.152 20.1644445,8.50488888 L10.4,8.50488888 L10.4,12.3644445 L16.1315555,12.3644445 C16.016,13.3235555 15.392,14.768 14.0053334,15.7386666 L17.2871111,18.2808889 C19.2515555,16.4666666 20.384,13.7973334 20.384,10.6311111 Z" id="Shape" fill="#4285F4" fill-rule="nonzero"></path>
                <path d="M4.48355555,12.4568889 C4.264,11.8097778 4.13688889,11.1164445 4.13688889,10.4 C4.13688889,9.68355552 4.264,8.99022224 4.472,8.34311112 L1.10933334,5.73155555 C0.404444445,7.14133334 0,8.72444448 0,10.4 C0,12.0755555 0.404444445,13.6586666 1.10933334,15.0684445 L4.48355555,12.4568889 Z" id="Shape" fill="#FBBC05" fill-rule="nonzero"></path>
                <path d="M10.4,20.8 C13.208,20.8 15.5653334,19.8755555 17.2871111,18.2808889 L14.0053334,15.7386666 C13.1271111,16.3511111 11.9484445,16.7786666 10.4,16.7786666 C7.64977778,16.7786666 5.31555555,14.9644445 4.48355555,12.4568889 L1.12088889,15.0684445 C2.83111111,18.4657778 6.33244445,20.8 10.4,20.8 Z" id="Shape" fill="#34A853" fill-rule="nonzero"></path>
                <polygon id="Shape" points="0 0 20.8 0 20.8 20.8 0 20.8"></polygon>
            </g>
        </g>
    </g>
</svg>