<?xml version="1.0" encoding="UTF-8"?>
<svg width="48px" height="48px" viewBox="0 0 48 48" version="1.1" xmlns="http://www.w3.org/2000/svg" xmlns:xlink="http://www.w3.org/1999/xlink">
    <!-- Generator: Sketch 50.2 (55047) - http://www.bohemiancoding.com/sketch -->
    <title>Hola</title>
    <desc>Created with Sketch.</desc>
    <defs>
        <radialGradient cx="59.7633788%" cy="87.8167257%" fx="59.7633788%" fy="87.8167257%" r="149.071833%" gradientTransform="translate(0.597634,0.878167),scale(1.000000,0.730487),translate(-0.597634,-0.878167)" id="radialGradient-1">
            <stop stop-color="#EFAC00" offset="5%"></stop>
            <stop stop-color="#EB9100" offset="17%"></stop>
            <stop stop-color="#E15600" offset="40%"></stop>
            <stop stop-color="#C82400" offset="63%"></stop>
            <stop stop-color="#B91200" offset="72%"></stop>
            <stop stop-color="#AE0500" offset="81%"></stop>
            <stop stop-color="#AA0000" offset="90%"></stop>
        </radialGradient>
    </defs>
    <g id="Hola" stroke="none" stroke-width="1" fill="none" fill-rule="evenodd">
        <g fill-rule="nonzero">
            <path d="M0,24 C0,10.7451654 10.7451654,0 24,0 C37.2548346,0 48,10.7451654 48,24 C48,37.2548346 37.2548346,48 24,48 C10.7451654,48 0,37.2548346 0,24 Z" id="back" fill="#FFFFFF"></path>
            <g id="Group" transform="translate(11.200000, 7.200000)">
                <path d="M24.952,21.832 C24.9362186,18.9458441 24.4498342,16.081581 23.512,13.352 C22.792,11.272 24.232,8.792 24.232,8.792 C24.232,8.792 23.512,8.872 21.992,10.232 C21.0636696,11.1171677 20.4940513,12.3133661 20.392,13.592 C18.472,9.192 14.632,6.312 13.192,4.392 C11.752,2.472 12.8,0 12.8,0 C9.92,1.28 8.48,4.32 8,8 C7.89096384,10.0210738 6.85840206,11.879685 5.2,13.04 C4.8,9.6 0.88,8.8 0.88,8.8 C1.68,9.04 3.12,12.96 1.6,15.92 C0.61512779,17.7714374 0.0677767218,19.8240038 1.90403249e-15,21.92 C1.90403249e-15,28.64 4.32,34.152 12.392,34.152 C15.719587,34.2826961 18.9536922,33.0348203 21.33107,30.7028701 C23.7084478,28.3709199 25.0184799,25.161489 24.952,21.832 Z" id="Body" fill="url(#radialGradient-1)"></path>
                <ellipse id="Oval" fill="#333333" cx="16.872" cy="20.312" rx="1.76" ry="2.48"></ellipse>
                <ellipse id="Oval" fill="#333333" cx="8" cy="20.312" rx="1.76" ry="2.48"></ellipse>
                <path d="M12.392,32.304 C7.38679605,32.3574512 3.27895718,28.3568666 3.2,23.352 C3.2,22.9101722 3.5581722,22.552 4,22.552 C4.21624237,22.5376945 4.42814381,22.6173748 4.58138449,22.7706155 C4.73462516,22.9238562 4.81430555,23.1357576 4.8,23.352 C4.86572454,27.4959555 8.25558408,30.8144496 12.4,30.792 C14.3950898,30.8154636 16.3175532,30.0442614 17.7433205,28.6485102 C19.1690878,27.252759 19.9810144,25.3471374 20,23.352 C20,22.9101722 20.3581722,22.552 20.8,22.552 C21.0162424,22.5376945 21.2281438,22.6173748 21.3813845,22.7706155 C21.5346252,22.9238562 21.6143055,23.1357576 21.6,23.352 C21.5747974,25.7629713 20.5883486,28.0641654 18.8595791,29.7448718 C17.1308097,31.4255782 14.8027237,32.3467684 12.392,32.304 Z" id="Shape" fill="#333333"></path>
            </g>
        </g>
    </g>
</svg>