<?xml version="1.0" encoding="UTF-8"?>
<svg width="48px" height="48px" viewBox="0 0 48 48" version="1.1" xmlns="http://www.w3.org/2000/svg" xmlns:xlink="http://www.w3.org/1999/xlink">
    <!-- Generator: Sketch 50.2 (55047) - http://www.bohemiancoding.com/sketch -->
    <title>HTML5</title>
    <desc>Created with Sketch.</desc>
    <defs></defs>
    <g id="HTML5" stroke="none" stroke-width="1" fill="none" fill-rule="evenodd">
        <g fill-rule="nonzero">
            <path d="M0,24 C0,10.7451654 10.7451654,0 24,0 C37.2548346,0 48,10.7451654 48,24 C48,37.2548346 37.2548346,48 24,48 C10.7451654,48 0,37.2548346 0,24 Z" id="back" fill="#FFFFFF"></path>
            <polygon id="Shape" fill="#E44D26" points="13.517094 37.1210502 11.2 11.2 36.6608696 11.2 34.3413189 37.1169897 23.9148522 40"></polygon>
            <polygon id="Shape" fill="#F16529" points="23.9304348 37.7043478 32.3777738 35.3803486 34.3652174 13.2869566 23.9304348 13.2869566"></polygon>
            <polygon id="Shape" fill="#EBEBEB" points="23.9304348 22.8428381 19.745415 22.8428381 19.4563847 19.5920145 23.9304348 19.5920145 23.9304348 16.4173913 23.9195004 16.4173913 16 16.4173913 16.075705 17.2690888 16.8530225 26.0173913 23.9304348 26.0173913"></polygon>
            <polygon id="Shape" fill="#EBEBEB" points="23.9304348 31.2196382 23.9166734 31.2233963 20.4193601 30.2550643 20.1957903 27.6869566 18.4963702 27.6869566 17.0434782 27.6869566 17.4834258 32.7428324 23.9159819 34.573913 23.9304348 34.5698003"></polygon>
            <polygon id="Shape" fill="#FFFFFF" points="23.9304348 22.8869566 23.9304348 26.0991047 27.7998929 26.0991047 27.4351461 30.2650649 23.9304348 31.232034 23.9304348 34.573913 30.3724273 32.7488385 30.41969 32.2061474 31.1581103 23.7495184 31.2347826 22.8869566 30.387997 22.8869566"></polygon>
            <polygon id="Shape" fill="#FFFFFF" points="23.9304348 16.4173913 23.9304348 18.3616511 23.9304348 19.5401742 23.9304348 19.5478261 31.5672272 19.5478261 31.5672272 19.5478261 31.5774057 19.5478261 31.6409166 18.8442004 31.7851584 17.2572338 31.8608696 16.4173913"></polygon>
        </g>
    </g>
</svg>