<?xml version="1.0" encoding="UTF-8"?>
<svg width="48px" height="48px" viewBox="0 0 48 48" version="1.1" xmlns="http://www.w3.org/2000/svg" xmlns:xlink="http://www.w3.org/1999/xlink">
    <!-- Generator: Sketch 50.2 (55047) - http://www.bohemiancoding.com/sketch -->
    <title>IE</title>
    <desc>Created with Sketch.</desc>
    <defs></defs>
    <g id="IE" stroke="none" stroke-width="1" fill="none" fill-rule="evenodd">
        <g fill-rule="nonzero">
            <path d="M0,24 C0,10.7451654 10.7451654,0 24,0 C37.2548346,0 48,10.7451654 48,24 C48,37.2548346 37.2548346,48 24,48 C10.7451654,48 0,37.2548346 0,24 Z" id="back" fill="#FFFFFF"></path>
            <path d="M37.4706666,24.224717 C37.4706666,21.9836604 36.8857334,19.8782453 35.86,18.0487358 C40.2321334,8.24701888 31.1752,9.68267928 30.6709334,9.78041512 C28.7521334,10.1523396 26.9769334,10.7494528 25.3394666,11.5063774 C25.098,11.4929057 24.8550666,11.4855094 24.6102666,11.4855094 C18.4992,11.4855094 13.3838666,15.7076981 12.0746666,21.3677925 C15.2956,17.7884151 17.5497334,16.3441698 18.8996,15.7662075 C18.6841334,15.9569246 18.4732,16.1497547 18.2657334,16.3440378 C18.1966666,16.4086226 18.1301334,16.4741321 18.062,16.5391132 C17.9252,16.6694717 17.7886666,16.7999622 17.6553334,16.9316415 C17.576,17.0099622 17.4988,17.0889434 17.4206666,17.1677925 C17.3024,17.2870566 17.1844,17.4061886 17.0689334,17.5261132 C16.9869334,17.6113019 16.9069334,17.6967547 16.8264,17.7820754 C16.7185334,17.8964528 16.6113334,18.0109622 16.5061334,18.1258679 C16.4244,18.215151 16.344,18.304434 16.2637334,18.3939811 C16.164,18.5051886 16.0652,18.6163962 15.9677334,18.7278679 C15.8869334,18.8203207 15.8068,18.9127736 15.7276,19.0053585 C15.6352,19.1133962 15.544,19.221434 15.4537334,19.3294717 C15.3738666,19.4250943 15.2942666,19.5205849 15.2161334,19.6160754 C15.1316,19.7193585 15.0489334,19.8225094 14.9664,19.9255283 C14.8864,20.0253774 14.8064,20.1250943 14.7282666,20.2248114 C14.6538666,20.3197736 14.5816,20.4143396 14.5088,20.5090378 C14.4266666,20.6160189 14.3438666,20.723 14.2638666,20.8294528 C14.2066666,20.9056604 14.1517334,20.9810754 14.0956,21.0570189 C13.5874666,21.7438114 13.1232,22.4173962 12.7038666,23.064434 C12.7028,23.0660189 12.7017334,23.0676038 12.7008,23.0691886 C12.5904,23.239566 12.4838666,23.407434 12.3794666,23.573849 C12.3738666,23.5828302 12.368,23.5919434 12.3624,23.6010566 C12.2578666,23.7681321 12.1569334,23.9323019 12.0585334,24.0947547 C12.0550666,24.100434 12.0514666,24.1062453 12.048,24.1119246 C11.7834666,24.5492264 11.5381334,24.9708114 11.3172,25.367434 C10.1589334,27.4466981 9.59506664,28.8993962 9.57066664,28.9856415 C5.91306666,41.9385472 17.3285334,36.4686415 18.9214666,35.652151 C20.6366666,36.4914906 22.5676,36.9639246 24.6102666,36.9639246 C30.2022666,36.9639246 34.96,33.4281321 36.7309334,28.4904906 L29.9736,28.4904906 C28.9737334,30.1637547 27.0488,31.2970943 24.8373334,31.2970943 C21.5972,31.2970943 18.9706666,28.8653207 18.9706666,25.8654906 L37.3653334,25.8654906 C37.4350666,25.3282075 37.4712,24.7806226 37.4712,24.224717 L37.4706666,24.224717 Z M35.0682666,11.6886415 C36.1757334,12.4290566 37.064,13.591849 35.5385334,17.5077547 C34.0754666,15.1770189 31.8742666,13.3486981 29.258,12.3437358 C30.4481334,11.7743585 33.3954666,10.5700943 35.0682666,11.6886415 Z M11.5322666,35.626 C10.6302666,34.7096604 10.4708,32.477849 12.4612,28.4109811 C13.4657334,31.2718679 15.4702666,33.6690378 18.0612,35.1904151 C16.7726666,35.8929246 13.3518666,37.4746604 11.5322666,35.626 Z M18.9417334,22.3814717 C19.0445334,19.4659057 21.6061334,17.1314717 24.7534666,17.1314717 C27.9006666,17.1314717 30.4624,19.4659057 30.5652,22.3814717 L18.9417334,22.3814717 Z" id="svg" fill="#1EBBEE"></path>
        </g>
    </g>
</svg>