<?xml version="1.0" encoding="UTF-8"?>
<svg width="48px" height="48px" viewBox="0 0 48 48" version="1.1" xmlns="http://www.w3.org/2000/svg" xmlns:xlink="http://www.w3.org/1999/xlink">
    <!-- Generator: Sketch 50.2 (55047) - http://www.bohemiancoding.com/sketch -->
    <title>Mail_ru</title>
    <desc>Created with Sketch.</desc>
    <defs></defs>
    <g id="Mail_ru" stroke="none" stroke-width="1" fill="none" fill-rule="evenodd">
        <g id="Mail.ru" fill-rule="nonzero">
            <path d="M0,24 C0,10.7451654 10.7451654,0 24,0 C37.2548346,0 48,10.7451654 48,24 C48,37.2548346 37.2548346,48 24,48 C10.7451654,48 0,37.2548346 0,24 Z" id="back" fill="#005FF9"></path>
            <path d="M28.2108732,23.960275 C28.2108732,26.2757875 26.3217643,28.159575 23.9997986,28.159575 C21.677745,28.159575 19.7887239,26.2757875 19.7887239,23.960275 C19.7887239,21.64485 21.677745,19.76115 23.9997986,19.76115 C26.3217643,19.76115 28.2108732,21.64485 28.2108732,23.960275 M23.9997986,10 C16.2802408,10 10,16.26255 10,23.960275 C10,31.6580875 16.2802408,37.920725 23.9997986,37.920725 C26.8279778,37.920725 29.5548967,37.081075 31.8856372,35.4926 L31.9260886,35.46495 L30.0400509,33.2784125 L30.0079354,33.2990625 C28.2135934,34.450125 26.1360035,35.0585125 23.9997986,35.0585125 C17.8629366,35.0585125 12.8702978,30.07985 12.8702978,23.960275 C12.8702978,17.8407 17.8629366,12.862125 23.9997986,12.862125 C30.1366605,12.862125 35.129387,17.8407 35.129387,23.960275 C35.129387,24.7532875 35.0411134,25.5561875 34.8673739,26.34605 C34.5151568,27.7863 33.5041338,28.2275625 32.7444188,28.1691125 C31.9808429,28.1076875 31.0870501,27.56475 31.0811711,26.2365875 L31.0811711,23.960275 C31.0811711,20.0666125 27.9044601,16.8989375 23.9997986,16.8989375 C20.095137,16.8989375 16.918426,20.0666125 16.918426,23.960275 C16.918426,27.854025 20.095137,31.0217875 23.9997986,31.0217875 C25.896366,31.0217875 27.6757032,30.281975 29.016831,28.937275 C29.7965524,30.1474 31.0681845,30.9062875 32.5144334,31.02205 C32.638508,31.032025 32.7652148,31.0371 32.8910443,31.0371 C33.9094381,31.0371 34.9186183,30.6976875 35.7324733,30.0815125 C36.5717751,29.4462625 37.1982022,28.5271625 37.5441893,27.4237 C37.6000842,27.2454625 37.7012567,26.8370125 37.7017832,26.8343875 L37.7047666,26.8196875 C37.908691,25.933575 37.9996848,25.0507875 37.9996848,23.960275 C37.9996848,16.26255 31.7193563,10 23.9997986,10" id="Fill-5" fill="#FF9E00"></path>
        </g>
    </g>
</svg>