<?xml version="1.0" encoding="UTF-8"?>
<svg width="48px" height="48px" viewBox="0 0 48 48" version="1.1" xmlns="http://www.w3.org/2000/svg" xmlns:xlink="http://www.w3.org/1999/xlink">
    <!-- Generator: Sketch 50.2 (55047) - http://www.bohemiancoding.com/sketch -->
    <title>Mi</title>
    <desc>Created with Sketch.</desc>
    <defs></defs>
    <g id="Mi" stroke="none" stroke-width="1" fill="none" fill-rule="evenodd">
        <g fill-rule="nonzero">
            <path d="M0,24 C0,10.7451654 10.7451654,0 24,0 C37.2548346,0 48,10.7451654 48,24 C48,37.2548346 37.2548346,48 24,48 C10.7451654,48 0,37.2548346 0,24 Z" id="back" fill="#FF6700"></path>
            <path d="M36.5309388,16 L33.0618775,16 C32.9129796,16 32.7928163,16.117551 32.7928163,16.2612245 L32.7928163,31.9085714 C32.7928163,32.0522449 32.9129796,32.1697959 33.0618775,32.1697959 L36.5309388,32.1697959 C36.6798367,32.1697959 36.8,32.0522449 36.8,31.9085714 L36.8,16.2612245 C36.8,16.117551 36.6772245,16 36.5309388,16 Z M24.6844082,16 L11.4690612,16 C11.3201633,16 11.2,16.117551 11.2,16.2612245 L11.2,31.9085714 C11.2,32.0522449 11.3201633,32.1697959 11.4690612,32.1697959 L14.9381225,32.1697959 C15.0870204,32.1697959 15.2071837,32.0522449 15.2071837,31.9085714 L15.2071837,19.6284082 C15.2071837,19.487347 15.327347,19.3697959 15.4762449,19.3697959 L22.9524898,19.3697959 C25.055347,19.3697959 25.6509388,20.960653 25.6509388,21.9872653 L25.6509388,31.9085714 C25.6509388,32.0522449 25.7711021,32.1697959 25.92,32.1697959 L29.386449,32.1697959 C29.535347,32.1697959 29.6555102,32.0522449 29.6555102,31.9085714 L29.6555102,20.8091429 C29.6555102,19.8922449 29.5431837,18.5756734 28.3493878,17.418449 C27.1007347,16.2089796 25.9591837,16 24.6844082,16 Z M22.2550204,22.2328163 L18.6109388,22.2328163 C18.4620408,22.2328163 18.3418775,22.3503674 18.3418775,22.4940408 L18.3418775,31.9111837 C18.3418775,32.0548571 18.464653,32.1724082 18.6109388,32.1724082 L22.2550204,32.1724082 C22.4013062,32.1724082 22.5240816,32.0548571 22.5240816,31.9111837 L22.5240816,22.4914286 C22.5240816,22.3503674 22.4039184,22.2328163 22.2550204,22.2328163 Z" id="Shape" fill="#FFFFFF"></path>
        </g>
    </g>
</svg>