<?xml version="1.0" encoding="UTF-8"?>
<svg width="48px" height="48px" viewBox="0 0 48 48" version="1.1" xmlns="http://www.w3.org/2000/svg" xmlns:xlink="http://www.w3.org/1999/xlink">
    <!-- Generator: Sketch 50.2 (55047) - http://www.bohemiancoding.com/sketch -->
    <title>Miliao</title>
    <desc>Created with Sketch.</desc>
    <defs></defs>
    <g id="Miliao" stroke="none" stroke-width="1" fill="none" fill-rule="evenodd">
        <g fill-rule="nonzero">
            <path d="M0,24 C0,10.7451654 10.7451654,0 24,0 C37.2548346,0 48,10.7451654 48,24 C48,37.2548346 37.2548346,48 24,48 C10.7451654,48 0,37.2548346 0,24 Z" id="back" fill="#FFFFFF"></path>
            <g id="Page-1" transform="translate(10.400000, 12.000000)">
                <path d="M28,10.6603879 C28,4.77340474 22.0910477,0 14.800404,0 C7.51056836,0 1.6,4.77340474 1.6,10.6603879 C1.6,16.5473712 7.51056836,21.3207759 14.800404,21.3207759 C15.4920577,21.3207759 16.1659352,21.2640846 16.8293086,21.1814774 C18.0259664,23.2045458 20.3231292,24.625067 23.0073271,24.8 C22.3100174,23.8483966 21.9011661,22.7113318 21.9011661,21.4876102 C21.9011661,20.7336163 22.0352952,20.0808569 22.3156735,19.417569 C25.7488936,17.4933054 28,14.2902489 28,10.6603879" id="Fill-1" fill="#4CB350"></path>
                <path d="M15.323886,7.2 L15.2633195,7.2 L13.1691167,7.2 L11.6316598,7.2 L9.53745696,7.2 L8,7.2 L8,8.7752 L8,14.4 L9.53745696,14.4 L9.53745696,8.7752 L10.7821759,8.7752 C11.2364246,8.7752 11.599047,9.144 11.6231183,9.6056 L11.6316598,9.6504 L11.6316598,14.4 L13.1691167,14.4 L13.1691167,8.7752 L14.4138357,8.7752 C14.8680843,8.7752 15.2307068,9.144 15.2547781,9.6056 L15.2633195,9.6504 L15.2633195,14.4 L16.8,14.4 L16.8,8.7176 C16.7976705,7.8792 16.1384276,7.2 15.323886,7.2" id="Fill-2" fill="#FFFFFF"></path>
                <path d="M20.8,7.76569837 C20.8,8.3377636 20.4419634,8.8 20,8.8 C19.5580366,8.8 19.2,8.3377636 19.2,7.76569837 L19.2,7.43430163 C19.2,6.86319141 19.5580366,6.4 20,6.4 C20.4419634,6.4 20.8,6.86319141 20.8,7.43430163 L20.8,7.76569837 Z" id="Fill-3" fill="#FFFFFF"></path>
                <polygon id="Fill-4" fill="#FFFFFF" points="19.2 14.4 20.8 14.4 20.8 9.6 19.2 9.6"></polygon>
                <path d="M1.0997594,11.2076628 C1.0997594,10.935728 1.1256933,10.667864 1.15081677,10.4 C0.418184121,11.5211207 0,12.7961207 0,14.1517242 C0,16.9166666 1.72460428,19.3543103 4.35203242,20.8011015 C4.39012283,21.0266283 4.41929846,21.2545977 4.41929846,21.5021073 C4.41929846,22.424569 4.11133342,23.2818966 3.58617197,24 C5.27349626,23.889272 6.75821198,23.1231322 7.72668102,21.9849138 C8.43662152,22.1143678 9.17168544,22.1900862 9.930252,22.1900862 C10.9278966,22.1900862 11.8898822,22.0679598 12.8,21.8456897 C6.21441054,21.2277299 1.0997594,16.7033525 1.0997594,11.2076628" id="Fill-5" fill="#4CB351"></path>
            </g>
        </g>
    </g>
</svg>