<?xml version="1.0" encoding="UTF-8"?>
<svg width="48px" height="48px" viewBox="0 0 48 48" version="1.1" xmlns="http://www.w3.org/2000/svg" xmlns:xlink="http://www.w3.org/1999/xlink">
    <!-- Generator: Sketch 50.2 (55047) - http://www.bohemiancoding.com/sketch -->
    <title>Nintendo</title>
    <desc>Created with Sketch.</desc>
    <defs></defs>
    <g id="Nintendo" stroke="none" stroke-width="1" fill="none" fill-rule="evenodd">
        <g fill-rule="nonzero">
            <path d="M0,24 C0,10.7451654 10.7451654,0 24,0 C37.2548346,0 48,10.7451654 48,24 C48,37.2548346 37.2548346,48 24,48 C10.7451654,48 0,37.2548346 0,24 Z" id="back" fill="#E8442E"></path>
            <g id="Group" transform="translate(24.400000, 24.276856) scale(-1, 1) rotate(-180.000000) translate(-24.400000, -24.276856) translate(12.000000, 11.876856)" fill="#FFFFFF">
                <path d="M5.28278872,24.5951111 C2.82532124,24.1557302 0.84810728,22.3368978 0.22479952,19.9458483 C1.45283091e-16,19.0824138 -0.01532724,18.5766149 0.01021816,11.878611 C0.0255454,5.72727868 0.03065448,5.58422444 0.13283608,5.10908 C0.69994396,2.54943092 2.51877644,0.72548936 5.10397092,0.12261792 C5.4411702,0.04598172 5.87033292,0.03065448 8.6343452,0.01532724 C11.49543,-0.00510908 11.7917566,6.59194921e-17 11.8683929,0.0766362 C11.945029,0.1532724 11.9501382,1.13932484 11.9501382,12.3179918 C11.9501382,20.6049196 11.9348109,24.5082567 11.8990474,24.5797838 C11.8479566,24.6717473 11.7611022,24.6768564 8.76718128,24.6717473 C6.3352592,24.6666382 5.60466076,24.651311 5.28278872,24.5951111 Z M9.90650616,12.3333191 L9.90650616,1.98232304 L7.82711056,2.00786844 C5.91120556,2.02830476 5.70684236,2.03852292 5.32366136,2.13559544 C3.6785376,2.55964908 2.45746748,3.82670092 2.11515912,5.47693376 C2.00275936,5.99295084 2.00275936,18.7043418 2.11005004,19.2101408 C2.41659484,20.6457922 3.41286544,21.8362079 4.75655348,22.3726613 C5.43095204,22.6434426 5.74260592,22.674097 7.92929216,22.6792061 L9.90650616,22.6843152 L9.90650616,12.3333191 Z" id="Shape"></path>
                <path d="M5.7221696,19.5626673 C5.40029756,19.5013583 4.90982588,19.2561225 4.6492628,19.0262139 C4.1128094,18.5612876 3.84713724,17.9022163 3.88800988,17.1256362 C3.9084462,16.7220188 3.9339916,16.6147282 4.09748216,16.287747 C4.33760892,15.7921662 4.7003536,15.4294216 5.19593436,15.1841858 C5.53824272,15.0155861 5.62509708,14.9951498 6.06958704,14.9798226 C6.47320436,14.9644953 6.6162586,14.9798226 6.88703984,15.071786 C7.9957102,15.4447488 8.66499968,16.5227647 8.47596368,17.626326 C8.25627328,18.9393595 7.00965776,19.8181213 5.7221696,19.5626673 Z" id="Shape"></path>
                <path d="M14.4382601,24.6410928 C14.4178238,24.6257656 14.4024965,19.0875229 14.4024965,12.3333191 C14.4024965,1.19041564 14.4076056,0.06130896 14.4842418,0.03065448 C14.622187,-0.02043632 18.586833,-1.28586378e-16 19.0773047,0.0510908 C21.1515912,0.28610848 22.9806418,1.54805124 23.9769124,3.4230836 C24.1046394,3.66321036 24.273239,4.06682768 24.3600934,4.3171726 C24.6819654,5.27767964 24.6717473,5.02222564 24.6717473,12.3639736 C24.6717473,18.2240883 24.6615291,19.097741 24.590002,19.4707038 C24.0842031,22.1325346 22.0558983,24.140403 19.3889586,24.6002202 C19.031323,24.6615291 18.4795423,24.6768564 16.7015825,24.6768564 C15.4754033,24.6768564 14.4535873,24.6615291 14.4382601,24.6410928 Z M19.8947575,13.5135166 C20.691774,13.3040443 21.3457362,12.6960638 21.6114084,11.9194836 C21.7800081,11.4392301 21.774899,10.734177 21.6062993,10.2947962 C21.2946454,9.48756152 20.6815558,8.92045368 19.8947575,8.71098136 C18.6174875,8.3788912 17.2584722,9.15036224 16.8855094,10.4174141 C16.7731097,10.8057042 16.7782187,11.4596664 16.9059457,11.8581746 C17.2891267,13.1098993 18.6174875,13.8456068 19.8947575,13.5135166 Z" id="Shape"></path>
            </g>
        </g>
    </g>
</svg>