<?xml version="1.0" encoding="UTF-8"?>
<svg width="48px" height="48px" viewBox="0 0 48 48" version="1.1" xmlns="http://www.w3.org/2000/svg" xmlns:xlink="http://www.w3.org/1999/xlink">
    <!-- Generator: Sketch 50.2 (55047) - http://www.bohemiancoding.com/sketch -->
    <title>Outlook</title>
    <desc>Created with Sketch.</desc>
    <defs></defs>
    <g id="Outlook" stroke="none" stroke-width="1" fill="none" fill-rule="evenodd">
        <g fill-rule="nonzero">
            <path d="M0,24 C0,10.7451654 10.7451654,0 24,0 C37.2548346,0 48,10.7451654 48,24 C48,37.2548346 37.2548346,48 24,48 C10.7451654,48 0,37.2548346 0,24 Z" id="back" fill="#FFFFFF"></path>
            <g id="Outlook.com_icon" transform="translate(10.400000, 9.600000)" fill="#0072C6">
                <path d="M17.6,6.4 L17.6,12.29133 L19.5210396,13.5876942 C19.5717044,13.6035311 19.6814779,13.604663 19.7321427,13.5876942 L28,7.61378599 C28,6.90678099 27.3846338,6.4 27.0373705,6.4 L17.6,6.4 Z" id="path3"></path>
                <path d="M17.6010554,13.9141797 L19.3539118,15.1531626 C19.6008525,15.339933 19.8984478,15.1531626 19.8984478,15.1531626 C19.6019078,15.339933 28,9.6 28,9.6 L28,19.9939916 C28,21.125473 27.2961137,21.6 26.5046378,21.6 L17.6,21.6 L17.6,13.9141797 L17.6010554,13.9141797 Z" id="path5"></path>
                <path d="M8.44137928,11.2 C7.81682758,11.2 7.31917242,11.4942274 6.95172414,12.0815762 C6.58427586,12.668925 6.4,13.4465261 6.4,14.4143795 C6.4,15.3966125 6.58427586,16.1731075 6.95172414,16.7438645 C7.31917242,17.3157276 7.80137931,17.6 8.39724136,17.6 C9.01186208,17.6 9.49958624,17.3223643 9.85931032,16.767093 C10.2190345,16.2118216 10.4,15.4408573 10.4,14.4553059 C10.4,13.4277221 10.2256552,12.6279986 9.87586208,12.0561355 C9.52606896,11.4853785 9.04827584,11.2 8.44137928,11.2 Z" id="path25"></path>
                <path d="M9.626708e-16,3.24507042 L9.626708e-16,25.284507 L16.8,28.8 L16.8,0 L0,3.24507042 Z M11.2419097,17.9906704 C10.5319742,18.9230874 9.6063484,19.3903774 8.4639484,19.3903774 C7.3508129,19.3903774 6.44469678,18.938231 5.74343226,18.0350197 C5.04325162,17.1307268 4.69207742,15.9538479 4.69207742,14.5022197 C4.69207742,12.9694648 5.0475871,11.7298479 5.75969032,10.783369 C6.47179355,9.83689016 7.41476129,9.36310984 8.58859352,9.36310984 C9.69739352,9.36310984 10.5948387,9.81525632 11.2787613,10.7217126 C11.9637678,11.628169 12.306271,12.822355 12.306271,14.3053521 C12.3073548,15.8294535 11.9518452,17.0582535 11.2419097,17.9906704 Z" id="path27"></path>
            </g>
        </g>
    </g>
</svg>