<?xml version="1.0" encoding="UTF-8"?>
<svg width="48px" height="48px" viewBox="0 0 48 48" version="1.1" xmlns="http://www.w3.org/2000/svg" xmlns:xlink="http://www.w3.org/1999/xlink">
    <!-- Generator: Sketch 50.2 (55047) - http://www.bohemiancoding.com/sketch -->
    <title>Periscope</title>
    <desc>Created with Sketch.</desc>
    <defs></defs>
    <g id="Periscope" stroke="none" stroke-width="1" fill="none" fill-rule="evenodd">
        <g fill-rule="nonzero">
            <path d="M24,48 C37.254834,48 48,37.254834 48,24 C48,10.745166 37.254834,0 24,0 C10.745166,0 0,10.745166 0,24 C0,37.254834 10.745166,48 24,48 Z" id="Combined-Shape" fill="#34A4C6"></path>
            <g id="1" transform="translate(12.800000, 9.600000)">
                <path d="M11.6672604,28.5356378 C13.8995321,28.5356378 22.7462943,18.5023698 22.7462943,11.7756679 C22.7462943,5.33669434 17.7149886,0 11.6672604,0 C5.30273207,0 0.271698114,5.33669434 0.271698114,11.7756679 C0.271698114,18.5023698 9.1184604,28.5356378 11.6672604,28.5356378 Z" id="Shape" fill="#FFFFFF"></path>
                <path d="M11.704483,17.8951246 C15.286551,17.8951246 18.3491321,14.8637886 18.3491321,11.3175849 C18.3491321,7.38448302 15.286551,4.35287547 11.704483,4.35287547 C7.73116981,4.35287547 4.66886038,7.38448302 4.66886038,11.3175849 C4.66886038,14.8637886 7.73116981,17.8951246 11.704483,17.8951246 Z" id="Shape" fill="#D85444"></path>
                <g id="Shape" transform="translate(5.600000, 4.000000)" fill="#FFFFFF">
                    <path d="M3.221766,5.67299624 C4.70578112,5.67299624 5.9088604,4.48214336 5.9088604,3.0130717 C5.9088604,1.5437283 4.70578112,0.352875472 3.221766,0.352875472 C1.73775094,0.352875472 0.534671696,1.5437283 0.534671696,3.0130717 C0.534671696,4.48214336 1.73775094,5.67299624 3.221766,5.67299624 Z" id="path-1"></path>
                </g>
            </g>
        </g>
    </g>
</svg>