<?xml version="1.0" encoding="UTF-8"?>
<svg width="48px" height="48px" viewBox="0 0 48 48" version="1.1" xmlns="http://www.w3.org/2000/svg" xmlns:xlink="http://www.w3.org/1999/xlink">
    <!-- Generator: Sketch 50.2 (55047) - http://www.bohemiancoding.com/sketch -->
    <title>Playstation</title>
    <desc>Created with Sketch.</desc>
    <defs></defs>
    <g id="Playstation" stroke="none" stroke-width="1" fill="none" fill-rule="evenodd">
        <g fill-rule="nonzero">
            <path d="M0,24 C0,10.7451654 10.7451654,0 24,0 C37.2548346,0 48,10.7451654 48,24 C48,37.2548346 37.2548346,48 24,48 C10.7451654,48 0,37.2548346 0,24 Z" id="back" fill="#FFFFFF"></path>
            <path d="M20.8,35.2 L20.8,14.3006017 L25.260571,12.8 L25.260571,30.3299122 C25.260571,31.1506074 25.6078641,31.6991683 26.1615902,31.5085885 C26.8909866,31.29483 27.0334658,30.5376614 27.0334658,29.7169662 L27.0334658,22.7161614 C29.8118106,21.2945388 32,22.7170199 32,26.4762503 C32,30.3299122 30.7201157,32.0399801 26.9427973,33.414387 C25.458099,33.9449201 22.6951355,34.8282834 20.8,35.2" id="path3107" fill="#000000" transform="translate(26.400000, 24.000000) scale(-1, 1) rotate(-180.000000) translate(-26.400000, -24.000000) "></path>
            <path d="M26.4,29.8519037 L33.6728291,32.4788522 C34.4954248,32.7774825 34.6234935,33.2000569 33.9544162,33.422158 C33.283697,33.6450909 32.0695065,33.5802074 31.244448,33.2807453 L26.4,31.5521832 L26.4,34.3055713 L26.6791242,34.400401 C26.6791242,34.400401 28.0796714,34.9020001 30.0491394,35.1224375 C32.0177864,35.3428749 34.4289275,35.094155 36.3204049,34.3671274 C38.4540637,33.6825237 38.6946031,32.6768299 38.1535946,31.9839078 C37.6101232,31.2909857 36.2818201,30.7960413 36.2818201,30.7960413 L26.4,27.2 L26.4,29.8519037" id="path3111" fill="#000000" transform="translate(32.400000, 31.200000) scale(-1, 1) rotate(-180.000000) translate(-32.400000, -31.200000) "></path>
            <path d="M11.8829905,25.5836635 C9.48490568,26.2275262 9.08507512,27.5684068 10.1758488,28.3408706 C11.1884534,29.0550353 12.9036815,29.5943025 12.9036815,29.5943025 L20,32 L20,29.258225 L14.8947478,27.513537 C13.9908613,27.2031797 13.8533914,26.7685081 14.5856654,26.5387409 C15.3197363,26.3089736 16.6477128,26.3741314 17.550701,26.6844887 L20,27.5306838 L20,25.0769753 C19.8436618,25.0495404 19.6702521,25.0238201 19.5112184,24.9980999 C17.0601223,24.6157261 14.4517895,24.7743341 11.8829905,25.5836635" id="path3115" fill="#000000" transform="translate(14.800000, 28.400000) scale(-1, 1) rotate(-180.000000) translate(-14.800000, -28.400000) "></path>
        </g>
    </g>
</svg>