<?xml version="1.0" encoding="UTF-8"?>
<svg width="48px" height="48px" viewBox="0 0 48 48" version="1.1" xmlns="http://www.w3.org/2000/svg" xmlns:xlink="http://www.w3.org/1999/xlink">
    <!-- Generator: Sketch 50.2 (55047) - http://www.bohemiancoding.com/sketch -->
    <title>Quora</title>
    <desc>Created with Sketch.</desc>
    <defs></defs>
    <g id="Quora" stroke="none" stroke-width="1" fill="none" fill-rule="evenodd">
        <g fill-rule="nonzero">
            <path d="M0,24 C0,10.7451654 10.7451654,0 24,0 C37.2548346,0 48,10.7451654 48,24 C48,37.2548346 37.2548346,48 24,48 C10.7451654,48 0,37.2548346 0,24 Z" id="back" fill="#B92B27"></path>
            <path d="M24.8017909,32.644659 C23.7784869,30.631299 22.5778594,28.5939266 20.2338651,28.5939266 C19.7868623,28.5939266 19.3380123,28.6678114 18.9279519,28.8525233 L18.1336906,27.2640008 C19.1015811,26.4291029 20.6697853,25.7678342 22.6849923,25.7678342 C25.8195536,25.7678342 27.4283944,27.282472 28.7066009,29.2071702 C29.4639198,27.5632341 29.8222609,25.3393026 29.8222609,22.5852479 C29.8222609,15.706576 27.6722142,12.1748842 22.6480499,12.1748842 C17.6977705,12.1748842 15.5551122,15.706576 15.5551122,22.5852479 C15.5551122,29.4269774 17.6977705,32.9217269 22.6480499,32.9217269 C23.4349227,32.9217269 24.1479107,32.8367594 24.8017909,32.644659 Z M26.0301252,35.0459139 C24.9440191,35.3359116 23.7914167,35.496611 22.649897,35.496611 C16.0556815,35.496611 9.6,30.2360155 9.6,22.5852479 C9.6,14.8642897 16.0538344,9.6 22.6480499,9.6 C29.3530926,9.6 35.744125,14.823653 35.744125,22.5852479 C35.744125,26.9019654 33.730765,30.4096447 30.8030811,32.6779071 C31.7451119,34.0946475 32.7203909,35.0366783 34.0761763,35.0366783 C35.5538717,35.0366783 36.1523383,33.8951586 36.2520827,32.9974587 L38.1804752,32.9974587 C38.2913023,34.1925449 37.6946828,39.1557541 32.3066362,39.1557541 C29.0464708,39.1557541 27.3194143,37.2643041 26.026431,35.047761 L26.0301252,35.0459139 Z" id="Shape" fill="#FFFFFF"></path>
        </g>
    </g>
</svg>