<?xml version="1.0" encoding="UTF-8"?>
<svg width="48px" height="48px" viewBox="0 0 48 48" version="1.1" xmlns="http://www.w3.org/2000/svg" xmlns:xlink="http://www.w3.org/1999/xlink">
    <!-- Generator: Sketch 50.2 (55047) - http://www.bohemiancoding.com/sketch -->
    <title>Renren</title>
    <desc>Created with Sketch.</desc>
    <defs></defs>
    <g id="Renren" stroke="none" stroke-width="1" fill="none" fill-rule="evenodd">
        <g fill-rule="nonzero">
            <path d="M0,24 C0,10.7451654 10.7451654,0 24,0 C37.2548346,0 48,10.7451654 48,24 C48,37.2548346 37.2548346,48 24,48 C10.7451654,48 0,37.2548346 0,24 Z" id="back" fill="#FFFFFF"></path>
            <g id="Page-1" transform="translate(7.200000, 14.400000)">
                <path d="M11.02576,0 L11.02416,6.8824 C11.02416,6.8824 11.20976,9.7584 12.88416,12.2432 C14.47056,14.5968 15.99216,15.4888 16.78656,15.8168 C18.27536,14.128 19.17936,11.9112 19.17936,9.4832 C19.17936,4.6744 15.64096,0.6928 11.02576,0" id="Fill-1" fill="#0661A7"></path>
                <path d="M11.2464,15.51992 C9.8104,13.75352 9.4424,12.04072 9.4424,12.04072 C9.4424,12.04072 9.1112,13.82632 7.9696,15.33592 C7.2528,16.28472 5.7936,17.42152 5.0848,17.94872 C6.428,18.66552 7.9608,19.07192 9.5896,19.07192 C11.196,19.07192 12.7096,18.67512 14.04,17.97672 C13.2128,17.33112 11.7792,16.17592 11.2464,15.51992" id="Fill-2" fill="#0661A7"></path>
                <path d="M7.88,7.0344 L7.8776,0.048 C3.3976,0.856 0,4.7712 0,9.4832 C0,11.8856 0.8864,14.0816 2.3472,15.764 C3.1264,15.2848 4.7824,14.1512 5.8528,12.5848 C7.5104,10.164 7.88,7.0344 7.88,7.0344" id="Fill-3" fill="#0661A7"></path>
                <path d="M25.4644,0.05312 L25.4636,6.93552 C25.4636,6.93552 25.6484,9.81152 27.3236,12.29632 C28.9092,14.64992 30.4308,15.54192 31.2252,15.86992 C32.714,14.18032 33.618,11.96432 33.618,9.53552 C33.618,4.72672 30.0796,0.74592 25.4644,0.05312" id="Fill-4" fill="#0661A7"></path>
                <path d="M25.68512,15.57304 C24.24992,13.80584 23.88192,12.09384 23.88192,12.09384 C23.88192,12.09384 23.55072,13.87944 22.40832,15.38904 C21.69152,16.33704 20.23232,17.47464 19.52352,18.00184 C20.86752,18.71784 22.40032,19.12504 24.02832,19.12504 C25.63472,19.12504 27.14832,18.72824 28.47952,18.02904 C27.65152,17.38344 26.21872,16.22824 25.68512,15.57304" id="Fill-5" fill="#0661A7"></path>
                <path d="M22.31912,7.08752 L22.31592,0.10112 C17.83672,0.90912 14.43912,4.82352 14.43912,9.53552 C14.43912,11.93872 15.32472,14.13392 16.78632,15.81712 C17.56552,15.33792 19.22072,14.20352 20.29192,12.63792 C21.94872,10.21712 22.31912,7.08752 22.31912,7.08752" id="Fill-6" fill="#0661A7"></path>
                <path d="M14.47688,9.50352 C14.47688,11.91552 15.32328,14.12592 16.78648,15.81712 C18.24888,14.12592 19.17608,11.91552 19.17608,9.50352 C19.17608,7.09232 18.28888,4.88912 16.82648,3.19792 C15.36328,4.88912 14.47688,7.09232 14.47688,9.50352" id="Fill-7" fill="#CE392C"></path>
            </g>
        </g>
    </g>
</svg>