<?xml version="1.0" encoding="UTF-8"?>
<svg width="48px" height="48px" viewBox="0 0 48 48" version="1.1" xmlns="http://www.w3.org/2000/svg" xmlns:xlink="http://www.w3.org/1999/xlink">
    <!-- Generator: Sketch 50.2 (55047) - http://www.bohemiancoding.com/sketch -->
    <title>Share</title>
    <desc>Created with Sketch.</desc>
    <defs></defs>
    <g id="Share" stroke="none" stroke-width="1" fill="none" fill-rule="evenodd">
        <g fill-rule="nonzero">
            <circle id="Oval" fill="#228CC4" cx="24" cy="24" r="24"></circle>
            <path d="M16.4639186,21.0216866 L27.2184124,15.9685438 C27.0815817,15.5143982 27.008,15.0325242 27.008,14.5333334 C27.008,11.8087286 29.2000138,9.6 31.904,9.6 C34.6079862,9.6 36.8,11.8087286 36.8,14.5333334 C36.8,17.2579381 34.6079862,19.4666666 31.904,19.4666666 C30.7541182,19.4666666 29.696822,19.0672374 28.8613127,18.3985652 L17.7323495,23.6276569 C17.7716142,23.8792947 17.792,24.1372486 17.792,24.4 C17.792,24.6627514 17.7716142,24.9207053 17.7323495,25.1723431 L28.861313,30.4014355 C29.696822,29.7327626 30.7541182,29.3333334 31.904,29.3333334 C34.6079862,29.3333334 36.8,31.5420619 36.8,34.2666666 C36.8,36.9912714 34.6079862,39.2 31.904,39.2 C29.2000138,39.2 27.008,36.9912714 27.008,34.2666666 C27.008,33.7674758 27.0815817,33.2856018 27.2184124,32.8314562 L16.4639186,27.7783134 C15.5708814,28.7355402 14.3027234,29.3333334 12.896,29.3333334 C10.1920138,29.3333334 8,27.1246048 8,24.4 C8,21.6753952 10.1920138,19.4666666 12.896,19.4666666 C14.3027234,19.4666666 15.5708814,20.0644598 16.4639186,21.0216866 Z" id="Combined-Shape" fill="#FFFFFF"></path>
        </g>
    </g>
</svg>