<?xml version="1.0" encoding="UTF-8"?>
<svg width="48px" height="48px" viewBox="0 0 48 48" version="1.1" xmlns="http://www.w3.org/2000/svg" xmlns:xlink="http://www.w3.org/1999/xlink">
    <!-- Generator: Sketch 50.2 (55047) - http://www.bohemiancoding.com/sketch -->
    <title>Skype</title>
    <desc>Created with Sketch.</desc>
    <defs></defs>
    <g id="Skype" stroke="none" stroke-width="1" fill="none" fill-rule="evenodd">
        <g fill-rule="nonzero">
            <circle id="Oval" fill="#FFFFFF" cx="24" cy="24" r="24"></circle>
            <path d="M36.0639699,26.7175795 C36.5350894,27.6523735 36.8,28.7043877 36.8,29.8187214 C36.8,33.6736336 33.6301035,36.8 29.7196614,36.8 C28.5079962,36.8 27.3700846,36.4987886 26.3721543,35.9705558 C25.6466604,36.102614 24.9000941,36.1723526 24.1354657,36.1723526 C17.392286,36.1723526 11.9254939,30.7831914 11.9254939,24.1328001 C11.9254939,23.3048398 12.0112888,22.494685 12.1723424,21.7142062 C11.555221,20.6755463 11.2,19.4707007 11.2,18.1827624 C11.2,14.3248826 14.3698965,11.2 18.2818438,11.2 C19.6650988,11.2 20.9565381,11.593207 22.0477893,12.2713035 C22.7281279,12.1555671 23.4250235,12.0947314 24.1354657,12.0947314 C30.8801505,12.0947314 36.3454374,17.4853765 36.3454374,24.1328001 C36.3454374,25.0201125 36.2491063,25.883684 36.0639699,26.7175795 Z M30.3984948,29.8869762 C30.9644402,29.0961108 31.2534337,28.1924766 31.2534337,27.2012983 C31.2534337,26.3718542 31.0863594,25.6596302 30.7567262,25.0794645 C30.4270931,24.5037501 29.9650047,24.0229989 29.3809972,23.6475975 C28.8060207,23.2781314 28.1046096,22.9635658 27.2903105,22.7083522 C26.4880527,22.4546224 25.5804327,22.2186982 24.5915334,22.0109662 C23.8103481,21.8329102 23.2413923,21.6949168 22.9027282,21.6014374 C22.5715898,21.5124094 22.2404515,21.3848026 21.9198495,21.2260361 C21.6097836,21.0717209 21.3644402,20.8906973 21.1928504,20.6799977 C21.0272813,20.4841361 20.947507,20.2541471 20.947507,19.9811279 C20.947507,19.5330203 21.1958608,19.1546514 21.7046096,18.8267316 C22.2329257,18.4839738 22.9463782,18.311853 23.8193791,18.311853 C24.7631232,18.311853 25.4479774,18.4661682 25.8588899,18.7747986 C26.2818438,19.0923318 26.6506114,19.5419231 26.9546566,20.1117023 C27.2180621,20.5568423 27.4558796,20.8684402 27.684666,21.0687533 C27.9285042,21.2824205 28.2837253,21.3922217 28.7352775,21.3922217 C29.231985,21.3922217 29.6549389,21.218617 29.9890875,20.8743754 C30.321731,20.5345853 30.4903105,20.1428621 30.4903105,19.7125602 C30.4903105,19.2659363 30.3608654,18.8044746 30.1079962,18.3400452 C29.8581374,17.8800672 29.457761,17.4393786 28.9204139,17.0239147 C28.3875823,16.6129021 27.710254,16.280531 26.9049859,16.0342202 C26.1042333,15.7879094 25.1454374,15.6632702 24.0556914,15.6632702 C22.6904986,15.6632702 21.4863594,15.850229 20.4733772,16.2196951 C19.4453434,16.5921289 18.6476011,17.1411349 18.1027282,17.8429722 C17.5518344,18.549261 17.2733772,19.3698023 17.2733772,20.2778879 C17.2733772,21.2319713 17.539793,22.0436098 18.0635936,22.6920304 C18.5798683,23.3285806 19.285795,23.8375239 20.1618062,24.2040225 C21.016745,24.5645858 22.0929445,24.8806353 23.3618062,25.1477192 C24.293509,25.3406132 25.0460959,25.5260882 25.6015052,25.6952414 C26.1328316,25.861427 26.5708373,26.098835 26.9049859,26.4044978 C27.2210724,26.6982902 27.3761054,27.0722078 27.3761054,27.5455399 C27.3761054,28.1479626 27.0810913,28.6405842 26.4714958,29.0486292 C25.8498589,29.4670608 25.0220132,29.680728 24.0120414,29.680728 C23.2790216,29.680728 22.6814675,29.5738944 22.2389464,29.36913 C21.7994355,29.1628818 21.4547507,28.9002492 21.2139229,28.5856837 C20.9655691,28.263699 20.730762,27.8512027 20.514017,27.3615487 C20.3198495,26.914925 20.0790216,26.5662319 19.7975541,26.3303078 C19.5040451,26.0854808 19.1412982,25.9623254 18.7228598,25.9623254 C18.2111006,25.9623254 17.7821261,26.1181244 17.4479774,26.4297224 C17.1108184,26.7428042 16.9392286,27.1256246 16.9392286,27.5648293 C16.9392286,28.2726018 17.2011289,29.0041152 17.7204139,29.74008 C18.2336782,30.4730771 18.9095014,31.0636295 19.7298213,31.4998667 C20.878269,32.1008057 22.3488241,32.4049846 24.1023518,32.4049846 C25.5638758,32.4049846 26.8462841,32.1809309 27.9164629,31.7417261 C29.0001882,31.2995537 29.8340546,30.6763578 30.3984948,29.8869762 Z" id="Shape" fill="#00AEF3"></path>
        </g>
    </g>
</svg>