<?xml version="1.0" encoding="UTF-8"?>
<svg width="48px" height="48px" viewBox="0 0 48 48" version="1.1" xmlns="http://www.w3.org/2000/svg" xmlns:xlink="http://www.w3.org/1999/xlink">
    <!-- Generator: Sketch 50.2 (55047) - http://www.bohemiancoding.com/sketch -->
    <title>Tidal</title>
    <desc>Created with Sketch.</desc>
    <defs></defs>
    <g id="Tidal" stroke="none" stroke-width="1" fill="none" fill-rule="evenodd">
        <g fill-rule="nonzero">
            <circle id="Oval" fill="#FFFFFF" cx="24" cy="24" r="24"></circle>
            <path d="M28.7899004,21.4987821 C29.574569,20.7332882 30.3392546,19.9478112 31.1179409,19.176335 C31.9051018,18.381748 32.7071149,17.6094391 33.4794238,16.8 L33.5388322,16.8 C33.835874,17.1564502 34.1848982,17.4609182 34.5042182,17.7950902 C35.7072378,18.9981098 36.9029798,20.1937034 38.105851,21.396723 C38.1654078,21.4635574 38.2619464,21.5229658 38.2840761,21.6195044 C36.6726239,23.1864002 35.1131541,24.8127046 33.4942758,26.3796004 L28.927257,21.8125816 C28.8826056,21.763465 28.8298998,21.7224029 28.7868971,21.6748662 C28.7514123,21.7126278 28.7108365,21.7466624 28.6746215,21.7828774 C27.1375783,23.312643 25.6076642,24.8498348 24.0704725,26.3796004 C22.4664464,24.7978525 20.8921244,23.1864002 19.2806722,21.6120783 C20.8401421,19.9857741 22.4812985,18.4188782 24.0481943,16.8 L24.1076027,16.8 C24.1523075,16.8668344 24.1967153,16.9262428 24.2561237,16.9856512 C25.7700719,18.4849719 27.2625546,20.0059021 28.7899004,21.4987821 Z M14.35267,16.8 L14.4120783,16.8 C14.8652158,17.3198233 15.3774644,17.7802382 15.8601575,18.2777834 L19.1424702,21.560096 L19.1424702,21.6195044 C17.5534447,23.2012524 15.9715482,24.7978525 14.3823742,26.3796004 C12.7857741,24.7904264 11.1966001,23.1938263 9.6,21.6046523 C9.68183504,21.4487053 9.83763352,21.3447406 9.95645024,21.2184978 C11.4193814,19.7407146 12.9045909,18.2852094 14.35267,16.8 Z M19.3252286,31.188786 C20.8921244,29.6218901 22.4664464,28.0549942 24.0333422,26.4806722 L24.1000282,26.5103765 C25.6743501,28.0921244 27.248672,29.6738724 28.837846,31.2407683 C28.7860122,31.359585 28.6746215,31.4264194 28.5927865,31.5229581 C27.4493238,32.6591432 26.3055641,33.8101805 25.1619529,34.9463657 C24.7906505,35.3028159 24.4342002,35.7038224 24.0556204,36.0379946 C23.513519,35.5478754 23.0159738,34.998348 22.488576,34.4933768 C21.4193738,33.4240261 20.357449,32.3546753 19.2806722,31.2927506 C19.2955244,31.2630464 19.3103765,31.2184902 19.3252286,31.188786 Z" id="Combined-Shape" fill="#000000"></path>
        </g>
    </g>
</svg>