<?xml version="1.0" encoding="UTF-8"?>
<svg width="48px" height="48px" viewBox="0 0 48 48" version="1.1" xmlns="http://www.w3.org/2000/svg" xmlns:xlink="http://www.w3.org/1999/xlink">
    <!-- Generator: Sketch 50.2 (55047) - http://www.bohemiancoding.com/sketch -->
    <title>Tinder</title>
    <desc>Created with Sketch.</desc>
    <defs></defs>
    <g id="Tinder" stroke="none" stroke-width="1" fill="none" fill-rule="evenodd">
        <g fill-rule="nonzero">
            <circle id="Oval" fill="#FFFFFF" cx="24" cy="24" r="24"></circle>
            <path d="M26.4373742,10.9547196 C27.2378903,11.6526054 27.8333512,12.5762779 28.6133413,13.2946898 C29.5780658,14.2183623 30.1938474,15.3883474 30.9943636,16.4351762 C32.3901353,18.5493598 33.6216986,20.8072258 34.2580063,23.2703525 C34.9148401,24.953489 35.0174703,26.7803078 34.9764182,28.5866006 C35.0174703,30.228685 34.5658971,31.8502433 33.8267539,33.3281193 C32.5543438,35.5654592 30.2554256,37.0638612 27.853672,37.8643774 C24.856868,38.5827893 21.5521732,38.7059456 18.6579994,37.4333302 C17.6109654,36.8586006 16.4206595,36.4686056 15.5790913,35.5654592 C13.6291161,33.964427 12.500183,31.357618 12.869652,28.8329133 C13.4443815,24.3377073 16.1332947,20.478809 19.0069424,17.1535882 C19.2737811,17.6462134 19.0477892,18.220943 19.232729,18.7340943 C19.4790416,19.8219753 19.8690366,20.9714343 20.6900789,21.7514244 C21.6958555,20.8277519 22.7634157,19.9040794 23.6255099,18.8367246 C24.4055,17.6872655 25.0416025,16.4146502 25.3084412,15.0599306 C25.3702246,13.3357419 25.534433,11.5294491 24.877394,9.8873648 L24.9389722,9.6 C25.5547538,9.8873648 25.9447489,10.4826203 26.4373742,10.9547196 Z" id="Shape" stroke="#DF4723" stroke-width="0.0938" fill="#DF4723"></path>
        </g>
    </g>
</svg>