<?xml version="1.0" encoding="UTF-8"?>
<svg width="48px" height="48px" viewBox="0 0 48 48" version="1.1" xmlns="http://www.w3.org/2000/svg" xmlns:xlink="http://www.w3.org/1999/xlink">
    <!-- Generator: Sketch 50.2 (55047) - http://www.bohemiancoding.com/sketch -->
    <title>Utorrent</title>
    <desc>Created with Sketch.</desc>
    <defs></defs>
    <g id="Utorrent" stroke="none" stroke-width="1" fill="none" fill-rule="evenodd">
        <g fill-rule="nonzero">
            <path d="M24,48 C37.2548348,48 48,37.2548348 48,24 C48,10.7451652 37.2548348,0 24,0 C10.7451652,0 0,10.7451652 0,24 C0,37.2548348 10.7451652,48 24,48 Z" id="Oval" fill="#FFFFFF"></path>
            <g id="Group-2" transform="translate(9.600000, 9.600000)" fill="#00853E">
                <path d="M0.0219979497,13.6345838 C0.323393298,6.13318843 7.42292818,-0.457323199 14.9645096,0.0249093586 C22.9883235,0.333002382 29.9137189,8.45058376 28.3665561,16.4743978 C27.073905,16.4610024 25.7879514,15.9854675 25.0846956,14.8401652 C23.2160445,12.0204442 22.3587422,8.67830472 20.6575328,5.76481634 C19.4385561,5.9590489 18.226277,6.1934675 17.0206956,6.46137447 C17.4828351,9.73653728 19.5390212,12.4758861 20.2958584,15.6572814 C19.9475794,18.4368163 16.4513933,19.9973745 14.0402305,18.7047233 C12.0376258,17.9344907 11.2138119,15.7979326 10.5172538,13.9493745 C9.84748632,12.0204442 9.09064912,10.1183047 8.07260264,8.34342096 C6.52543981,8.30993264 4.9313933,8.35681632 3.53157934,9.10695584 C4.79074214,15.5568163 8.32041656,21.303421 9.7805096,27.6997001 C3.95353283,25.8377466 -0.346374143,19.7830489 0.0219979497,13.6345838 Z" id="Shape"></path>
                <path d="M18.3401375,21.6517001 C19.8404166,20.8479791 20.9589282,19.5218396 22.238184,18.4301186 C24.0398584,18.8654675 25.8750212,19.1266768 27.7235794,19.247235 C25.674091,23.9557001 21.3808817,27.6059326 16.2973468,28.583793 C14.9310212,26.5878861 14.0670212,24.3173745 13.3972538,22.0066768 C15.0448817,21.9999791 16.7594863,22.2143047 18.3401375,21.6517001 Z" id="Shape"></path>
            </g>
        </g>
    </g>
</svg>