<?xml version="1.0" encoding="UTF-8"?>
<svg width="48px" height="48px" viewBox="0 0 48 48" version="1.1" xmlns="http://www.w3.org/2000/svg" xmlns:xlink="http://www.w3.org/1999/xlink">
    <!-- Generator: Sketch 50.2 (55047) - http://www.bohemiancoding.com/sketch -->
    <title>Viadeo</title>
    <desc>Created with Sketch.</desc>
    <defs></defs>
    <g id="Viadeo" stroke="none" stroke-width="1" fill="none" fill-rule="evenodd">
        <g fill-rule="nonzero">
            <path d="M0,24 C0,10.7451654 10.7451654,0 24,0 C37.2548346,0 48,10.7451654 48,24 C48,37.2548346 37.2548346,48 24,48 C10.7451654,48 0,37.2548346 0,24 Z" id="back" fill="#1A1919"></path>
            <g id="Group" transform="translate(12.800000, 8.800000)">
                <path d="M23.3249501,0.654572425 C22.1087031,3.24301074 19.8569858,3.72386972 19.8569858,3.72386972 C17.6049094,4.29680042 16.8166378,5.16716595 16.8166378,5.16716595 C14.5649206,7.43461202 16.3387561,10.1847154 16.3387561,10.1847154 C21.2005123,9.07661776 22.9779382,5.07437491 22.9779382,5.07437491 C22.7617963,7.7629772 16.9744358,10.9394518 16.9744358,10.9394518 C18.8884763,12.8173913 20.7185015,12.5909883 21.926311,11.8709586 C23.5276279,10.916254 24.2954343,8.82539856 24.2954343,8.82539856 C25.8470242,4.18225024 23.3249501,0.654572425 23.3249501,0.654572425 Z M15.3557054,8.50063 C15.4095614,9.27730536 16.2899266,23.4576098 8.8,26.3014034 C8.8,26.3014034 9.48899712,26.4299801 10.265959,26.3934751 C10.265959,26.3934751 19.7893069,20.3766238 15.4205121,8.69448408 C15.4205121,8.69448408 15.3987902,8.62668912 15.3557054,8.50063 Z M11.3676722,0 C13.7630054,4.02633972 15.0621905,7.64087426 15.3557054,8.50063 C15.3542693,8.47869104 15.3531922,8.46538376 15.3531922,8.46538376 C14.7675984,2.25809504 11.3676722,0 11.3676722,0 Z" id="Fill-8" fill="#E2652C"></path>
                <path d="M17.4978087,18.5090381 C17.4978087,19.9393079 17.1617278,21.2727751 16.4900973,22.5090796 C15.8177585,23.7453841 14.9102692,24.7000969 13.7665672,25.3728582 C12.6228652,26.0454394 11.3674313,26.3817301 9.99991144,26.3817301 C8.63256872,26.3817301 7.37713482,26.0454394 6.23343279,25.3728582 C5.08973076,24.7000969 4.18224154,23.7453841 3.51025684,22.5090796 C2.83827214,21.2727751 2.50201418,19.9393079 2.50201418,18.5090381 C2.50201418,16.2908512 3.23916104,14.3997786 4.71274646,12.8363598 C6.18597774,11.2725813 7.94872022,10.4909619 9.99991144,10.4909619 C10.9759272,10.4909619 11.8864266,10.6719723 12.7342429,11.0296747 C12.8188829,10.1237232 13.1319445,9.28056744 13.4784726,8.59215224 C12.4117965,8.19882352 11.2560536,8 10.0089421,8 C7.04335585,8 4.58968207,9.10909344 2.64809782,11.3272802 C0.8825222,13.3394464 0,15.7152526 0,18.454699 C0,21.2182561 0.932633312,23.633647 2.79772286,25.6999723 C4.66298949,27.7666574 7.06655216,28.8 10.0089421,28.8 C12.938937,28.8 15.3370105,27.7666574 17.2021001,25.6999723 C19.0671896,23.633647 20,21.2182561 20,18.454699 C20,16.9756678 19.7427158,15.6045951 19.232574,14.3391418 C18.3762583,14.874436 17.5624397,15.1545882 16.8885072,15.2974533 C17.2934687,16.2786159 17.4978087,17.3486643 17.4978087,18.5090381" id="Fill-10" fill="#FFFFFE"></path>
            </g>
        </g>
    </g>
</svg>