<?xml version="1.0" encoding="UTF-8"?>
<svg width="48px" height="48px" viewBox="0 0 48 48" version="1.1" xmlns="http://www.w3.org/2000/svg" xmlns:xlink="http://www.w3.org/1999/xlink">
    <!-- Generator: Sketch 50.2 (55047) - http://www.bohemiancoding.com/sketch -->
    <title>Xbox</title>
    <desc>Created with Sketch.</desc>
    <defs></defs>
    <g id="Xbox" stroke="none" stroke-width="1" fill="none" fill-rule="evenodd">
        <g fill-rule="nonzero">
            <path d="M0,24 C0,10.7451654 10.7451654,0 24,0 C37.2548346,0 48,10.7451654 48,24 C48,37.2548346 37.2548346,48 24,48 C10.7451654,48 0,37.2548346 0,24 Z" id="back" fill="#FFFFFF"></path>
            <path d="M20.8809768,38.636951 C17.4170825,37.7515544 13.5543445,35.2707393 13.5543445,33.9314742 C13.5543445,32.1385395 17.4747571,27.1202784 21.7720764,23.4124969 L24.1895675,21.3266552 L25.2738048,22.081839 C26.976983,23.2681245 32.4265766,28.9127014 33.6457717,30.7533482 C35.62398,33.7398972 35.5357506,34.4057914 32.9115874,36.2945807 C29.7466064,38.5726342 24.571401,39.5802508 20.8809768,38.636951 Z M11.9136928,32.4678782 C9.6550324,29.150625 8.92938392,23.6881416 10.2762847,20.1419441 C11.1105051,17.9455584 13.0768896,14.9546186 14.1481457,14.2527046 C14.9219531,13.7456858 15.0702199,13.7510286 16.1346986,14.3242893 C16.7673854,14.6650126 18.0880267,15.662993 19.0694555,16.5420236 L20.8538774,18.1402613 L18.9429618,20.5068302 C15.1032125,25.2621523 12.1459041,31.1974246 12.718055,33.0001154 C13.0067424,33.9096889 12.8040992,33.7756024 11.9136928,32.4678782 Z M35.8104735,32.3647958 C35.7721854,29.5904784 33.6011022,25.398667 29.6705866,20.5102162 L27.7704876,18.1470333 L29.4740379,16.58375 C30.4109883,15.723944 31.7423848,14.7179851 32.4326917,14.3482858 L33.6878019,13.6761054 L35.0780886,15.0311494 C35.842749,15.7764238 36.9591526,17.380836 37.5589835,18.5965098 C38.4987576,20.5011454 38.6658202,21.2411282 38.7669865,23.9471798 C38.9026681,27.5765959 38.3502041,29.9197303 36.8195412,32.2067498 L35.828723,33.6871682 L35.8104906,32.3647958 L35.8104735,32.3647958 Z M22.608523,14.3219156 C21.8608009,13.8792212 20.2902519,13.2574884 19.1184134,12.9402866 C17.946575,12.6230851 17.0567729,12.2519573 17.141069,12.1155583 C17.2253685,11.9791594 18.378797,11.5188614 19.7042422,11.0926741 C23.1734698,9.97716784 27.2795906,10.2229415 30.3388984,11.7292166 C31.529601,12.315468 32.182627,12.7170902 31.7900657,12.6217102 C30.9157987,12.4092894 27.1066144,13.5633186 25.5815646,14.5026358 C24.2430938,15.3270336 24.3134117,15.3313077 22.608523,14.3219156 Z" id="path3505" fill="#7EB900"></path>
        </g>
    </g>
</svg>